<?xml version="1.0" encoding="utf-8"?>
<!-- Generator: Adobe Illustrator 23.1.0, SVG Export Plug-In . SVG Version: 6.00 Build 0)  -->
<svg version="1.1" id="Capa_1" xmlns="http://www.w3.org/2000/svg" xmlns:xlink="http://www.w3.org/1999/xlink" x="0px" y="0px"
	 viewBox="0 0 430.4 440.3" style="enable-background:new 0 0 430.4 440.3;" xml:space="preserve">
<style type="text/css">
	.st0{fill:#E31F7B;}
</style>
<g transform="translate(-59.32 -72.605)">
	<path class="st0" d="M258.7,504.4c-14.3-2.7-29.6-9-44.3-18.1c-34.1-21.1-69.4-57.9-92.7-96.8C89.4,336,82.6,279,101.5,220.1
		c17.9-55.8,57.7-97.1,110.2-114.3c19.4-6.4,36-8.9,57.6-8.9c104.3,0,184.5,85.3,180.7,191.9c-1.8,48.4-20,91.1-59.4,138.6
		c-29.9,36.2-60.1,61.9-84,71.6C292.1,504.9,272.7,507.1,258.7,504.4L258.7,504.4z M291.7,495.5c20.3-5.2,38.4-17,63.8-41.7
		c31.2-30.5,56.3-64.5,70.1-95.1c11.3-25.1,16.5-49.7,16.6-77.7c0-68.6-36.8-129.3-96.2-158.6c-53-26.2-115.7-23.7-165.4,6.5
		c-35.6,21.6-61.8,57.8-74.1,102.4c-18.5,67.4-2.8,129.3,48.5,191.5c9.9,12,31.4,33.4,42,41.9c20.8,16.6,42.4,27.9,60.5,31.8
		C267.2,498.3,281.8,498,291.7,495.5L291.7,495.5z M201.4,373.9c-27.7-4.5-52.4-22.7-65.8-48.4c-9.6-18.4-10.4-39.2-2-52.2
		c11.9-18.6,36.3-23.6,62.6-13c40.3,16.3,65.7,63.2,50.4,93c-2.5,4.9-9.2,12-14,14.8C224.4,373.1,211,375.5,201.4,373.9L201.4,373.9
		z M315.1,367.1c-13.6-3.7-22.6-12.6-26.4-26.3c-7.7-27.7,15-66.3,49.5-84.3c10.1-5.3,18-7.8,28.5-9.2c6.6-0.9,8.9-0.8,15.3,0.5
		c20.6,4.2,31.4,17.5,31.5,38.7c0.1,39.5-44.5,82.2-85.5,81.9C323.5,368.4,317.7,367.8,315.1,367.1L315.1,367.1z M298.2,312.5
		c0.4-3.2,0.3-4.1-0.3-3c-1.3,2.1-3.6,11.5-3.6,14.2C294.4,326.9,297.4,318.3,298.2,312.5L298.2,312.5z"/>
	<rect x="293.7" y="308.2" class="st0" width="6.3" height="18.9"/>
</g>
</svg>
