<?xml version="1.0" encoding="utf-8"?>
<!-- Generator: Adobe Illustrator 23.1.0, SVG Export Plug-In . SVG Version: 6.00 Build 0)  -->
<svg version="1.1" id="Capa_1" xmlns="http://www.w3.org/2000/svg" xmlns:xlink="http://www.w3.org/1999/xlink" x="0px" y="0px"
	 viewBox="0 0 7680 4320" style="enable-background:new 0 0 7680 4320;" xml:space="preserve">
<style type="text/css">
	.st0{clip-path:url(#SVGID_2_);fill:#071326;}
	.st1{clip-path:url(#SVGID_2_);fill:none;stroke:#FF007A;stroke-width:5;stroke-miterlimit:10;}
	.st2{clip-path:url(#SVGID_2_);fill:#00132A;}
</style>
<g>
	<defs>
		<rect id="SVGID_1_" x="0.32" y="-0.26" width="7680" height="4320"/>
	</defs>
	<clipPath id="SVGID_2_">
		<use xlink:href="#SVGID_1_"  style="overflow:visible;"/>
	</clipPath>
	<path class="st0" d="M3774.25,3697.5c0,0,14.14-68.57,33-79.72c18.86-11.14,6-25.71-10.29-14.14
		c-16.28,11.57-20.14-14.57-11.57-42.86c8.57-28.28,31.29-140.57,36.86-142.28c5.57-1.72,10.71-18.43-10.71-9.43
		c-21.43,9-17.83-16.29-10.85-21.86c6.99-5.57-3.3-9.43-7.15-6.86c-3.86,2.57-6,36.43,3.86-35.14
		c9.86-71.57,54.43-107.57,54.43-107.57s-16.28-5.14-22.28,0c-6,5.14-0.43-40.29-0.43-40.29l40.29-209.57c0,0-90-28.28-43.29-99.86
		c-69.43-33.43-85.71-56.57-79.29-67.71c26.14,6,58.29,1.71,58.29,1.71s-30-5-69.43-13c-39.43-8-80.57-73.71-58.86-135.43
		c21.71-61.71,25.14-93.14,56.57-98.29c31.43-5.14-1.14-14.29-16.57-17.71c-15.43-3.43,30.29-116.57,57.71-116
		c27.43,0.57,25.71,28,34.86,24.57c9.14-3.43,2.86-24-20.57-42.29c-23.43-18.29,9.14-65.14,64.57-72.57
		c10.29-34.29,12.57-60.57,36.57-58.86c24,1.72-102.86-278.28,185.14-269.71c228-0.19,154.29,258.86,154.29,258.86
		s31.29-17.57,30.43,66c32.14,8.14,55.71,9.43,55.71,9.43s39,60,5.57,84.43c-33.43,24.43,5.14,15.86,5.14,15.86
		s22.29-34.71,35.14,8.57c12.86,43.29,40.71,50.57,40.71,50.57s15.43,46.72-22.29,42.43c-37.71-4.29,16.29,21.86,16.29,21.86
		s43,18,49.29,113.43c6.29,95.43-58.86,111.43-58.86,111.43l-76,3.43c0,0-13.14,15.43,53.71,14.29c22.29,0-59.43,48-43.43,61.71
		c-28.57-10.28-22.86,10.86-22.86,10.86s30.86,84.57-34.29,89.14c-16,25.72,25.71,178.86,25.71,178.86l0.57,74.29l-21.43-4.29
		c0,0,56.43,90.43,59.43,126c2.57,0.43,12.43,9,10.29,18c-2.14,9-27,3.43-27,3.43l16.29,15c0,0,6,38.57-28.71,11.14
		c11.14,29.14,17.14,45.43,17.57,69c0.43,23.57,26.14,94.29,23.14,124.72c-3,30.43-27.43-8.14-27.43-8.14s-13.29,17.57,14.14,38.14
		c27.43,20.57,10.71,72,10.71,72l-132.43,12.86l13.71-18.43l-39.43-132.86c0,0-21.43-69-65.14-187.29c-43.71-118.28-45-261-45-261
		s-18-18-20.57,24.43c-2.57,42.43-21.86,176.14-28.29,198c-6.43,21.86-55.28,94.72-52.71,195.86
		c-12.86,35.57-29.57,39.43-29.57,39.43l-24.43,105.43L3774.25,3697.5z"/>
	<path class="st1" d="M3774.25,3697.5c0,0,14.14-68.57,33-79.72c18.86-11.14,6-25.71-10.29-14.14
		c-16.28,11.57-20.14-14.57-11.57-42.86c8.57-28.28,31.29-140.57,36.86-142.28c5.57-1.72,10.71-18.43-10.71-9.43
		c-21.43,9-17.83-16.29-10.85-21.86c6.99-5.57-3.3-9.43-7.15-6.86c-3.86,2.57-6,36.43,3.86-35.14
		c9.86-71.57,54.43-107.57,54.43-107.57s-16.28-5.14-22.28,0c-6,5.14-0.43-40.29-0.43-40.29l40.29-209.57c0,0-90-28.28-43.29-99.86
		c-69.43-33.43-85.71-56.57-79.29-67.71c26.14,6,58.29,1.71,58.29,1.71s-30-5-69.43-13c-39.43-8-80.57-73.71-58.86-135.43
		c21.71-61.71,25.14-93.14,56.57-98.29c31.43-5.14-1.14-14.29-16.57-17.71c-15.43-3.43,30.29-116.57,57.71-116
		c27.43,0.57,25.71,28,34.86,24.57c9.14-3.43,2.86-24-20.57-42.29c-23.43-18.29,9.14-65.14,64.57-72.57
		c10.29-34.29,12.57-60.57,36.57-58.86c24,1.72-102.86-278.28,185.14-269.71c228-0.19,154.29,258.86,154.29,258.86
		s31.29-17.57,30.43,66c32.14,8.14,55.71,9.43,55.71,9.43s39,60,5.57,84.43c-33.43,24.43,5.14,15.86,5.14,15.86
		s22.29-34.71,35.14,8.57c12.86,43.29,40.71,50.57,40.71,50.57s15.43,46.72-22.29,42.43c-37.71-4.29,16.29,21.86,16.29,21.86
		s43,18,49.29,113.43c6.29,95.43-58.86,111.43-58.86,111.43l-76,3.43c0,0-13.14,15.43,53.71,14.29c22.29,0-59.43,48-43.43,61.71
		c-28.57-10.28-22.86,10.86-22.86,10.86s30.86,84.57-34.29,89.14c-16,25.72,25.71,178.86,25.71,178.86l0.57,74.29l-21.43-4.29
		c0,0,56.43,90.43,59.43,126c2.57,0.43,12.43,9,10.29,18c-2.14,9-27,3.43-27,3.43l16.29,15c0,0,6,38.57-28.71,11.14
		c11.14,29.14,17.14,45.43,17.57,69c0.43,23.57,26.14,94.29,23.14,124.72c-3,30.43-27.43-8.14-27.43-8.14s-13.29,17.57,14.14,38.14
		c27.43,20.57,10.71,72,10.71,72l-132.43,12.86l13.71-18.43l-39.43-132.86c0,0-21.43-69-65.14-187.29c-43.71-118.28-45-261-45-261
		s-18-18-20.57,24.43c-2.57,42.43-21.86,176.14-28.29,198c-6.43,21.86-55.28,94.72-52.71,195.86
		c-12.86,35.57-29.57,39.43-29.57,39.43l-24.43,105.43L3774.25,3697.5z"/>
	<path class="st2" d="M4589.96,3722.56c-146.57,47.57-466.71,54-466.71,54l61.71-27c0,0-412.71-7.71-658.29-54
		C3903.39,3613.28,4559.1,3674.99,4589.96,3722.56"/>
</g>
</svg>
