<?xml version="1.0" encoding="utf-8"?>
<!-- Generator: Adobe Illustrator 23.1.0, SVG Export Plug-In . SVG Version: 6.00 Build 0)  -->
<svg version="1.1" id="Capa_1" xmlns="http://www.w3.org/2000/svg" xmlns:xlink="http://www.w3.org/1999/xlink" x="0px" y="0px"
	 viewBox="0 0 1280 1024" style="enable-background:new 0 0 1280 1024;" xml:space="preserve">
<style type="text/css">
	.st0{fill:#B01968;}
</style>
<g>
	<g>
		<g>
			<path class="st0" d="M91.2,499.9c-1.3-0.1-3.4-0.2-5.5-0.3c-0.7,0-1.5-0.1-2.2-0.1c-2.9,0.1-4.9,1.5-5.9,4.3
				c-0.4,1.2-0.6,2.4-0.8,3.6c-0.5,3.1-1.2,6.1-2.1,9c-2.4,7.9-6.2,14.8-12.9,19.9c-1.4,1.1-2.6,2.3-3.6,3.7c-1.6,2.1-2.1,4.5-1.4,7
				c0.3,1.1,0.6,2.2,1.1,3.1c2.8,5.3,5.9,10.3,9.4,15.1c2.5,3.4,5.8,4.8,10.1,4.2c5.1-0.8,10.2-1.9,15-4.2
				c7.4-3.5,15.2-5.1,23.5-4.3c3.7,0.4,7.3,1.1,10.6,3.1c1.8,1.1,3.9,1.6,6,1.6c1.9,0,3.7-0.1,5.5-0.6c6.7-1.6,13.3-3.9,19.8-6.3
				c0.9-0.3,1.8-0.8,2.6-1.4c1.4-1,1.8-2.4,1.1-3.9c-0.5-1-1.1-1.9-1.8-2.8c-1.2-1.4-1.8-3-1.9-4.8c-0.1-1.4-0.1-2.7-0.2-4.1
				c-0.1-2.5-0.2-5-0.5-7.4c-0.7-6-3.4-10.8-8.8-13.9c-0.5-0.3-1.1-0.6-1.6-1c-1.6-1.1-2.3-2.5-1.9-4.5c0.2-1.2,0.5-2.4,0.7-3.7
				c0.3-2.4-0.5-3.6-2.9-3.8c-1.6-0.2-3.2-0.1-4.8-0.1c-4.2,0.1-8.1-0.9-11.7-3c-1.3-0.8-2.6-1.5-4-2c-2.5-0.9-4.9-0.8-7,0.9
				c-0.3,0.2-0.6,0.5-0.9,0.7c-0.9,0.7-1.8,0.7-2.8,0.2c-0.7-0.3-1.2-0.8-1.9-1.2c-2.7-1.8-5.7-2.9-9-3.2
				C97.7,499.7,94.9,499.7,91.2,499.9"/>
			<path class="st0" d="M135.7,835.6c0-0.9-0.6-1.4-1.1-2c-6.5-7.4-11.3-15.8-15.4-24.8c-0.8-1.9-1.7-3.8-2.8-5.6
				c-2.9-4.8-7.1-7.2-12.8-6.8c-1.1,0.1-2.3,0.1-3.3,0.3c-3.3,0.7-6.7,0.6-10,0.7c-2.6,0-5.1,0-7.7,0.3c-5.3,0.8-7.9,3.3-8.9,8.6
				c-0.4,2.2-0.5,4.4-0.6,6.7c-0.1,2.1,0,4.2-0.2,6.2c-0.4,5.1-2,9.6-6,13.2c-2.9,2.6-5.3,5.5-7.6,8.7c-7.1,9.9-10.2,20.9-9.1,33
				c0.4,4.7,0,9.2-1.8,13.6c-0.1,0.3-0.2,0.6-0.3,0.9c-1.9,5.3-1.9,9.2,3.8,13.5c1.8,1.4,3.2,3.2,4.5,5c1.1,1.5,2.3,3.1,3.5,4.6
				c1.8,2.1,3.9,3.8,6.7,4.5c2,0.5,3.4,1.5,4.8,2.9c5.4,5.6,11.7,9.9,18.5,13.6c5.6,3,11.6,3.6,17.6,1.3c5-1.9,9-0.3,12.7,2.8
				c-0.1,1.2-0.9,1-1.4,0.9c-5-0.5-9.5,0.9-13.6,3.7c-4.9,3.3-9.8,3.3-15,1c-3.7-1.6-7.1-3.6-10.4-6c-3.1-2.3-6.1-4.6-9.3-6.9
				c-3.5-2.5-7.2-4.8-11.4-6.1c-3.5-1-5.8-3.3-7.3-6.4c-0.7-1.4-1.2-2.9-1.9-4.4c-0.5-1.2-1-2.4-1.7-3.4c-1.2-1.8-2.9-2.4-5-2
				c-0.9,0.2-1.9,0.5-2.7,0.9c-10.8,4.8-20.6,10.9-27.6,20.8c-2.5,3.5-5.6,6.6-8.9,9.4c-0.9,0.7-1.7,1.5-3,1.3v-18.2
				c2.7-0.7,4-2.9,5.5-5c1.8-2.6,2.4-5.4,1.5-8.5c-1.2-4-3.1-7.6-5.3-11c-0.4-0.6-1.1-0.6-1.7-0.4v-8.6c1.1-0.2,1.8,0.5,2.3,1.3
				c1.5,2.4,3.1,4.8,4.7,7.2c3.6,5.5,6.1,6.3,12.1,3.8c3.7-1.5,7.3-3.2,10.9-4.9c5.8-2.7,8.8-7.3,9.2-13.5c0.3-3.8,0.3-7.7,0.4-11.5
				c0.1-5.8,0.7-11.5,2.3-17c2.5-9,7.3-16.6,13.7-23.3c1.1-1.2,2.2-2.3,3.4-3.4c2.3-2,3.6-4.3,3.5-7.5c-0.2-2.9,0.8-5.7,1.3-8.5
				c0.3-1.4,0.5-2.8,0.8-4.2c0.8-3.2,0.4-6.3-0.5-9.4c-1.3-4.3-2.7-8.5-3.9-12.8c-1.1-4-2.3-8-3.2-12c-1.3-5.6-1.6-11.4-1.3-17.1
				c0.1-1,0.2-1.9,0.2-2.9c0-2.1-0.6-2.9-2.6-3.4c-0.8-0.2-1.6-0.2-2.4-0.4c-10.6-2.2-21.2-4.7-31.5-8c-1.4-0.4-2.7-0.9-4-1.5
				c-0.2-0.1-0.1-0.9-0.2-1.3l-0.1,0.1c10.1,2.4,20.2,4.8,30.3,7.1c2,0.5,4.1,0.5,6.2,0.4c4.6-0.2,7.4-2.5,8.8-6.8
				c0.9-2.9,1.2-5.9,1.2-9c-0.1-7.2,0-14.4-0.2-21.6c-0.4-12.3-0.6-24.6-1.7-36.9c-0.4-4-0.9-7.9-1.3-11.9c-0.2-1.7-0.6-3.4,0.3-5.2
				c1.5,0.4,1.4,1.7,1.9,2.5c2.2,3.3,4.5,4.1,8.1,2.5c1.2-0.5,2.3-1.2,3.3-1.9c2.9-2.1,5.9-3.8,9.2-5.1c0.1-0.1,0.3-0.1,0.4-0.2
				c7.5-3.1,11.1-8.8,11.6-16.7c0.2-2.7,0.4-5.4,0.8-8.1c1.4-8.9,5-16.8,10.5-23.8c5.6-7.1,12.6-12.7,20.2-17.5
				c0.1-0.1,0.3-0.2,0.4-0.2c0.3,0,0.7,0,0.8,0.2c0.2,0.2,0.2,0.6,0.1,0.9c-0.5,1.5-1.5,2.8-2.7,3.9c-1.4,1.4-2.8,2.7-4.2,3.9
				c-4.1,3.4-7.5,7.4-10.5,11.8c-5.6,8.5-9.2,17.8-11.7,27.7c-0.3,1.1-0.5,2.2-0.6,3.3c-0.5,5.2,1,9.5,5.7,12.2
				c0.9,0.5,2.1,1,1.9,2.4l0,0c-2.4-1.5-5.1-1.5-7.8-1.1c-3.4,0.4-6.6,1.4-9.5,3c-2.7,1.4-5.3,2.9-7.9,4.5
				c-3.6,2.1-7.1,4.2-10.9,5.9c-3.7,1.6-4.5,3.2-4.1,7.1c0.2,2.2,0.7,4.4,1.1,6.6c2.8,15.5,3.9,31.1,3.3,46.8
				c-0.5,12-1.7,23.9-3.9,35.7c-0.9,4.9-0.5,9.5,0.8,14.2c1.7,5.9,4.7,11.2,7.4,16.6c0.9,1.8,2.4,2.4,4.3,2.4
				c7.3-0.1,14.7-0.1,22.1-0.2c6.6,0,13-1.3,19-4.3c3.7-1.9,7.8-2.9,11.9-3.5c0.7-0.1,1.5-0.5,2.3,0.5c-1.5,1.7-3.5,2.6-5.4,3.6
				c-2.3,1.2-4.6,2.3-6.7,3.7c-2.7,1.8-3.3,3.6-2.4,6.6c0.6,1.8,1.4,3.6,2.2,5.3c4.1,8.7,8.7,17.1,13.6,25.3
				c0.6,1.1,1.3,2.2,1.9,3.3C136.4,834.1,136.1,834.9,135.7,835.6L135.7,835.6z"/>
			<path class="st0" d="M1281.6,483.7c-4.6-5.5-8.6-11.4-12.5-17.5c-1-1.5-1.9-3-3-4.4c-2.3-3-5.3-4.5-9.2-4.3
				c-4.2,0.3-8.3,0-12.4-0.8c-3.6-0.7-7.1-1.8-10.6-3c-2.9-1-5.8-1.7-8.9-1.9c-7.1-0.5-13.6,1.3-19.7,5c-1.8,1.1-3.5,2.3-5.3,3.3
				c-8.5,4.7-16.9,4.6-24.7-1.4c-6.6-5.1-13.8-6.2-21.7-5.5c-1.4,0.1-2.9,0.2-4.3,0.3c-0.1,0-0.2-0.2-0.3-0.2c2.3-2.4,5-3.8,8.7-4.3
				c4.1-0.6,8-0.1,11.7,1.8c1.6,0.8,3,1.8,4.6,2.6c2,1,3.9,2.2,6,3c6.4,2.5,12.5,1.8,18.3-1.9c0.9-0.6,1.9-1.2,2.7-2
				c3.9-3.7,8.7-6,13.7-7.7c2.9-1,5.7-2.1,8.5-3.2c1.5-0.6,2.8-0.6,3.9,0.7c3.3,3.8,7.7,4.9,12.4,5.6c2.8,0.5,5.7,0.8,8.5,1.5
				c6.5,1.6,12.1,0,16.5-5c6.3-7.1,10.4-15.3,12.3-24.6c1.6-8.2,0.7-16.2-1.5-24.2c-1.5-5.4-3.5-10.6-5.7-15.8
				c-1.5-3.5-3.2-7-4.7-10.5c-2-4.7-4.4-9.2-7.6-13.3c-2.8-3.6-4.4-7.6-5-12.2c-0.7-5.4-1.9-10.7-2.9-16c-0.2-1.1-0.4-2.2-0.5-3.3
				c0-0.2,0.2-0.6,0.4-0.7c0.3-0.1,0.6,0,0.9,0.1c1.8,1,2.8,2.6,3.4,4.5c0.4,1.4,0.6,2.8,0.8,4.2c0.7,6.5,3.1,12.4,6.3,17.9
				c2.6,4.4,5.7,8.5,9.1,12.4c2.2,2.6,4.3,5.2,6,8.1c2.4,4.2,4.4,8.5,4.8,13.4c0.1,0.8,0.3,1.6,0.9,2.2v48c-1.4,1.7-2.8,3.5-4.2,5.2
				c-2.7,3.2-3.3,6.8-1.5,10.7c1.9,4,3.8,8,5.7,12V483.7z"/>
			<path class="st0" d="M1281.6,677.6c-5.9,9.8-13.9,17-24.7,21c-0.7,0.3-1.5,0.6-2.2,1c-1.6,0.8-2.3,2.2-2.1,3.9
				c0.2,1.3,0.5,2.5,0.8,3.7c2.4,8.4,1.2,16.1-4,23.2c-2.7,3.7-4.1,7.9-4.6,12.5c-0.8,7.7-0.8,15.3-0.8,23c0,6.6,0.2,13.1-0.1,19.7
				c-0.2,5.1,1.7,9,5.7,12c0.4,0.3,0.7,0.7,1.2,0.8c2.9,1.3,3,3.8,2.6,6.4c-0.1,0.6-1.1,0.9-1.5,0.5c-1.1-1.1-2.2-2.3-3.3-3.5
				c-7.6-8.4-16.7-14.3-27.7-17.2c-4.7-1.3-9.4-1.9-14.2-2.1c-2.4-0.1-4.7-0.4-6.9-1.5c-2-1-4.2-1.5-6.4-2
				c-5.6-1.1-10.4,0.4-14.6,4.2c-2.2,1.9-3.9,4.2-5.3,6.7c-0.7,1.2-1.4,2.5-2,3.8c-1.7,3.4-4.4,5.5-7.9,6.5
				c-1.8,0.6-3.6,1.3-5.6,0.9c0.3-1,1.1-1.2,1.8-1.5c4.9-2.3,8.7-6,11.8-10.3c2.4-3.2,4.5-6.6,6.2-10.2c1.4-3,0.9-4.3-1.9-5.9
				c-0.4-0.2-0.9-0.4-1.3-0.6c-11.5-4.7-23.3-9-35.4-11.9c-7.8-1.9-13.8,0.6-18.5,6.8c-3.3,4.4-5.6,9.3-7.1,14.6
				c-1.1,3.8-2,7.7-3,11.6c-0.3,1.2-0.7,2.5-1.1,3.7c-0.2,0.5-0.7,0.5-1.2,0.4l0,0c0.8-4.7,1.4-9.5,2.3-14.2
				c1.2-6.7,3.8-12.8,8.4-18c0.4-0.5,0.8-1,1.2-1.5c0.9-1.3,1-2.7,0.1-4c-0.4-0.7-0.9-1.3-1.5-1.9c-4.7-4.8-8.5-10.3-12.4-15.8
				c-2.3-3.3-4.7-6.5-7-9.7c-2.3-3.1-5-5.8-7.8-8.5c-0.7-0.7-0.8-1.3-0.3-2.1l-0.1,0c0.3,0.3,0.6,0.8,1,1c9.4,5.9,16.6,14,22.6,23.2
				c0.9,1.3,1.8,2.7,2.7,3.9c3.2,4,7.3,6.1,12.5,6c0.6,0,1.3,0,1.9,0c9.6-0.9,18.7,1.4,27.6,5c5.6,2.3,11.2,4.8,16.8,7.1
				c9.8,4,19.7,7.4,30.1,9.5c2.7,0.5,5.3,1.1,8,1.4c6.5,0.7,12.5,2.8,18.1,5.9c1.3,0.7,2.5,1.4,3.9,1.9c2,0.7,3.6-0.3,3.8-2.3
				c0.2-1.6,0.2-3.2,0.2-4.8c-0.1-5.8-0.1-11.5-0.2-17.3c-0.2-8.2,1.3-16.2,2.4-24.3c0.5-3.7,1.9-7.1,4.6-9.8
				c2.9-2.9,3.9-6.5,3.8-10.5c-0.2-5.7-1.2-11.1-3.9-16.2c-1.7-3.2-3.3-6.6-5.1-9.8c-1.3-2.2-2.8-4.3-4.3-6.3
				c-3.4-4.4-8.1-6.2-13.5-5.7c-7.5,0.7-14.8,2.3-21.9,5.1c-2.2,0.9-4.4,2-6.9,2c-0.4,0-1-0.2-1.2-0.5c-0.2-0.3,0-1,0.2-1.4
				c1.1-2.1,3-3.3,5.3-3.8c6.5-1.6,13-3.2,19.6-4.8c0.9-0.2,1.9-0.3,2.8-0.5c3.8-0.7,7-2.2,8.1-6.9c3.7,6.3,8.1,11.4,12.1,16.8
				c1.5,2.1,2.7,4.3,4.1,6.5c2.3,3.5,4.8,4.3,8.6,2.5c1.4-0.7,2.8-1.5,4.1-2.5c7-5.4,13.7-11.1,19.7-17.5c1-1,1.9-2.2,2.8-3.2V677.6
				z"/>
			<path class="st0" d="M1,419.4c1.4-0.1,2.3-1,3.2-1.9c6-5.3,12.4-10.1,19.6-13.7c8.4-4.3,9.7-14.3,4.9-21.8
				c-0.8-1.3-1.9-2.5-2.8-3.7c0.6-1.3,1.7-0.7,2.5-0.9c2.5-0.6,3.6-2,3-4.5c-0.4-1.7-1-3.4-1.6-5c-3.4-9-6.8-17.9-10.2-26.9
				c-0.5-1.3-1-2.7-1.5-4c-0.3-0.8-0.1-1.6,0.8-1.9c1-0.3,1.5,0.3,1.8,1.1c0.4,0.9,0.8,1.8,1.1,2.6c3.5,8.6,7,17.1,10.5,25.7
				c0.6,1.5,1.2,3,1.9,4.4c0.6,1.1,1.2,2.2,2,3.2c2.4,3,5,3.7,8.5,2c1.8-0.9,3.5-2.2,5.2-3.2c0.8-0.1,0.8,0.5,0.8,0.9
				c0,2.8,1.5,4.4,3.9,5.5c1,0.5,2.1,0.8,3.1,1.3c0.2,0.1,0.4,0.5,0.4,0.8c0.1,0.4-0.1,0.6-0.5,0.7c-2.1,0.4-4.1,0.2-6.2-0.2
				c-2.5-0.5-5.1-0.6-7.6-0.4c-5.8,0.4-8.3,2.5-9.4,8.3c-0.4,2.2-0.7,4.4-1,6.6c-0.7,5.2-3.2,9.3-7.3,12.5c-2.2,1.6-4.5,3.1-6.8,4.5
				c-4.5,3-9,6.1-12.7,10.1c-1.4,1.5-2.7,3.2-3.9,4.8c-0.5,0.7-1.2,1-2,0.9V419.4z"/>
			<path class="st0" d="M1,569.1c5.4-0.4,10.9-0.1,16.3-0.7c3.3-0.4,6.7-0.8,9.9-1.8c1.5-0.5,2.8-0.3,4,0.7
				c3.2,2.7,6.9,2.8,10.4,1.2c9.3-4.5,16.5-11,19.4-21.3c0.7-2.6,1-5.3,1.3-8c0.2-1.8,0.6-3.5,2.2-4.6c1.8-1.2,3.7-2.6,6.2-1.6
				l-0.1-0.1c-6.1,4.9-8.2,11.5-8,19.1c0.1,4.8,2.2,8.2,6.5,10.4c0.4,0.2,0.8,0.5,1.3,0.6c6.2,2.4,10.1,7.1,13.1,12.7
				c0.1,0.3,0.2,0.6,0.3,0.9c0,0.1,0,0.3-0.1,0.5c-1.2,0.2-1.5-0.9-2.1-1.5c-2.8-2.9-5.5-5.8-8.7-8.3c-2.9-2.3-6-4.2-9.6-5.2
				c-4.6-1.3-8.5-0.1-12,3c-2.2,2-3.7,4.4-5,7c-0.6,1.1-1,2.3-1.6,3.5c-0.4,0.9-1.1,1-1.9,0.5c-1.8-1-3.7-1.9-5.6-2.7
				c-4.7-1.9-9.6-2.1-14.6-0.8c-4.4,1.1-7.3,3.8-8.9,7.9c-1,2.5-1.9,5.1-2.9,7.6c-1.4,3.3-3.3,6.2-6.1,8.4c-1,0.8-2,1.6-3.5,1.2
				v-4.8c6.3-3.3,10-8.5,11.9-15.3c0.2-0.6,0.3-1.2,0.3-1.9c0.1-2.3-1-3.7-3.2-3.9c-3-0.2-6-0.8-9-0.1V569.1z"/>
			<path class="st0" d="M1,664.2c1.3-0.1,2.4-0.9,3.4-1.7c1.8-1.5,3.7-3.1,5.5-4.6c6.3-5.2,13.2-9.5,20.9-12.4
				c8.7-3.4,17.5-3.3,26,0.7c1.1,0.5,2.4,1,3.1,2.2c0.3,0.6,0.5,1.2,0.2,1.8c-0.3,0.6-1,0.8-1.6,0.6c-2-0.6-3.9-1.3-6-1.8
				c-7.9-1.9-15.5-0.9-22.9,2.2c-5.2,2.2-9.9,5.2-14.2,8.8c-3.5,3-7,6.1-10.4,9.1c-1.2,1.1-2.2,2.4-3.8,2.7V664.2z"/>
			<path class="st0" d="M1,477c0.3,0.2,0.6,0.3,0.8,0.5c2.8,3.3,5.7,6.4,8.3,9.8c4.6,6,6.9,12.9,8.1,20.2c1.5,9.3,1.5,18.7,2,28.4
				c-1.3-0.5-1.2-1.6-1.4-2.2c-0.6-3.1-1.1-6.3-1.5-9.4c-1-8.4-2.5-16.7-5.6-24.6c-1.9-4.8-4.3-9.2-7.5-13.3
				c-0.9-1.1-1.7-2.4-3.3-2.6V477z"/>
			<path class="st0" d="M1,1020.2c3,0.4,6,0.7,9,1.2c4.8,0.7,9.5,0.7,14.3,0.4c6.1-0.3,12.1,0,18,1.4c1.7,0.4,3.5,0.5,4.8,1.9H1
				V1020.2z"/>
			<path class="st0" d="M367.7,1025c-1.9-6.2-3.9-12.5-5.8-18.7c-0.9-2.9-1.2-5.9-0.7-9c0.1-0.4,0.4-1,0.7-1.1c0.9-0.3,1,0.5,1.2,1
				c1.1,2.8,2.1,5.7,3.1,8.5c2.4,6.4,4.9,12.8,7.3,19.2H367.7z"/>
			<path class="st0" d="M1281.6,809.1c-3.5-2.6-7.3-4.5-11.2-6.2c-3.8-1.6-7.9-1.9-12.4-2.8c4.4-2.4,8.5-2.2,12.5-1.1
				c2.8,0.8,5.2,2.2,7.6,3.9c1.2,0.8,2.3,1.6,3.5,2.3V809.1z"/>
			<path class="st0" d="M1281.6,644c-2.3,0.5-4.6,1-7,1.4c-0.5,0.1-1,0.2-1.4,0c-0.4-0.2-0.7-0.7-0.8-1.1c-0.2-0.4-0.1-1,0.4-1.2
				c2.8-1.1,5.7-1.8,8.7-2V644z"/>
			<path class="st0" d="M1,453c0.9,0.1,1.5,0.6,1.6,1.4c0.5,3.5,0.5,7,0,10.4c-0.1,0.8-0.7,1.4-1.6,1.6V453z"/>
			<path class="st0" d="M1173.1,618.1c-1.3,7.6-6.8,14.6-13.6,17.2c-1.6,0.6-3.3,1.1-4.8,2c-2.3,1.3-2.7,3.5-1.3,5.7
				c0.8,1.2,1.9,2.2,2.9,3.1c2.3,2,4.6,4,6.9,6c3.3,2.8,6.4,5.8,9.3,9c4.4,4.9,8,10.4,10.1,16.7c0.9,2.8,2.6,4.6,5.1,6
				c1.5,0.8,3.3,1.3,4.3,2.8c-0.9,0.9-1.9,0.8-2.8,1c-6.7,1.2-12.7,4.1-18.3,8c-4.9,3.4-9.3,7.3-13.8,11.1c-2.2,1.9-4.4,3.7-6.6,5.6
				c-0.5,0.4-0.9,0.9-1.6,0.7c3-7.3,9.5-14,16.5-17c1.3-0.6,2.7-1,4-1.6c7.1-3.4,10.1-9.8,8.1-17.5c-1.1-4.4-3.3-8.3-6.1-11.8
				c-2.1-2.6-4.5-5-7-7.2c-10.1-9.3-20.3-18.5-30.4-27.8c-2.2-2.1-4.4-4.2-6.4-6.5c-3.9-4.4-6.7-9.4-7.9-15.1c-0.8-4-2.6-7.5-5-10.8
				c-1.9-2.6-3.8-5.1-5.7-7.7c-0.7-0.9-1.3-1.8-0.8-3.1l-0.2-0.1c1.9,1.7,3.7,3.4,5.6,5.2c5.1,4.8,9,10.2,10.7,17.2
				c0.9,3.9,3,7.4,5.6,10.4c1.7,1.9,3.5,3.7,5.4,5.4c3.7,3.3,7.5,6.4,11.2,9.7c1.4,1.3,3.1,1.8,4.8,1.3c7.4-2,14.1-5.1,17.9-12.4
				c0.8-1.6,1.7-3,2.6-4.5C1172.1,618.6,1172.4,618.1,1173.1,618.1L1173.1,618.1z"/>
			<path class="st0" d="M864.8,468.2c0.8-1.6,2.5-1.9,3.8-2.7c2.6-1.6,5.2-3.2,5.9-6.5c1.5,0.2,1.9,1.3,2.5,2.1
				c7,9.1,16.3,13.5,27.7,14c3.5,0.1,7-0.1,10.5-0.1c1.1,0,2.2-0.3,3.2,0.2c0.4,1.5-0.8,2.4-1.2,3.6c-0.6,1.5-0.4,2.9,0.9,3.9
				c1.6,1.3,3.3,2.6,5,3.7c11.6,7.6,23.1,15.4,34.3,23.6c7.6,5.5,15.2,11.1,22.7,16.8c4.3,3.3,8.8,6.4,13.9,8.3
				c0.9,0.3,1.9,0.6,1.7,1.9l0,0c-4.7-1.8-7.9,0.7-10.5,4c-1.1-0.4-0.9-1.1-0.9-1.7c-0.2-2.7-1.5-4.9-3.5-6.6
				c-1.7-1.5-3.4-2.9-5.3-4.1c-20.1-13.4-39.7-27.4-58.9-42.1c-2.7-2.1-5.4-3.9-8.4-5.5c-4.5-2.4-9.2-3.6-14.3-3.4
				c-1.4,0.1-2.9-0.1-4.3-0.3c-2.2-0.3-3.9-1.4-5-3.3c-0.8-1.2-1.5-2.4-2.4-3.6c-3.2-4-7.3-5-12-3.6c-1.2,0.4-2.4,0.9-3.6,1.4
				c-0.6,0.2-1.2,0.3-1.8-0.1L864.8,468.2z"/>
			<path class="st0" d="M201.6,680.4c-0.5-0.1-1,0-1.3-0.3c-5-3.6-10-7.4-14.3-11.9c-5.2-5.4-9-11.6-10.4-19
				c-0.6-3.2-2.2-5.2-5.4-5.9c-2.4-0.6-4.4-1.9-6.1-3.5c-2.7-2.5-5.3-5-8-7.5l0.1,0.2c0.8,0.2,1.6,0.2,2.3,0.6
				c4.2,2.6,8.4,5.1,12.5,7.9c5.8,4,10.1,9.2,12.4,16c1.5,4.5,4.3,8.2,7.5,11.5c2.9,3,5.9,5.8,8.8,8.8
				C200.5,678.3,201.7,679,201.6,680.4L201.6,680.4z"/>
			<path class="st0" d="M194.9,605.6c1.3-0.2,2.5,0.4,3.7,0.9c3.3,1.3,6.6,2.5,9.8,4c8.9,4.1,18,5.3,27.6,3.3
				c3.2-0.7,6.3-0.4,9.3,1.3c4.4,2.4,8.6,2.2,12.3-1.5c0.2-0.2,0.5-0.4,0.8-0.5c0.1,0,0.2,0,0.6,0.1c-0.6,2.4-1.9,4.4-4,5.6
				c-2.1,1.2-4.3,0.8-6.5-0.1c-0.7-0.3-1.4-0.7-2.1-1.1c-2.1-1.1-4.2-1.4-6.5-0.9c-12.4,2.9-24.1,0.3-35.3-5.2
				c-2.9-1.4-5.6-3-8.4-4.6c-0.5-0.3-1.1-0.6-1-1.4L194.9,605.6z"/>
			<path class="st0" d="M186.7,404.2c2.6-2.5,5.3-5.1,7.9-7.6c6.7-6.6,12-14,14.4-23.2c0.1-0.6,0.1-1.3,1.1-1.5
				c0.4,4.4-0.7,8.5-2.5,12.5c-3.8,8.6-10.4,14.7-18.6,19.2c-0.7,0.4-1.5,0.3-2.3,0.4L186.7,404.2z"/>
			<path class="st0" d="M995.7,537c1.4-0.2,2.8-0.4,4.3,0c9.2,2.3,18.6,2.7,28.1,2.1c2.2-0.1,4.5-0.1,6.7-0.1c1.7,0,3.5,0.3,5.3,0.5
				c-0.1,1.3-1.1,1-1.7,1.1c-6.8,0.8-13.6,1.8-20.5,1.7c-5.8,0-11.4-1.2-16.7-3.7C999.4,537.8,997.7,536.8,995.7,537
				C995.7,537,995.7,537,995.7,537"/>
			<path class="st0" d="M1214,331.7c0.3,0.9,0.5,1.9,0.1,2.8c-3.4,9.1-8.8,16.2-18.4,19.2c-0.4,0.1-0.9,0.1-1.5,0.2
				c0-1.2,0.9-1.5,1.6-2c3.2-2.4,6.3-4.9,9.1-7.7c3.7-3.7,7.1-7.7,9.3-12.6L1214,331.7z"/>
			<path class="st0" d="M142.5,602.2c0.8,0,1.5-0.5,2.1-1c1.8-1.7,3.8-3.4,5.5-5.2c4.7-4.9,9.2-9.9,13.9-14.9l-0.2,0.1
				c0.2,0.6,0.4,1.3,0,1.8c-4.6,6.3-9.2,12.7-15.6,17.4c-1,0.8-2.1,1.4-3.3,2C144.1,602.8,143.3,602.5,142.5,602.2L142.5,602.2z"/>
			<path class="st0" d="M83,483.9c2.3,3.2,3,6.8,3.4,10.6c0.3,2.9,0.5,6-1.5,9.2C83.4,496.8,83.7,490.3,83,483.9"/>
			<path class="st0" d="M104.8,651.4c1.2-0.3,2.6-1.2,3.6,0.4c0,0,0.1-0.1,0.1-0.1C107.2,651.6,106,651.5,104.8,651.4
				C104.8,651.4,104.8,651.4,104.8,651.4"/>
			<path class="st0" d="M1108.4,797.8c0,0.3,0.1,0.6,0.1,0.8c0,0.2,0,0.5,0,0.7c0-0.2,0.1-0.5,0-0.7
				C1108.4,798.4,1108.4,798.1,1108.4,797.8C1108.3,797.8,1108.4,797.8,1108.4,797.8"/>
			<path class="st0" d="M15.9,737.4c-0.5,0.5-1,0.7-1.7,0.5c-0.1,0-0.3-0.1-0.4-0.2c-0.1-0.4,0.1-0.5,0.5-0.4
				c0.5,0.1,0.9,0.1,1.4,0.2C15.9,737.5,15.9,737.4,15.9,737.4"/>
			<path class="st0" d="M195,605.5c-0.4,0.1-0.8,0.2-0.9-0.3c0,0,0.3-0.2,0.3-0.1c0.2,0.2,0.3,0.4,0.5,0.6
				C194.9,605.6,195,605.5,195,605.5"/>
			<path class="st0" d="M1173.2,618.2c-0.2-1,0.2-1.6,1.1-2l0.1-0.1C1173.9,616.7,1174.2,617.8,1173.2,618.2
				C1173.1,618.1,1173.2,618.2,1173.2,618.2"/>
			<path class="st0" d="M110.9,652.1c-0.9,0.2-1.8,0.9-2.4-0.4c0,0-0.1,0.1-0.1,0.1C109.2,651.9,110.1,652.1,110.9,652.1
				L110.9,652.1z"/>
			<path class="st0" d="M1091.3,722.2c-1.2,0.7-2.1-0.4-3.1-0.6l0.1,0.2C1089.2,722.4,1090.2,722,1091.3,722.2
				C1091.3,722.2,1091.3,722.2,1091.3,722.2"/>
			<path class="st0" d="M1189.3,308.2c-0.1,0-0.2,0-0.3,0.1c0.2,0.3,0.2,0.2,0.2-0.2C1189.3,308.1,1189.3,308.2,1189.3,308.2"/>
			<path class="st0" d="M186.8,404c0.1,0.1,0.1,0.2,0.2,0.3c0.2-0.3,0.1-0.3-0.2-0.1C186.7,404.2,186.8,404,186.8,404"/>
			<path class="st0" d="M1214.2,331.6l-0.1,0.3c0.3-0.1,0.3-0.2-0.1-0.2C1214,331.7,1214.2,331.6,1214.2,331.6"/>
			<path class="st0" d="M47.6,408.9c0.6,0.2-0.2,0.6,0.2,0.1c0.1-0.1-0.1-0.2-0.1,0.1C47.7,409.1,47.6,408.9,47.6,408.9"/>
			<path class="st0" d="M1088.2,721.5c0.1,0.1,0.2,0.1,0.3,0.2c0-0.3-0.1-0.3-0.1,0C1088.3,721.7,1088.2,721.5,1088.2,721.5"/>
			<polygon class="st0" points="202.3,681.7 202.6,681.9 202.5,681.6 			"/>
			<path class="st0" d="M208.6,753c0.1-0.6,0.6,0.1,0-0.3c-0.2-0.1-0.2,0.1,0.1,0.2C208.8,752.9,208.6,753,208.6,753"/>
			<path class="st0" d="M881.4,653.2c0,0.1-0.1,0.1-0.1,0.2c0.2-0.2,0.2-0.2,0-0.1C881.3,653.4,881.4,653.2,881.4,653.2"/>
			<path class="st0" d="M156.1,632.4c0.1,0.1,0.2,0.1,0.2,0.2c0-0.3-0.1-0.3-0.2,0C156.1,632.6,156.1,632.4,156.1,632.4"/>
			<path class="st0" d="M202.5,681.6c-0.5-0.3-0.9-0.5-0.8-1.2l-0.1,0.1c0.8,0,0.9,0.5,0.8,1.2C202.3,681.7,202.5,681.6,202.5,681.6
				"/>
			<path class="st0" d="M1174.3,616.2c0.1-0.6,0.6,0.1,0-0.2c-0.2-0.1-0.2,0.1,0.1,0.1C1174.4,616.1,1174.3,616.2,1174.3,616.2"/>
			<path class="st0" d="M186,698.3c0.1,0.1,0.2,0.2,0.3,0.3C186.2,698.5,186.1,698.4,186,698.3C186,698.2,186,698.3,186,698.3"/>
			<path class="st0" d="M135.7,835.6c0.2-0.1,0.4-0.1,0.6-0.2c-0.1,0-0.2,0-0.2,0C135.9,835.5,135.8,835.6,135.7,835.6
				C135.7,835.6,135.7,835.6,135.7,835.6"/>
			<path class="st0" d="M864.7,468.2c0.3,0.3,0.3,0.5,0,0.7c0,0-0.2-0.1-0.2-0.2c-0.2-0.6,0,0.2,0.3-0.3
				C864.8,468.2,864.7,468.2,864.7,468.2"/>
			<path class="st0" d="M142.6,602.1c0,0.1,0,0.2,0,0.3C142.8,602.4,142.8,602.3,142.6,602.1C142.5,602.2,142.6,602.1,142.6,602.1"
				/>
			<path class="st0" d="M467.5,914.6c0,0.7-0.4,0.9-1,0.7l-0.1,0.1C466.7,915,466.9,914.6,467.5,914.6
				C467.6,914.7,467.5,914.6,467.5,914.6"/>
			<path class="st0" d="M466.5,915.3l-0.1,0.4C466.4,915.7,466.4,915.4,466.5,915.3C466.4,915.4,466.5,915.3,466.5,915.3"/>
			<path class="st0" d="M1108.2,586.9c-0.6,0.2-0.3-0.5-0.3,0.1c0,0.2,0.3,0.2,0.1-0.2C1108,586.8,1108.2,586.9,1108.2,586.9"/>
			<path class="st0" d="M111,652.2c-0.6,0.1-0.1-0.5-0.3,0.1c-0.1,0.2,0.2,0.2,0.2-0.2C110.9,652.1,111,652.2,111,652.2"/>
			<path class="st0" d="M163.9,581.1c0,0.1-0.1,0.2-0.1,0.3c0.2,0.3,0.3,0.2,0.2-0.1c0-0.1-0.2-0.1-0.3-0.2
				C163.7,581.1,163.9,581.1,163.9,581.1"/>
			<path class="st0" d="M974.3,479.8c0,0-0.1,0.1-0.1,0.1C974.2,479.9,974.3,479.8,974.3,479.8"/>
			<path class="st0" d="M320.1,504.8c-0.6-0.2,0.1-0.6-0.3-0.1c-0.1,0.1,0.1,0.2,0.2-0.1C320,504.6,320.1,504.8,320.1,504.8"/>
			<path class="st0" d="M70.5,533c-0.1-0.1-0.3-0.1-0.3-0.2c0-0.4,0-0.3,0.1,0.1C70.4,532.9,70.5,533,70.5,533"/>
		</g>
	</g>
</g>
</svg>
