<?xml version="1.0" encoding="utf-8"?>
<!-- Generator: Adobe Illustrator 23.1.0, SVG Export Plug-In . SVG Version: 6.00 Build 0)  -->
<svg version="1.1" id="Capa_1" xmlns="http://www.w3.org/2000/svg" xmlns:xlink="http://www.w3.org/1999/xlink" x="0px" y="0px"
	 viewBox="0 0 448 512" style="enable-background:new 0 0 448 512;" xml:space="preserve">
<style type="text/css">
	.st0{fill:#E31F7B;}
	.st1{font-family:'MUSICNET';}
	.st2{font-size:76.8889px;}
</style>
<path class="st0" d="M176,448c-8.7,0-16,7.3-16,16v48h32v-48C192,455.3,184.8,448,176,448z M272,448c-8.8,0-16,7.3-16,16
	s7.3,16,16,16s16-7.3,16-16S280.8,448,272,448z M336.1,315.4C304,338.6,265.1,352,224,352s-80-13.4-112.1-36.6
	C46.5,340.2,0,403.3,0,477.3C0,496.5,15.5,512,34.7,512H128v-64c0-17.8,14.3-32,32-32h128c17.8,0,32,14.3,32,32v64h93.3
	c19.2,0,34.7-15.5,34.7-34.7C448,403.3,401.5,340.2,336.1,315.4z M64,224h13.5c24.8,56.5,80.9,96,146.5,96s121.8-39.5,146.5-96H384
	c8.8,0,16-7.3,16-16v-96c0-8.7-7.2-16-16-16h-13.5C345.8,39.5,289.6,0,224,0S102.3,39.5,77.5,96H64c-8.8,0-16,7.3-16,16v96
	C48,216.8,55.3,224,64,224z M104,120c0-22.1,21.5-40,48-40h144c26.5,0,48,17.9,48,40v24c0,53-43,96-96,96h-48c-53,0-96-43-96-96V120
	z"/>
<text transform="matrix(1 0 0 1 139 187.3818)" class="st0 st1 st2">sam</text>
</svg>
