<?xml version="1.0" encoding="utf-8"?>
<!-- Generator: Adobe Illustrator 23.1.0, SVG Export Plug-In . SVG Version: 6.00 Build 0)  -->
<svg version="1.1" id="Capa_1" xmlns="http://www.w3.org/2000/svg" xmlns:xlink="http://www.w3.org/1999/xlink" x="0px" y="0px"
	 viewBox="0 0 400 400" style="enable-background:new 0 0 400 400;" xml:space="preserve">
<style type="text/css">
	.st0{fill:#110620;}
	.st1{filter:url(#b);}
	.st2{fill:#791149;}
	.st3{fill:#AF1868;}
	.st4{opacity:0.3177;fill:#E31F7B;enable-background:new    ;}
	.st5{font-family:'Gameplay';}
	.st6{font-size:50px;}
</style>
<filter  id="b">
	<feGaussianBlur  stdDeviation=".53036"></feGaussianBlur>
</filter>
<g transform="matrix(2.9052 0 0 2.9052 -770.2 -2412.5)">
	<path class="st0" d="M386.4,902.9c0,28.5-23.1,51.6-51.6,51.6c-28.5,0-51.6-23.1-51.6-51.6c0-28.5,23.1-51.6,51.6-51.6
		C363.3,851.3,386.4,874.4,386.4,902.9z"/>
	<path class="st0" d="M385.7,902.9c0,28.1-22.8,50.9-50.9,50.9c-28.1,0-50.9-22.8-50.9-50.9s22.8-50.9,50.9-50.9
		C362.9,852.1,385.7,874.8,385.7,902.9z"/>
	<g class="st1">
		<circle class="st2" cx="334.8" cy="902.9" r="134.6"/>
	</g>
	<g class="st1">
		<circle class="st0" cx="334.8" cy="902.9" r="129.2"/>
	</g>
	<path class="st2" d="M377.5,902.9c0,23.6-19.1,42.7-42.7,42.7c-23.6,0-42.7-19.1-42.7-42.7c0-23.6,19.1-42.7,42.7-42.7
		C358.4,860.2,377.5,879.3,377.5,902.9z"/>
	<path class="st3" d="M376.3,905c0,22.2-18,40.2-40.2,40.2c-22.2,0-40.2-18-40.2-40.2c0-22.2,18-40.2,40.2-40.2
		C358.3,864.7,376.3,882.7,376.3,905z"/>
	<path class="st4" d="M333.8,862.8c-13.3,0.3-26.2,7.4-33.3,19.7c-7.7,13.3-6.7,29.3,1.2,41.3c0.9-26.5,21.1-46.5,46.3-45.1
		c8.3,0.5,16.1,3.2,22.9,7.6c-3.3-7.4-8.8-14-16.4-18.3C347.9,864.3,340.8,862.6,333.8,862.8L333.8,862.8z"/>
	<text transform="matrix(0.3442 0 0 0.3442 323.9708 916.8632)" class="st0 st5 st6">UP</text>
</g>
</svg>
