<?xml version="1.0" encoding="utf-8"?>
<!-- Generator: Adobe Illustrator 23.1.0, SVG Export Plug-In . SVG Version: 6.00 Build 0)  -->
<svg version="1.1" id="Capa_1" xmlns="http://www.w3.org/2000/svg" xmlns:xlink="http://www.w3.org/1999/xlink" x="0px" y="0px"
	 viewBox="0 0 300 300" style="enable-background:new 0 0 300 300;" xml:space="preserve">
<style type="text/css">
	.st0{fill:#110620;}
	.st1{fill:#791149;}
	.st2{fill:#AF1868;}
	.st3{opacity:0.3177;fill:#E31F7B;enable-background:new    ;}
	.st4{font-family:'Gameplay';}
	.st5{font-size:50px;}
</style>
<g transform="matrix(2.9052 0 0 2.9052 -770.2 -2412.5)">
	<path class="st0" d="M368.4,882.3c0,28.5-23.1,51.6-51.6,51.6s-51.6-23.1-51.6-51.6s23.1-51.6,51.6-51.6
		C345.3,830.6,368.4,853.7,368.4,882.3z"/>
	<path class="st0" d="M367.7,882.3c0,28.1-22.8,50.9-50.9,50.9s-50.9-22.8-50.9-50.9s22.8-50.9,50.9-50.9
		C344.9,831.4,367.7,854.2,367.7,882.3z"/>
	<path class="st1" d="M359.5,882.3c0,23.6-19.1,42.7-42.7,42.7s-42.7-19.1-42.7-42.7c0-23.6,19.1-42.7,42.7-42.7
		S359.5,858.7,359.5,882.3z"/>
	<path class="st2" d="M358.3,884.3c0,22.2-18,40.2-40.2,40.2s-40.2-18-40.2-40.2s18-40.2,40.2-40.2S358.3,862.1,358.3,884.3z"/>
	<path class="st3" d="M315.8,842.1c-13.3,0.3-26.2,7.4-33.3,19.7c-7.7,13.3-6.7,29.3,1.2,41.3c0.9-26.5,21.1-46.5,46.3-45.1
		c8.3,0.5,16.1,3.2,22.9,7.6c-3.3-7.4-8.8-14-16.4-18.3C329.9,843.6,322.8,841.9,315.8,842.1L315.8,842.1z"/>
	<text transform="matrix(0.3442 0 0 0.3442 292.1993 893.4252)" class="st0 st4 st5">menu</text>
</g>
</svg>
