<?xml version="1.0" encoding="utf-8"?>
<!-- Generator: Adobe Illustrator 23.1.0, SVG Export Plug-In . SVG Version: 6.00 Build 0)  -->
<svg version="1.1" id="Capa_1" xmlns="http://www.w3.org/2000/svg" xmlns:xlink="http://www.w3.org/1999/xlink" x="0px" y="0px"
	 viewBox="0 0 7680 4320" style="enable-background:new 0 0 7680 4320;" xml:space="preserve">
<style type="text/css">
	.st0{fill:#C9327C;}
	.st1{opacity:0.2;fill:#C9327C;}
</style>
<path class="st0" d="M6945.6,2920.8c-9.7,0-9.7,15,0,15C6955.3,2935.8,6955.3,2920.8,6945.6,2920.8L6945.6,2920.8z"/>
<path class="st0" d="M6986.7,3517.4c-9.6,0-9.7,15,0,15C6996.4,3532.4,6996.4,3517.4,6986.7,3517.4L6986.7,3517.4z"/>
<path class="st0" d="M7182.2,3733.4c-9.6,0-9.7,15,0,15C7191.8,3748.4,7191.8,3733.4,7182.2,3733.4L7182.2,3733.4z"/>
<path class="st0" d="M7357,3836.2c-9.6,0-9.7,15,0,15C7366.7,3851.2,7366.7,3836.2,7357,3836.2L7357,3836.2z"/>
<path class="st0" d="M7336.5,3332.2c-9.6,0-9.7,15,0,15C7346.1,3347.2,7346.1,3332.2,7336.5,3332.2L7336.5,3332.2z"/>
<path class="st0" d="M7274.7,2519.7c-9.6,0-9.7,15,0,15C7284.4,2534.7,7284.4,2519.7,7274.7,2519.7L7274.7,2519.7z"/>
<path class="st0" d="M6493,2293.4c-9.6,0-9.7,15,0,15C6502.7,2308.4,6502.7,2293.4,6493,2293.4L6493,2293.4z"/>
<path class="st0" d="M5978.7,2643.1c-9.6,0-9.7,15,0,15C5988.4,2658.1,5988.4,2643.1,5978.7,2643.1L5978.7,2643.1z"/>
<path class="st0" d="M6174.2,3579.1c-9.6,0-9.7,15,0,15C6183.8,3594.1,6183.8,3579.1,6174.2,3579.1L6174.2,3579.1z"/>
<path class="st0" d="M4785.6,3517.4c-9.6,0-9.7,15,0,15C4795.3,3532.4,4795.3,3517.4,4785.6,3517.4L4785.6,3517.4z"/>
<path class="st0" d="M3685,4042c-9.6,0-9.7,15,0,15C3694.7,4057,3694.7,4042,3685,4042L3685,4042z"/>
<path class="st0" d="M1103.3,3568.8c-9.6,0-9.7,15,0,15C1113,3583.8,1113,3568.8,1103.3,3568.8L1103.3,3568.8z"/>
<path class="st0" d="M1319.3,2663.7c-9.6,0-9.7,15,0,15C1329,2678.7,1329,2663.7,1319.3,2663.7L1319.3,2663.7z"/>
<path class="st0" d="M249.6,2499.1c-9.6,0-9.7,15,0,15C259.3,2514.1,259.3,2499.1,249.6,2499.1L249.6,2499.1z"/>
<path class="st0" d="M115.9,3383.7c-9.6,0-9.7,15,0,15C125.5,3398.7,125.6,3383.7,115.9,3383.7L115.9,3383.7z"/>
<path class="st0" d="M794.7,3640.8c-9.6,0-9.7,15,0,15C804.4,3655.8,804.4,3640.8,794.7,3640.8L794.7,3640.8z"/>
<path class="st0" d="M2070.2,3712.8c-9.6,0-9.7,15,0,15C2079.8,3727.8,2079.8,3712.8,2070.2,3712.8L2070.2,3712.8z"/>
<path class="st0" d="M1257.6,2859.1c-9.6,0-9.7,15,0,15C1267.3,2874.1,1267.3,2859.1,1257.6,2859.1L1257.6,2859.1z"/>
<path class="st0" d="M1679.3,2036.2c-9.6,0-9.7,15,0,15C1689,2051.2,1689,2036.2,1679.3,2036.2L1679.3,2036.2z"/>
<path class="st0" d="M1720.5,2663.7c-9.6,0-9.7,15,0,15C1730.1,2678.7,1730.1,2663.7,1720.5,2663.7L1720.5,2663.7z"/>
<path class="st0" d="M4219.9,3805.4c-9.6,0-9.7,15,0,15C4229.5,3820.4,4229.6,3805.4,4219.9,3805.4L4219.9,3805.4z"/>
<path class="st0" d="M4939.9,3651.1c-9.6,0-9.7,15,0,15C4949.5,3666.1,4949.6,3651.1,4939.9,3651.1L4939.9,3651.1z"/>
<path class="st0" d="M5608.5,3692.2c-9.6,0-9.7,15,0,15C5618.1,3707.2,5618.1,3692.2,5608.5,3692.2L5608.5,3692.2z"/>
<path class="st0" d="M6194.7,4011.1c-9.6,0-9.7,15,0,15C6204.4,4026.1,6204.4,4011.1,6194.7,4011.1L6194.7,4011.1z"/>
<path class="st0" d="M5546.7,4000.8c-9.6,0-9.7,15,0,15C5556.4,4015.8,5556.4,4000.8,5546.7,4000.8L5546.7,4000.8z"/>
<path class="st0" d="M4878.2,3959.7c-9.6,0-9.7,15,0,15C4887.8,3974.7,4887.8,3959.7,4878.2,3959.7L4878.2,3959.7z"/>
<path class="st0" d="M4045,3908.2c-9.6,0-9.7,15,0,15C4054.7,3923.2,4054.7,3908.2,4045,3908.2L4045,3908.2z"/>
<path class="st0" d="M3098.7,3928.8c-9.6,0-9.7,15,0,15C3108.4,3943.8,3108.4,3928.8,3098.7,3928.8L3098.7,3928.8z"/>
<path class="st0" d="M2214.2,3928.8c-9.6,0-9.7,15,0,15C2223.8,3943.8,2223.8,3928.8,2214.2,3928.8L2214.2,3928.8z"/>
<path class="st0" d="M1720.5,4052.2c-9.6,0-9.7,15,0,15C1730.1,4067.2,1730.1,4052.2,1720.5,4052.2L1720.5,4052.2z"/>
<path class="st0" d="M1267.9,3939.1c-9.6,0-9.7,15,0,15C1277.5,3954.1,1277.6,3939.1,1267.9,3939.1L1267.9,3939.1z"/>
<path class="st0" d="M1165,3229.4c-9.6,0-9.7,15,0,15C1174.7,3244.4,1174.7,3229.4,1165,3229.4L1165,3229.4z"/>
<path class="st0" d="M517,2499.1c-9.6,0-9.7,15,0,15C526.7,2514.1,526.7,2499.1,517,2499.1L517,2499.1z"/>
<path class="st0" d="M136.5,3085.4c-9.6,0-9.7,15,0,15C146.1,3100.4,146.1,3085.4,136.5,3085.4L136.5,3085.4z"/>
<path class="st0" d="M301,3517.4c-9.6,0-9.7,15,0,15C310.7,3532.4,310.7,3517.4,301,3517.4L301,3517.4z"/>
<path class="st0" d="M434.7,3023.7c-9.6,0-9.7,15,0,15C444.4,3038.7,444.4,3023.7,434.7,3023.7L434.7,3023.7z"/>
<path class="st0" d="M383.3,3856.8c-9.6,0-9.7,15,0,15C393,3871.8,393,3856.8,383.3,3856.8L383.3,3856.8z"/>
<path class="st0" d="M54.2,4093.4c-9.6,0-9.7,15,0,15C63.8,4108.4,63.8,4093.4,54.2,4093.4L54.2,4093.4z"/>
<path class="st0" d="M157,3455.7c-9.6,0-9.7,15,0,15C166.7,3470.7,166.7,3455.7,157,3455.7L157,3455.7z"/>
<path class="st0" d="M6770.7,2447.7c-9.6,0-9.7,15,0,15C6780.4,2462.7,6780.4,2447.7,6770.7,2447.7L6770.7,2447.7z"/>
<path class="st0" d="M7099.9,1974.5c-9.6,0-9.7,15,0,15C7109.5,1989.5,7109.6,1974.5,7099.9,1974.5L7099.9,1974.5z"/>
<path class="st0" d="M7161.6,1871.7c-9.7,0-9.7,15,0,15C7171.3,1886.7,7171.3,1871.7,7161.6,1871.7L7161.6,1871.7z"/>
<path class="st0" d="M7459.9,1820.2c-9.6,0-9.7,15,0,15C7469.5,1835.2,7469.6,1820.2,7459.9,1820.2L7459.9,1820.2z"/>
<path class="st0" d="M7501,1429.4c-9.6,0-9.7,15,0,15C7510.7,1444.4,7510.7,1429.4,7501,1429.4L7501,1429.4z"/>
<path class="st0" d="M6811.9,1573.4c-9.6,0-9.7,15,0,15C6821.5,1588.4,6821.6,1573.4,6811.9,1573.4L6811.9,1573.4z"/>
<path class="st0" d="M6657.6,1984.8c-9.7,0-9.7,15,0,15C6667.3,1999.8,6667.3,1984.8,6657.6,1984.8L6657.6,1984.8z"/>
<path class="st0" d="M6935.3,2149.4c-9.7,0-9.7,15,0,15C6945,2164.4,6945,2149.4,6935.3,2149.4L6935.3,2149.4z"/>
<path class="st0" d="M7243.9,2211.1c-9.6,0-9.7,15,0,15C7253.5,2226.1,7253.6,2211.1,7243.9,2211.1L7243.9,2211.1z"/>
<path class="st0" d="M7490.7,2499.1c-9.6,0-9.7,15,0,15C7500.4,2514.1,7500.4,2499.1,7490.7,2499.1L7490.7,2499.1z"/>
<path class="st0" d="M7367.3,3044.2c-9.7,0-9.7,15,0,15C7377,3059.2,7377,3044.2,7367.3,3044.2L7367.3,3044.2z"/>
<path class="st0" d="M6719.3,3229.4c-9.7,0-9.7,15,0,15C6729,3244.4,6729,3229.4,6719.3,3229.4L6719.3,3229.4z"/>
<path class="st0" d="M6894.2,3918.5c-9.6,0-9.7,15,0,15C6903.8,3933.5,6903.8,3918.5,6894.2,3918.5L6894.2,3918.5z"/>
<path class="st0" d="M7326.2,4155.1c-9.6,0-9.7,15,0,15C7335.8,4170.1,7335.8,4155.1,7326.2,4155.1L7326.2,4155.1z"/>
<path class="st0" d="M6832.5,3949.4c-9.6,0-9.7,15,0,15C6842.1,3964.4,6842.1,3949.4,6832.5,3949.4L6832.5,3949.4z"/>
<path class="st0" d="M6698.7,3476.2c-9.6,0-9.7,15,0,15C6708.4,3491.2,6708.4,3476.2,6698.7,3476.2L6698.7,3476.2z"/>
<path class="st0" d="M5855.3,3404.2c-9.7,0-9.7,15,0,15C5865,3419.2,5865,3404.2,5855.3,3404.2L5855.3,3404.2z"/>
<path class="st0" d="M5937.6,2488.8c-9.7,0-9.7,15,0,15C5947.3,2503.8,5947.3,2488.8,5937.6,2488.8L5937.6,2488.8z"/>
<path class="st0" d="M4312.5,3733.4c-9.6,0-9.7,15,0,15C4322.1,3748.4,4322.1,3733.4,4312.5,3733.4L4312.5,3733.4z"/>
<path class="st0" d="M3139.9,3908.2c-9.6,0-9.7,15,0,15C3149.5,3923.2,3149.6,3908.2,3139.9,3908.2L3139.9,3908.2z"/>
<path class="st0" d="M2409.6,4093.4c-9.6,0-9.7,15,0,15C2419.3,4108.4,2419.3,4093.4,2409.6,4093.4L2409.6,4093.4z"/>
<path class="st0" d="M4507.9,4042c-9.6,0-9.7,15,0,15C4517.5,4057,4517.6,4042,4507.9,4042L4507.9,4042z"/>
<path class="st0" d="M3160.5,4011.1c-9.6,0-9.7,15,0,15C3170.1,4026.1,3170.1,4011.1,3160.5,4011.1L3160.5,4011.1z"/>
<path class="st0" d="M2944.5,3980.2c-9.6,0-9.7,15,0,15C2954.1,3995.2,2954.1,3980.2,2944.5,3980.2L2944.5,3980.2z"/>
<path class="st0" d="M2615.3,3712.8c-9.6,0-9.7,15,0,15C2625,3727.8,2625,3712.8,2615.3,3712.8L2615.3,3712.8z"/>
<path class="st0" d="M907.9,3970c-9.6,0-9.7,15,0,15C917.5,3985,917.6,3970,907.9,3970L907.9,3970z"/>
<path class="st0" d="M2214.2,2294.9c-7.7,0-7.7,12,0,12C2221.9,2306.9,2221.9,2294.9,2214.2,2294.9L2214.2,2294.9z"/>
<path class="st0" d="M1669,3121.5c-16.1,0-16.1,25,0,25C1685.1,3146.5,1685.1,3121.5,1669,3121.5L1669,3121.5z"/>
<path class="st0" d="M1278.2,3707.8c-16.1,0-16.1,25,0,25C1294.3,3732.8,1294.3,3707.8,1278.2,3707.8L1278.2,3707.8z"/>
<path class="st0" d="M6986.7,2602.2c-9.1,0-17.9,8.1-17.5,17.5c0.4,9.5,7.7,17.5,17.5,17.5c9.2,0,17.9-8.1,17.5-17.5
	C7003.8,2610.3,6996.6,2602.2,6986.7,2602.2L6986.7,2602.2z"/>
<path class="st0" d="M7614.2,3147.4c-9.1,0-17.9,8.1-17.5,17.5c0.4,9.5,7.7,17.5,17.5,17.5c9.1,0,17.9-8.1,17.5-17.5
	C7631.2,3155.4,7624,3147.4,7614.2,3147.4L7614.2,3147.4z"/>
<path class="st0" d="M7223.3,3466.2c-9.2,0-17.9,8.1-17.5,17.5c0.4,9.5,7.7,17.5,17.5,17.5c9.1,0,17.9-8,17.5-17.5
	C7240.4,3474.3,7233.1,3466.2,7223.3,3466.2L7223.3,3466.2z"/>
<path class="st0" d="M6894.2,3857.1c-9.1,0-17.9,8.1-17.5,17.5c0.4,9.5,7.7,17.5,17.5,17.5c9.1,0,17.9-8.1,17.5-17.5
	C6911.2,3865.1,6904,3857.1,6894.2,3857.1L6894.2,3857.1z"/>
<path class="st0" d="M6503.3,3641.1c-9.2,0-17.9,8.1-17.5,17.5c0.4,9.5,7.7,17.5,17.5,17.5c9.1,0,17.9-8.1,17.5-17.5
	C6520.4,3649.1,6513.1,3641.1,6503.3,3641.1L6503.3,3641.1z"/>
<path class="st0" d="M7439.3,1964.5c-9.2,0-17.9,8.1-17.5,17.5c0.4,9.5,7.7,17.5,17.5,17.5c9.1,0,17.9-8.1,17.5-17.5
	C7456.4,1972.5,7449.1,1964.5,7439.3,1964.5L7439.3,1964.5z"/>
<path class="st0" d="M5135.3,3774.8c-9.1,0-17.9,8.1-17.5,17.5c0.4,9.5,7.7,17.5,17.5,17.5c9.1,0,17.9-8.1,17.5-17.5
	C5152.4,3782.8,5145.1,3774.8,5135.3,3774.8L5135.3,3774.8z"/>
<path class="st0" d="M4291.9,4042.2c-9.1,0-17.9,8.1-17.5,17.5c0.4,9.5,7.7,17.5,17.5,17.5c9.1,0,17.9-8,17.5-17.5
	C4309,4050.3,4301.7,4042.2,4291.9,4042.2L4291.9,4042.2z"/>
<path class="st0" d="M3170.7,3867.4c-9.1,0-17.9,8.1-17.5,17.5c0.4,9.5,7.7,17.5,17.5,17.5c9.1,0,17.9-8.1,17.5-17.5
	C3187.8,3875.4,3180.6,3867.4,3170.7,3867.4L3170.7,3867.4z"/>
<path class="st0" d="M2553.6,3980.5c-9.1,0-17.9,8.1-17.5,17.5c0.4,9.5,7.7,17.5,17.5,17.5c9.1,0,17.9-8.1,17.5-17.5
	C2570.7,3988.5,2563.4,3980.5,2553.6,3980.5L2553.6,3980.5z"/>
<path class="st0" d="M671.3,3620.5c-9.1,0-17.9,8.1-17.5,17.5c0.4,9.5,7.7,17.5,17.5,17.5c9.1,0,17.9-8.1,17.5-17.5
	C688.4,3628.5,681.1,3620.5,671.3,3620.5L671.3,3620.5z"/>
<path class="st0" d="M990.2,3486.8c-9.1,0-17.9,8.1-17.5,17.5c0.4,9.5,7.7,17.5,17.5,17.5c9.1,0,17.9-8.1,17.5-17.5
	C1007.2,3494.8,1000,3486.8,990.2,3486.8L990.2,3486.8z"/>
<path class="st0" d="M1545.6,3651.4c-9.1,0-17.9,8-17.5,17.5c0.4,9.5,7.7,17.5,17.5,17.5c9.1,0,17.9-8.1,17.5-17.5
	C1562.7,3659.4,1555.4,3651.4,1545.6,3651.4L1545.6,3651.4z"/>
<path class="st0" d="M763.9,3939.4c-9.1,0-17.9,8.1-17.5,17.5c0.4,9.5,7.7,17.5,17.5,17.5c9.1,0,17.9-8.1,17.5-17.5
	C781,3947.4,773.7,3939.4,763.9,3939.4L763.9,3939.4z"/>
<path class="st0" d="M393.6,4032c-9.1,0-17.9,8-17.5,17.5c0.4,9.5,7.7,17.5,17.5,17.5c9.1,0,17.9-8.1,17.5-17.5
	C410.7,4040,403.4,4032,393.6,4032L393.6,4032z"/>
<path class="st0" d="M455.3,3167.9c-9.1,0-17.9,8.1-17.5,17.5c0.4,9.5,7.7,17.5,17.5,17.5c9.1,0,17.9-8.1,17.5-17.5
	C472.4,3176,465.1,3167.9,455.3,3167.9L455.3,3167.9z"/>
<path class="st0" d="M249.6,2550.8c-9.1,0-17.9,8.1-17.5,17.5c0.4,9.5,7.7,17.5,17.5,17.5c9.1,0,17.9-8.1,17.5-17.5
	C266.7,2558.8,259.4,2550.8,249.6,2550.8L249.6,2550.8z"/>
<path class="st0" d="M321.6,2118.8c-9.1,0-17.9,8.1-17.5,17.5c0.4,9.5,7.7,17.5,17.5,17.5c9.1,0,17.9-8.1,17.5-17.5
	C338.7,2126.8,331.4,2118.8,321.6,2118.8L321.6,2118.8z"/>
<path class="st0" d="M229,1522.2c-9.1,0-17.9,8.1-17.5,17.5c0.4,9.5,7.7,17.5,17.5,17.5c9.1,0,17.9-8.1,17.5-17.5
	C246.1,1530.3,238.8,1522.2,229,1522.2L229,1522.2z"/>
<path class="st0" d="M979.9,2807.9c-9.1,0-17.9,8.1-17.5,17.5c0.4,9.5,7.7,17.5,17.5,17.5c9.1,0,17.9-8.1,17.5-17.5
	C997,2816,989.7,2807.9,979.9,2807.9L979.9,2807.9z"/>
<path class="st0" d="M2718.2,3589.7c-9.1,0-17.9,8-17.5,17.5c0.4,9.5,7.7,17.5,17.5,17.5c9.1,0,17.9-8.1,17.5-17.5
	C2735.2,3597.7,2728,3589.7,2718.2,3589.7L2718.2,3589.7z"/>
<path class="st0" d="M5238.2,4062.8c-9.1,0-17.9,8.1-17.5,17.5c0.4,9.5,7.7,17.5,17.5,17.5c9.1,0,17.9-8.1,17.5-17.5
	C5255.2,4070.8,5248,4062.8,5238.2,4062.8L5238.2,4062.8z"/>
<path class="st0" d="M5536.5,3682.2c-9.1,0-17.9,8.1-17.5,17.5c0.4,9.5,7.7,17.5,17.5,17.5c9.1,0,17.9-8,17.5-17.5
	C5553.5,3690.3,5546.3,3682.2,5536.5,3682.2L5536.5,3682.2z"/>
<path class="st0" d="M6760.5,4052.5c-9.1,0-17.9,8.1-17.5,17.5c0.4,9.5,7.7,17.5,17.5,17.5c9.2,0,17.9-8.1,17.5-17.5
	C6777.5,4060.5,6770.3,4052.5,6760.5,4052.5L6760.5,4052.5z"/>
<path class="st0" d="M7429,4001.1c-9.1,0-17.9,8.1-17.5,17.5c0.4,9.5,7.7,17.5,17.5,17.5c9.1,0,17.9-8.1,17.5-17.5
	C7446.1,4009.1,7438.8,4001.1,7429,4001.1L7429,4001.1z"/>
<path class="st1" d="M7282.6,4135.1c-9.6,0-9.7,15,0,15C7292.2,4150.1,7292.3,4135.1,7282.6,4135.1L7282.6,4135.1z"/>
<path class="st1" d="M7323.7,4731.7c-9.7,0-9.7,15,0,15C7333.4,4746.7,7333.4,4731.7,7323.7,4731.7L7323.7,4731.7z"/>
<path class="st1" d="M7519.2,4947.7c-9.6,0-9.7,15,0,15C7528.8,4962.7,7528.8,4947.7,7519.2,4947.7L7519.2,4947.7z"/>
<path class="st1" d="M7694,5050.6c-9.6,0-9.7,15,0,15C7703.7,5065.6,7703.7,5050.6,7694,5050.6L7694,5050.6z"/>
<path class="st1" d="M7673.4,4546.6c-9.7,0-9.7,15,0,15C7683.1,4561.6,7683.1,4546.6,7673.4,4546.6L7673.4,4546.6z"/>
<path class="st1" d="M7611.7,3734c-9.7,0-9.7,15,0,15C7621.4,3749,7621.4,3734,7611.7,3734L7611.7,3734z"/>
<path class="st1" d="M6830,3507.7c-9.6,0-9.7,15,0,15C6839.7,3522.7,6839.7,3507.7,6830,3507.7L6830,3507.7z"/>
<path class="st1" d="M6315.7,3857.4c-9.7,0-9.7,15,0,15C6325.4,3872.4,6325.4,3857.4,6315.7,3857.4L6315.7,3857.4z"/>
<path class="st1" d="M6511.2,4793.4c-9.6,0-9.7,15,0,15C6520.8,4808.4,6520.8,4793.4,6511.2,4793.4L6511.2,4793.4z"/>
<path class="st1" d="M5122.6,4731.7c-9.6,0-9.7,15,0,15C5132.2,4746.7,5132.3,4731.7,5122.6,4731.7L5122.6,4731.7z"/>
<path class="st1" d="M4022,5256.3c-9.6,0-9.7,15,0,15C4031.7,5271.3,4031.7,5256.3,4022,5256.3L4022,5256.3z"/>
<path class="st1" d="M1440.3,4783.1c-9.6,0-9.7,15,0,15C1450,4798.1,1450,4783.1,1440.3,4783.1L1440.3,4783.1z"/>
<path class="st1" d="M1656.3,3878c-9.6,0-9.7,15,0,15C1666,3893,1666,3878,1656.3,3878L1656.3,3878z"/>
<path class="st1" d="M586.6,3713.4c-9.6,0-9.7,15,0,15C596.2,3728.4,596.3,3713.4,586.6,3713.4L586.6,3713.4z"/>
<path class="st1" d="M452.9,4598c-9.6,0-9.7,15,0,15C462.5,4613,462.5,4598,452.9,4598L452.9,4598z"/>
<path class="st1" d="M1131.7,4855.1c-9.6,0-9.7,15,0,15C1141.4,4870.1,1141.4,4855.1,1131.7,4855.1L1131.7,4855.1z"/>
<path class="st1" d="M2407.2,4927.1c-9.6,0-9.7,15,0,15C2416.8,4942.1,2416.8,4927.1,2407.2,4927.1L2407.2,4927.1z"/>
<path class="st1" d="M1594.6,4073.4c-9.6,0-9.7,15,0,15C1604.2,4088.4,1604.3,4073.4,1594.6,4073.4L1594.6,4073.4z"/>
<path class="st1" d="M2016.3,3250.6c-9.6,0-9.7,15,0,15C2026,3265.6,2026,3250.6,2016.3,3250.6L2016.3,3250.6z"/>
<path class="st1" d="M2057.4,3878c-9.7,0-9.7,15,0,15C2067.1,3893,2067.1,3878,2057.4,3878L2057.4,3878z"/>
<path class="st1" d="M4556.9,5019.7c-9.6,0-9.7,15,0,15C4566.5,5034.7,4566.5,5019.7,4556.9,5019.7L4556.9,5019.7z"/>
<path class="st1" d="M5276.9,4865.4c-9.6,0-9.7,15,0,15C5286.5,4880.4,5286.5,4865.4,5276.9,4865.4L5276.9,4865.4z"/>
<path class="st1" d="M5945.4,4906.6c-9.6,0-9.7,15,0,15C5955.1,4921.6,5955.1,4906.6,5945.4,4906.6L5945.4,4906.6z"/>
<path class="st1" d="M6531.7,5225.4c-9.7,0-9.7,15,0,15C6541.4,5240.4,6541.4,5225.4,6531.7,5225.4L6531.7,5225.4z"/>
<path class="st1" d="M5883.7,5215.1c-9.6,0-9.7,15,0,15C5893.4,5230.1,5893.4,5215.1,5883.7,5215.1L5883.7,5215.1z"/>
<path class="st1" d="M5215.2,5174c-9.6,0-9.7,15,0,15C5224.8,5189,5224.8,5174,5215.2,5174L5215.2,5174z"/>
<path class="st1" d="M4382,5122.6c-9.6,0-9.7,15,0,15C4391.7,5137.6,4391.7,5122.6,4382,5122.6L4382,5122.6z"/>
<path class="st1" d="M3435.7,5143.1c-9.6,0-9.7,15,0,15C3445.4,5158.1,3445.4,5143.1,3435.7,5143.1L3435.7,5143.1z"/>
<path class="st1" d="M2551.2,5143.1c-9.6,0-9.7,15,0,15C2560.8,5158.1,2560.8,5143.1,2551.2,5143.1L2551.2,5143.1z"/>
<path class="st1" d="M2057.4,5266.6c-9.7,0-9.7,15,0,15C2067.1,5281.6,2067.1,5266.6,2057.4,5266.6L2057.4,5266.6z"/>
<path class="st1" d="M1604.9,5153.4c-9.6,0-9.7,15,0,15C1614.5,5168.4,1614.5,5153.4,1604.9,5153.4L1604.9,5153.4z"/>
<path class="st1" d="M1502,4443.7c-9.6,0-9.7,15,0,15C1511.7,4458.7,1511.7,4443.7,1502,4443.7L1502,4443.7z"/>
<path class="st1" d="M854,3713.4c-9.6,0-9.7,15,0,15C863.7,3728.4,863.7,3713.4,854,3713.4L854,3713.4z"/>
<path class="st1" d="M473.4,4299.7c-9.6,0-9.7,15,0,15C483.1,4314.7,483.1,4299.7,473.4,4299.7L473.4,4299.7z"/>
<path class="st1" d="M638,4731.7c-9.6,0-9.7,15,0,15C647.7,4746.7,647.7,4731.7,638,4731.7L638,4731.7z"/>
<path class="st1" d="M771.7,4238c-9.6,0-9.7,15,0,15C781.4,4253,781.4,4238,771.7,4238L771.7,4238z"/>
<path class="st1" d="M720.3,5071.1c-9.6,0-9.7,15,0,15C730,5086.1,730,5071.1,720.3,5071.1L720.3,5071.1z"/>
<path class="st1" d="M391.2,5307.7c-9.6,0-9.7,15,0,15C400.8,5322.7,400.8,5307.7,391.2,5307.7L391.2,5307.7z"/>
<path class="st1" d="M494,4670c-9.6,0-9.7,15,0,15C503.7,4685,503.7,4670,494,4670L494,4670z"/>
<path class="st1" d="M7107.7,3662c-9.7,0-9.7,15,0,15C7117.4,3677,7117.4,3662,7107.7,3662L7107.7,3662z"/>
<path class="st1" d="M7436.9,3188.8c-9.6,0-9.7,15,0,15C7446.5,3203.8,7446.5,3188.8,7436.9,3188.8L7436.9,3188.8z"/>
<path class="st1" d="M7498.6,3086c-9.6,0-9.7,15,0,15C7508.2,3101,7508.3,3086,7498.6,3086L7498.6,3086z"/>
<path class="st1" d="M7796.9,3034.6c-9.6,0-9.7,15,0,15C7806.5,3049.6,7806.5,3034.6,7796.9,3034.6L7796.9,3034.6z"/>
<path class="st1" d="M7838,2643.7c-9.6,0-9.7,15,0,15C7847.7,2658.7,7847.7,2643.7,7838,2643.7L7838,2643.7z"/>
<path class="st1" d="M7148.9,2787.7c-9.6,0-9.7,15,0,15C7158.5,2802.7,7158.5,2787.7,7148.9,2787.7L7148.9,2787.7z"/>
<path class="st1" d="M6994.6,3199.1c-9.6,0-9.7,15,0,15C7004.2,3214.1,7004.3,3199.1,6994.6,3199.1L6994.6,3199.1z"/>
<path class="st1" d="M7272.3,3363.7c-9.6,0-9.7,15,0,15C7282,3378.7,7282,3363.7,7272.3,3363.7L7272.3,3363.7z"/>
<path class="st1" d="M7580.9,3425.4c-9.6,0-9.7,15,0,15C7590.5,3440.4,7590.5,3425.4,7580.9,3425.4L7580.9,3425.4z"/>
<path class="st1" d="M7827.7,3713.4c-9.7,0-9.7,15,0,15C7837.4,3728.4,7837.4,3713.4,7827.7,3713.4L7827.7,3713.4z"/>
<path class="st1" d="M7704.3,4258.6c-9.6,0-9.7,15,0,15C7714,4273.6,7714,4258.6,7704.3,4258.6L7704.3,4258.6z"/>
<path class="st1" d="M7056.3,4443.7c-9.6,0-9.7,15,0,15C7066,4458.7,7066,4443.7,7056.3,4443.7L7056.3,4443.7z"/>
<path class="st1" d="M7231.2,5132.8c-9.6,0-9.7,15,0,15C7240.8,5147.8,7240.8,5132.8,7231.2,5132.8L7231.2,5132.8z"/>
<path class="st1" d="M7663.2,5369.4c-9.6,0-9.7,15,0,15C7672.8,5384.4,7672.8,5369.4,7663.2,5369.4L7663.2,5369.4z"/>
<path class="st1" d="M7169.4,5163.7c-9.7,0-9.7,15,0,15C7179.1,5178.7,7179.1,5163.7,7169.4,5163.7L7169.4,5163.7z"/>
<path class="st1" d="M7035.7,4690.6c-9.7,0-9.7,15,0,15C7045.4,4705.6,7045.4,4690.6,7035.7,4690.6L7035.7,4690.6z"/>
<path class="st1" d="M6192.3,4618.6c-9.6,0-9.7,15,0,15C6202,4633.6,6202,4618.6,6192.3,4618.6L6192.3,4618.6z"/>
<path class="st1" d="M6274.6,3703.1c-9.6,0-9.7,15,0,15C6284.2,3718.1,6284.3,3703.1,6274.6,3703.1L6274.6,3703.1z"/>
<path class="st1" d="M4649.4,4947.7c-9.6,0-9.7,15,0,15C4659.1,4962.7,4659.1,4947.7,4649.4,4947.7L4649.4,4947.7z"/>
<path class="st1" d="M3476.9,5122.6c-9.6,0-9.7,15,0,15C3486.5,5137.6,3486.5,5122.6,3476.9,5122.6L3476.9,5122.6z"/>
<path class="st1" d="M2746.6,5307.7c-9.6,0-9.7,15,0,15C2756.2,5322.7,2756.3,5307.7,2746.6,5307.7L2746.6,5307.7z"/>
<path class="st1" d="M4844.9,5256.3c-9.6,0-9.7,15,0,15C4854.5,5271.3,4854.5,5256.3,4844.9,5256.3L4844.9,5256.3z"/>
<path class="st1" d="M3497.4,5225.4c-9.6,0-9.7,15,0,15C3507.1,5240.4,3507.1,5225.4,3497.4,5225.4L3497.4,5225.4z"/>
<path class="st1" d="M3281.4,5194.6c-9.6,0-9.7,15,0,15C3291.1,5209.6,3291.1,5194.6,3281.4,5194.6L3281.4,5194.6z"/>
<path class="st1" d="M2952.3,4927.1c-9.6,0-9.7,15,0,15C2962,4942.1,2962,4927.1,2952.3,4927.1L2952.3,4927.1z"/>
<path class="st1" d="M1244.9,5184.3c-9.6,0-9.7,15,0,15C1254.5,5199.3,1254.5,5184.3,1244.9,5184.3L1244.9,5184.3z"/>
<path class="st1" d="M2551.2,3509.2c-7.7,0-7.7,12,0,12C2558.9,3521.2,2558.9,3509.2,2551.2,3509.2L2551.2,3509.2z"/>
<path class="st1" d="M2006,4335.8c-16.1,0-16.1,25,0,25C2022.1,4360.8,2022.1,4335.8,2006,4335.8L2006,4335.8z"/>
<path class="st1" d="M1615.2,4922.1c-16.1,0-16.1,25,0,25C1631.2,4947.1,1631.3,4922.1,1615.2,4922.1L1615.2,4922.1z"/>
<path class="st1" d="M7323.7,3816.6c-9.2,0-17.9,8.1-17.5,17.5c0.4,9.5,7.7,17.5,17.5,17.5c9.1,0,17.9-8.1,17.5-17.5
	C7340.8,3824.6,7333.5,3816.6,7323.7,3816.6L7323.7,3816.6z"/>
<path class="st1" d="M7951.2,4361.7c-9.1,0-17.9,8-17.5,17.5c0.4,9.5,7.7,17.5,17.5,17.5c9.1,0,17.9-8.1,17.5-17.5
	C7968.2,4369.7,7961,4361.7,7951.2,4361.7L7951.2,4361.7z"/>
<path class="st1" d="M7560.3,4680.6c-9.1,0-17.9,8.1-17.5,17.5c0.4,9.5,7.7,17.5,17.5,17.5c9.1,0,17.9-8,17.5-17.5
	C7577.4,4688.6,7570.1,4680.6,7560.3,4680.6L7560.3,4680.6z"/>
<path class="st1" d="M7231.2,5071.4c-9.1,0-17.9,8-17.5,17.5c0.4,9.5,7.7,17.5,17.5,17.5c9.1,0,17.9-8.1,17.5-17.5
	C7248.2,5079.4,7241,5071.4,7231.2,5071.4L7231.2,5071.4z"/>
<path class="st1" d="M6840.3,4855.4c-9.1,0-17.9,8-17.5,17.5c0.4,9.5,7.7,17.5,17.5,17.5c9.1,0,17.9-8.1,17.5-17.5
	C6857.4,4863.4,6850.1,4855.4,6840.3,4855.4L6840.3,4855.4z"/>
<path class="st1" d="M7776.3,3178.8c-9.1,0-17.9,8.1-17.5,17.5c0.4,9.5,7.7,17.5,17.5,17.5c9.1,0,17.9-8.1,17.5-17.5
	C7793.4,3186.9,7786.1,3178.8,7776.3,3178.8L7776.3,3178.8z"/>
<path class="st1" d="M5472.3,4989.1c-9.1,0-17.9,8-17.5,17.5c0.4,9.5,7.7,17.5,17.5,17.5c9.1,0,17.9-8.1,17.5-17.5
	C5489.4,4997.1,5482.1,4989.1,5472.3,4989.1L5472.3,4989.1z"/>
<path class="st1" d="M4628.9,5256.6c-9.1,0-17.9,8.1-17.5,17.5c0.4,9.5,7.7,17.5,17.5,17.5c9.1,0,17.9-8,17.5-17.5
	C4646,5264.6,4638.7,5256.6,4628.9,5256.6L4628.9,5256.6z"/>
<path class="st1" d="M3507.7,5081.7c-9.1,0-17.9,8-17.5,17.5c0.4,9.5,7.7,17.5,17.5,17.5c9.1,0,17.9-8.1,17.5-17.5
	C3524.8,5089.7,3517.5,5081.7,3507.7,5081.7L3507.7,5081.7z"/>
<path class="st1" d="M2890.6,5194.8c-9.1,0-17.9,8.1-17.5,17.5c0.4,9.5,7.7,17.5,17.5,17.5c9.1,0,17.9-8,17.5-17.5
	C2907.7,5202.9,2900.4,5194.8,2890.6,5194.8L2890.6,5194.8z"/>
<path class="st1" d="M1008.3,4834.8c-9.1,0-17.9,8.1-17.5,17.5c0.4,9.5,7.7,17.5,17.5,17.5c9.1,0,17.9-8,17.5-17.5
	C1025.4,4842.9,1018.1,4834.8,1008.3,4834.8L1008.3,4834.8z"/>
<path class="st1" d="M1327.2,4701.1c-9.1,0-17.9,8-17.5,17.5c0.4,9.5,7.7,17.5,17.5,17.5c9.1,0,17.9-8.1,17.5-17.5
	C1344.2,4709.1,1337,4701.1,1327.2,4701.1L1327.2,4701.1z"/>
<path class="st1" d="M1882.6,4865.7c-9.1,0-17.9,8.1-17.5,17.5c0.4,9.5,7.7,17.5,17.5,17.5c9.1,0,17.9-8,17.5-17.5
	C1899.7,4873.7,1892.4,4865.7,1882.6,4865.7L1882.6,4865.7z"/>
<path class="st1" d="M1100.9,5153.7c-9.1,0-17.9,8-17.5,17.5c0.4,9.5,7.7,17.5,17.5,17.5c9.1,0,17.9-8.1,17.5-17.5
	C1118,5161.7,1110.7,5153.7,1100.9,5153.7L1100.9,5153.7z"/>
<path class="st1" d="M730.6,5246.3c-9.1,0-17.9,8-17.5,17.5c0.4,9.5,7.7,17.5,17.5,17.5c9.1,0,17.9-8.1,17.5-17.5
	C747.7,5254.3,740.4,5246.3,730.6,5246.3L730.6,5246.3z"/>
<path class="st1" d="M792.3,4382.3c-9.1,0-17.9,8-17.5,17.5c0.4,9.5,7.7,17.5,17.5,17.5c9.1,0,17.9-8.1,17.5-17.5
	C809.4,4390.3,802.1,4382.3,792.3,4382.3L792.3,4382.3z"/>
<path class="st1" d="M586.6,3765.1c-9.1,0-17.9,8.1-17.5,17.5c0.4,9.5,7.7,17.5,17.5,17.5c9.1,0,17.9-8.1,17.5-17.5
	C603.7,3773.1,596.4,3765.1,586.6,3765.1L586.6,3765.1z"/>
<path class="st1" d="M658.6,3333.1c-9.1,0-17.9,8.1-17.5,17.5c0.4,9.5,7.7,17.5,17.5,17.5c9.1,0,17.9-8.1,17.5-17.5
	C675.7,3341.1,668.4,3333.1,658.6,3333.1L658.6,3333.1z"/>
<path class="st1" d="M566,2736.6c-9.1,0-17.9,8.1-17.5,17.5c0.4,9.5,7.7,17.5,17.5,17.5c9.1,0,17.9-8.1,17.5-17.5
	C583.1,2744.6,575.8,2736.6,566,2736.6L566,2736.6z"/>
<path class="st1" d="M1316.9,4022.3c-9.1,0-17.9,8.1-17.5,17.5c0.4,9.5,7.7,17.5,17.5,17.5c9.1,0,17.9-8.1,17.5-17.5
	C1334,4030.3,1326.7,4022.3,1316.9,4022.3L1316.9,4022.3z"/>
<path class="st1" d="M3055.2,4804c-9.1,0-17.9,8-17.5,17.5c0.4,9.5,7.7,17.5,17.5,17.5c9.1,0,17.9-8,17.5-17.5
	C3072.2,4812,3065,4804,3055.2,4804L3055.2,4804z"/>
<path class="st1" d="M5575.2,5277.1c-9.1,0-17.9,8-17.5,17.5c0.4,9.5,7.7,17.5,17.5,17.5c9.1,0,17.9-8.1,17.5-17.5
	C5592.2,5285.1,5585,5277.1,5575.2,5277.1L5575.2,5277.1z"/>
<path class="st1" d="M5873.4,4896.6c-9.1,0-17.9,8.1-17.5,17.5c0.4,9.5,7.7,17.5,17.5,17.5c9.1,0,17.9-8,17.5-17.5
	C5890.5,4904.6,5883.3,4896.6,5873.4,4896.6L5873.4,4896.6z"/>
<path class="st1" d="M7097.4,5266.8c-9.2,0-17.9,8.1-17.5,17.5c0.4,9.5,7.7,17.5,17.5,17.5c9.1,0,17.9-8,17.5-17.5
	C7114.5,5274.9,7107.3,5266.8,7097.4,5266.8L7097.4,5266.8z"/>
<path class="st1" d="M7766,5215.4c-9.1,0-17.9,8-17.5,17.5c0.4,9.5,7.7,17.5,17.5,17.5c9.1,0,17.9-8.1,17.5-17.5
	C7783.1,5223.4,7775.8,5215.4,7766,5215.4L7766,5215.4z"/>
</svg>
