<?xml version="1.0" encoding="utf-8"?>
<!-- Generator: Adobe Illustrator 23.1.0, SVG Export Plug-In . SVG Version: 6.00 Build 0)  -->
<svg version="1.1" id="Capa_1" xmlns="http://www.w3.org/2000/svg" xmlns:xlink="http://www.w3.org/1999/xlink" x="0px" y="0px"
	 viewBox="0 0 7680 4320" style="enable-background:new 0 0 7680 4320;" xml:space="preserve">
<style type="text/css">
	.st0{fill:#C9327C;}
</style>
<path class="st0" d="M733.01,1348.67c9.65,0,9.67-15,0-15C723.36,1333.67,723.35,1348.67,733.01,1348.67"/>
<path class="st0" d="M691.87,752.09c9.65,0,9.67-15,0-15C682.22,737.09,682.2,752.09,691.87,752.09"/>
<path class="st0" d="M496.44,536.09c9.65,0,9.67-15,0-15C486.79,521.09,486.78,536.09,496.44,536.09"/>
<path class="st0" d="M321.59,433.24c9.65,0,9.67-15,0-15C311.93,418.24,311.92,433.24,321.59,433.24"/>
<path class="st0" d="M342.16,937.24c9.65,0,9.67-15,0-15C332.51,922.24,332.49,937.24,342.16,937.24"/>
<path class="st0" d="M403.87,1749.81c9.65,0,9.67-15,0-15C394.22,1734.81,394.2,1749.81,403.87,1749.81"/>
<path class="st0" d="M1185.59,1976.09c9.65,0,9.67-15,0-15C1175.93,1961.09,1175.92,1976.09,1185.59,1976.09"/>
<path class="st0" d="M1699.87,1626.38c9.65,0,9.67-15,0-15C1690.22,1611.38,1690.2,1626.38,1699.87,1626.38"/>
<path class="st0" d="M1504.44,690.38c9.65,0,9.67-15,0-15C1494.79,675.38,1494.78,690.38,1504.44,690.38"/>
<path class="st0" d="M2893.01,752.09c9.65,0,9.67-15,0-15C2883.36,737.09,2883.35,752.09,2893.01,752.09"/>
<path class="st0" d="M3993.59,227.52c9.65,0,9.67-15,0-15C3983.93,212.52,3983.92,227.52,3993.59,227.52"/>
<path class="st0" d="M6575.3,700.67c9.65,0,9.67-15,0-15C6565.65,685.67,6565.63,700.67,6575.3,700.67"/>
<path class="st0" d="M6359.3,1605.81c9.65,0,9.67-15,0-15C6349.65,1590.81,6349.63,1605.81,6359.3,1605.81"/>
<path class="st0" d="M7429.01,1770.38c9.65,0,9.67-15,0-15C7419.36,1755.38,7419.35,1770.38,7429.01,1770.38"/>
<path class="st0" d="M7562.73,885.81c9.65,0,9.67-15,0-15C7553.08,870.81,7553.06,885.81,7562.73,885.81"/>
<path class="st0" d="M6883.87,628.67c9.65,0,9.67-15,0-15C6874.22,613.67,6874.2,628.67,6883.87,628.67"/>
<path class="st0" d="M5608.44,556.67c9.65,0,9.67-15,0-15C5598.79,541.67,5598.77,556.67,5608.44,556.67"/>
<path class="st0" d="M6421.01,1410.38c9.65,0,9.67-15,0-15C6411.36,1395.38,6411.35,1410.38,6421.01,1410.38"/>
<path class="st0" d="M5999.3,2233.24c9.65,0,9.67-15,0-15C5989.65,2218.24,5989.63,2233.24,5999.3,2233.24"/>
<path class="st0" d="M5958.16,1605.81c9.65,0,9.67-15,0-15C5948.51,1590.81,5948.49,1605.81,5958.16,1605.81"/>
<path class="st0" d="M3458.73,464.09c9.65,0,9.67-15,0-15C3449.08,449.09,3449.06,464.09,3458.73,464.09"/>
<path class="st0" d="M2738.73,618.38c9.65,0,9.67-15,0-15C2729.08,603.38,2729.06,618.38,2738.73,618.38"/>
<path class="st0" d="M2070.16,577.24c9.65,0,9.67-15,0-15C2060.51,562.24,2060.49,577.24,2070.16,577.24"/>
<path class="st0" d="M1483.87,258.38c9.65,0,9.67-15,0-15C1474.22,243.38,1474.2,258.38,1483.87,258.38"/>
<path class="st0" d="M2131.87,268.67c9.65,0,9.67-15,0-15C2122.22,253.67,2122.2,268.67,2131.87,268.67"/>
<path class="st0" d="M2800.44,309.81c9.65,0,9.67-15,0-15C2790.79,294.81,2790.78,309.81,2800.44,309.81"/>
<path class="st0" d="M3633.59,361.24c9.65,0,9.67-15,0-15C3623.93,346.24,3623.92,361.24,3633.59,361.24"/>
<path class="st0" d="M4579.87,340.67c9.65,0,9.67-15,0-15C4570.22,325.67,4570.2,340.67,4579.87,340.67"/>
<path class="st0" d="M5464.44,340.67c9.65,0,9.67-15,0-15C5454.79,325.67,5454.77,340.67,5464.44,340.67"/>
<path class="st0" d="M5958.16,217.24c9.65,0,9.67-15,0-15C5948.51,202.24,5948.49,217.24,5958.16,217.24"/>
<path class="st0" d="M6410.73,330.38c9.65,0,9.67-15,0-15C6401.08,315.38,6401.06,330.38,6410.73,330.38"/>
<path class="st0" d="M6513.59,1040.09c9.65,0,9.67-15,0-15C6503.93,1025.09,6503.92,1040.09,6513.59,1040.09"/>
<path class="st0" d="M7161.59,1770.38c9.65,0,9.67-15,0-15C7151.93,1755.38,7151.92,1770.38,7161.59,1770.38"/>
<path class="st0" d="M7542.16,1184.09c9.65,0,9.67-15,0-15C7532.51,1169.09,7532.49,1184.09,7542.16,1184.09"/>
<path class="st0" d="M7377.59,752.09c9.65,0,9.67-15,0-15C7367.93,737.09,7367.92,752.09,7377.59,752.09"/>
<path class="st0" d="M7243.87,1245.81c9.65,0,9.67-15,0-15C7234.22,1230.81,7234.2,1245.81,7243.87,1245.81"/>
<path class="st0" d="M7295.3,412.67c9.65,0,9.67-15,0-15C7285.65,397.67,7285.63,412.67,7295.3,412.67"/>
<path class="st0" d="M7624.44,176.09c9.65,0,9.67-15,0-15C7614.79,161.09,7614.77,176.09,7624.44,176.09"/>
<path class="st0" d="M7521.59,813.81c9.65,0,9.67-15,0-15C7511.93,798.81,7511.92,813.81,7521.59,813.81"/>
<path class="st0" d="M907.87,1821.81c9.65,0,9.67-15,0-15C898.22,1806.81,898.2,1821.81,907.87,1821.81"/>
<path class="st0" d="M578.73,2294.95c9.65,0,9.67-15,0-15C569.08,2279.95,569.06,2294.95,578.73,2294.95"/>
<path class="st0" d="M517.01,2397.81c9.65,0,9.67-15,0-15C507.36,2382.81,507.35,2397.81,517.01,2397.81"/>
<path class="st0" d="M218.73,2449.24c9.65,0,9.67-15,0-15C209.08,2434.24,209.06,2449.24,218.73,2449.24"/>
<path class="st0" d="M177.59,2840.09c9.65,0,9.67-15,0-15C167.93,2825.09,167.92,2840.09,177.59,2840.09"/>
<path class="st0" d="M866.73,2696.09c9.65,0,9.67-15,0-15C857.08,2681.09,857.06,2696.09,866.73,2696.09"/>
<path class="st0" d="M1021.01,2284.67c9.65,0,9.67-15,0-15C1011.36,2269.67,1011.35,2284.67,1021.01,2284.67"/>
<path class="st0" d="M743.3,2120.09c9.65,0,9.67-15,0-15C733.65,2105.09,733.63,2120.09,743.3,2120.09"/>
<path class="st0" d="M434.73,2058.38c9.65,0,9.67-15,0-15C425.08,2043.38,425.06,2058.38,434.73,2058.38"/>
<path class="st0" d="M187.87,1770.38c9.65,0,9.67-15,0-15C178.22,1755.38,178.2,1770.38,187.87,1770.38"/>
<path class="st0" d="M311.3,1225.24c9.65,0,9.67-15,0-15C301.65,1210.24,301.63,1225.24,311.3,1225.24"/>
<path class="st0" d="M959.3,1040.09c9.65,0,9.67-15,0-15C949.65,1025.09,949.63,1040.09,959.3,1040.09"/>
<path class="st0" d="M784.44,350.95c9.65,0,9.67-15,0-15C774.79,335.95,774.78,350.95,784.44,350.95"/>
<path class="st0" d="M352.44,114.38c9.65,0,9.67-15,0-15C342.79,99.38,342.78,114.38,352.44,114.38"/>
<path class="st0" d="M846.16,320.09c9.65,0,9.67-15,0-15C836.51,305.09,836.49,320.09,846.16,320.09"/>
<path class="st0" d="M979.87,793.24c9.65,0,9.67-15,0-15C970.22,778.24,970.2,793.24,979.87,793.24"/>
<path class="st0" d="M1823.3,865.24c9.65,0,9.67-15,0-15C1813.65,850.24,1813.63,865.24,1823.3,865.24"/>
<path class="st0" d="M1741.01,1780.67c9.65,0,9.67-15,0-15C1731.36,1765.67,1731.35,1780.67,1741.01,1780.67"/>
<path class="st0" d="M3366.16,536.09c9.65,0,9.67-15,0-15C3356.51,521.09,3356.49,536.09,3366.16,536.09"/>
<path class="st0" d="M4538.73,361.24c9.65,0,9.67-15,0-15C4529.08,346.24,4529.06,361.24,4538.73,361.24"/>
<path class="st0" d="M5269.01,176.09c9.65,0,9.67-15,0-15C5259.36,161.09,5259.35,176.09,5269.01,176.09"/>
<path class="st0" d="M3170.73,227.52c9.65,0,9.67-15,0-15C3161.08,212.52,3161.06,227.52,3170.73,227.52"/>
<path class="st0" d="M4518.16,258.38c9.65,0,9.67-15,0-15C4508.51,243.38,4508.49,258.38,4518.16,258.38"/>
<path class="st0" d="M4734.16,289.24c9.65,0,9.67-15,0-15C4724.51,274.24,4724.49,289.24,4734.16,289.24"/>
<path class="st0" d="M5063.3,556.67c9.65,0,9.67-15,0-15C5053.65,541.67,5053.63,556.67,5063.3,556.67"/>
<path class="st0" d="M6770.73,299.52c9.65,0,9.67-15,0-15C6761.08,284.52,6761.06,299.52,6770.73,299.52"/>
<path class="st0" d="M5464.44,1974.59c7.72,0,7.73-12,0-12C5456.72,1962.59,5456.71,1974.59,5464.44,1974.59"/>
<path class="st0" d="M6009.59,1147.95c16.09,0,16.11-25,0-25C5993.5,1122.95,5993.47,1147.95,6009.59,1147.95"/>
<path class="st0" d="M6400.44,561.67c16.09,0,16.11-25,0-25C6384.36,536.67,6384.33,561.67,6400.44,561.67"/>
<path class="st0" d="M691.87,1667.24c9.15,0,17.92-8.05,17.5-17.5c-0.43-9.48-7.69-17.5-17.5-17.5c-9.15,0-17.92,8.05-17.5,17.5
	C674.8,1659.22,682.06,1667.24,691.87,1667.24"/>
<path class="st0" d="M64.44,1122.09c9.15,0,17.92-8.05,17.5-17.5c-0.43-9.48-7.69-17.5-17.5-17.5c-9.15,0-17.92,8.05-17.5,17.5
	C47.37,1114.08,54.63,1122.09,64.44,1122.09"/>
<path class="st0" d="M455.3,803.24c9.15,0,17.92-8.05,17.5-17.5c-0.42-9.48-7.69-17.5-17.5-17.5c-9.15,0-17.92,8.05-17.5,17.5
	C438.23,795.22,445.49,803.24,455.3,803.24"/>
<path class="st0" d="M784.44,412.38c9.15,0,17.92-8.05,17.5-17.5c-0.43-9.48-7.69-17.5-17.5-17.5c-9.15,0-17.92,8.05-17.5,17.5
	C767.37,404.36,774.63,412.38,784.44,412.38"/>
<path class="st0" d="M1175.3,628.38c9.15,0,17.92-8.05,17.5-17.5c-0.42-9.48-7.69-17.5-17.5-17.5c-9.15,0-17.92,8.05-17.5,17.5
	C1158.23,620.36,1165.49,628.38,1175.3,628.38"/>
<path class="st0" d="M239.3,2304.95c9.15,0,17.92-8.05,17.5-17.5c-0.42-9.48-7.69-17.5-17.5-17.5c-9.15,0-17.92,8.05-17.5,17.5
	C222.23,2296.93,229.49,2304.95,239.3,2304.95"/>
<path class="st0" d="M2543.3,494.67c9.15,0,17.92-8.05,17.5-17.5c-0.42-9.48-7.69-17.5-17.5-17.5c-9.15,0-17.92,8.05-17.5,17.5
	C2526.23,486.65,2533.49,494.67,2543.3,494.67"/>
<path class="st0" d="M3386.73,227.24c9.15,0,17.92-8.05,17.5-17.5c-0.43-9.48-7.69-17.5-17.5-17.5c-9.15,0-17.92,8.05-17.5,17.5
	C3369.65,219.22,3376.92,227.24,3386.73,227.24"/>
<path class="st0" d="M4507.87,402.09c9.15,0,17.92-8.05,17.5-17.5c-0.43-9.48-7.69-17.5-17.5-17.5c-9.15,0-17.92,8.05-17.5,17.5
	C4490.8,394.08,4498.06,402.09,4507.87,402.09"/>
<path class="st0" d="M5125.01,288.95c9.15,0,17.92-8.05,17.5-17.5c-0.43-9.48-7.69-17.5-17.5-17.5c-9.15,0-17.92,8.05-17.5,17.5
	C5107.94,280.93,5115.2,288.95,5125.01,288.95"/>
<path class="st0" d="M7007.3,648.95c9.15,0,17.92-8.05,17.5-17.5c-0.43-9.48-7.69-17.5-17.5-17.5c-9.15,0-17.92,8.05-17.5,17.5
	C6990.23,640.93,6997.49,648.95,7007.3,648.95"/>
<path class="st0" d="M6688.44,782.67c9.15,0,17.92-8.05,17.5-17.5c-0.43-9.48-7.69-17.5-17.5-17.5c-9.15,0-17.92,8.05-17.5,17.5
	C6671.37,774.65,6678.63,782.67,6688.44,782.67"/>
<path class="st0" d="M6133.01,618.09c9.15,0,17.92-8.05,17.5-17.5c-0.43-9.48-7.69-17.5-17.5-17.5c-9.15,0-17.92,8.05-17.5,17.5
	C6115.94,610.08,6123.2,618.09,6133.01,618.09"/>
<path class="st0" d="M6914.73,330.09c9.15,0,17.92-8.05,17.5-17.5c-0.43-9.48-7.69-17.5-17.5-17.5c-9.15,0-17.92,8.05-17.5,17.5
	C6897.65,322.08,6904.92,330.09,6914.73,330.09"/>
<path class="st0" d="M7285.01,237.52c9.15,0,17.92-8.05,17.5-17.5c-0.43-9.48-7.69-17.5-17.5-17.5c-9.15,0-17.92,8.05-17.5,17.5
	C7267.94,229.5,7275.2,237.52,7285.01,237.52"/>
<path class="st0" d="M7223.3,1101.52c9.15,0,17.92-8.05,17.5-17.5c-0.43-9.48-7.69-17.5-17.5-17.5c-9.15,0-17.92,8.05-17.5,17.5
	C7206.23,1093.5,7213.49,1101.52,7223.3,1101.52"/>
<path class="st0" d="M7429.01,1718.67c9.15,0,17.92-8.05,17.5-17.5c-0.43-9.48-7.69-17.5-17.5-17.5c-9.15,0-17.92,8.05-17.5,17.5
	C7411.94,1710.65,7419.2,1718.67,7429.01,1718.67"/>
<path class="st0" d="M7357.01,2150.67c9.15,0,17.92-8.05,17.5-17.5c-0.43-9.48-7.69-17.5-17.5-17.5c-9.15,0-17.92,8.05-17.5,17.5
	C7339.94,2142.65,7347.2,2150.67,7357.01,2150.67"/>
<path class="st0" d="M7449.59,2747.24c9.15,0,17.92-8.05,17.5-17.5c-0.43-9.48-7.69-17.5-17.5-17.5c-9.15,0-17.92,8.05-17.5,17.5
	C7432.51,2739.22,7439.77,2747.24,7449.59,2747.24"/>
<path class="st0" d="M6698.73,1461.52c9.15,0,17.92-8.05,17.5-17.5c-0.43-9.48-7.69-17.5-17.5-17.5c-9.15,0-17.92,8.05-17.5,17.5
	C6681.65,1453.5,6688.92,1461.52,6698.73,1461.52"/>
<path class="st0" d="M4960.44,679.81c9.15,0,17.92-8.05,17.5-17.5c-0.43-9.48-7.69-17.5-17.5-17.5c-9.15,0-17.92,8.05-17.5,17.5
	C4943.37,671.79,4950.63,679.81,4960.44,679.81"/>
<path class="st0" d="M2440.44,206.67c9.15,0,17.92-8.05,17.5-17.5c-0.43-9.48-7.69-17.5-17.5-17.5c-9.15,0-17.92,8.05-17.5,17.5
	C2423.37,198.65,2430.63,206.67,2440.44,206.67"/>
<path class="st0" d="M2142.16,587.24c9.15,0,17.92-8.05,17.5-17.5c-0.43-9.48-7.69-17.5-17.5-17.5c-9.15,0-17.92,8.05-17.5,17.5
	C2125.08,579.22,2132.35,587.24,2142.16,587.24"/>
<path class="st0" d="M918.16,216.95c9.15,0,17.92-8.05,17.5-17.5c-0.43-9.48-7.69-17.5-17.5-17.5c-9.15,0-17.92,8.05-17.5,17.5
	C901.08,208.93,908.35,216.95,918.16,216.95"/>
<path class="st0" d="M249.59,268.38c9.15,0,17.92-8.05,17.5-17.5c-0.42-9.48-7.69-17.5-17.5-17.5c-9.15,0-17.92,8.05-17.5,17.5
	C232.51,260.36,239.78,268.38,249.59,268.38"/>
</svg>
