<?xml version="1.0" encoding="utf-8"?>
<!-- Generator: Adobe Illustrator 23.1.0, SVG Export Plug-In . SVG Version: 6.00 Build 0)  -->
<svg version="1.1" id="Capa_1" xmlns="http://www.w3.org/2000/svg" xmlns:xlink="http://www.w3.org/1999/xlink" x="0px" y="0px"
	 viewBox="0 0 7680 4320" style="enable-background:new 0 0 7680 4320;" xml:space="preserve">
<style type="text/css">
	.st0{fill-rule:evenodd;clip-rule:evenodd;fill:#E31F7B;}
	.st1{fill-rule:evenodd;clip-rule:evenodd;fill:#C61A76;}
	.st2{fill-rule:evenodd;clip-rule:evenodd;fill:#110620;}
</style>
<path class="st0" d="M6972.7,1747.3c6.4,5.3,7.3,14.9,1.9,21.3c-5.3,6.4-14.9,7.3-21.3,2c-6.4-5.3-7.3-14.9-2-21.3
	C6956.8,1742.8,6966.3,1742,6972.7,1747.3L6972.7,1747.3z"/>
<path class="st0" d="M7010,2322.3c11.8,9.8,13.4,27.4,3.6,39.2c-9.8,11.8-27.4,13.4-39.2,3.6c-11.8-9.8-13.4-27.4-3.6-39.2
	C6980.6,2314.1,6998.1,2312.4,7010,2322.3L7010,2322.3z"/>
<path class="st0" d="M5532.6,2096.9c7.6,6.3,8.6,17.5,2.3,25.1c-6.3,7.6-17.5,8.6-25.1,2.3c-7.6-6.3-8.6-17.5-2.3-25.1
	C5513.8,2091.7,5525.1,2090.6,5532.6,2096.9L5532.6,2096.9z"/>
<path class="st0" d="M5658.9,1861.8c8.2,6.8,9.3,19,2.5,27.2c-6.8,8.2-19,9.3-27.2,2.5c-8.2-6.8-9.3-19-2.5-27.2
	C5638.5,1856.1,5650.7,1855,5658.9,1861.8L5658.9,1861.8z"/>
<path class="st0" d="M5863.8,2230.9c71.9,61.6,70.8,55.7,73.7,53.1C5940.4,2281.5,5863.8,2230.9,5863.8,2230.9L5863.8,2230.9z"/>
<polygon class="st0" points="6256.5,1558.9 6268.2,1559.4 6256.9,1562.4 6256.3,1574.1 6253.3,1562.8 6241.7,1562.2 6253,1559.3 
	6253.5,1547.6 "/>
<polygon class="st0" points="5681.2,2265.8 5696.7,2268.3 5681.1,2270.5 5678.6,2286 5676.4,2270.5 5660.9,2267.9 5676.4,2265.7 
	5679,2250.2 "/>
<path class="st0" d="M6738.3,2148.6c7.5,0.7,13.1,7.3,12.5,14.9c-0.7,7.5-7.3,13.1-14.9,12.5c-7.5-0.7-13.1-7.3-12.5-14.9
	C6724.1,2153.5,6730.8,2147.9,6738.3,2148.6L6738.3,2148.6z"/>
<path class="st0" d="M6762.2,2523.1c5.1,0.4,8.9,5,8.5,10.1c-0.5,5.1-5,8.9-10.1,8.5c-5.1-0.5-8.9-5-8.5-10.1
	C6752.5,2526.5,6757,2522.7,6762.2,2523.1L6762.2,2523.1z"/>
<path class="st0" d="M6848.4,2188.4c3.3,0.3,5.8,3.2,5.5,6.5c-0.3,3.3-3.2,5.8-6.5,5.5c-3.3-0.3-5.8-3.2-5.5-6.5
	C6842.1,2190.5,6845.1,2188.1,6848.4,2188.4L6848.4,2188.4z"/>
<path class="st0" d="M6885.3,2384.4c4.8,0.4,8.4,4.7,8,9.5c-0.4,4.8-4.7,8.4-9.5,8c-4.8-0.4-8.4-4.7-8-9.5
	C6876.2,2387.5,6880.5,2384,6885.3,2384.4L6885.3,2384.4z"/>
<path class="st0" d="M6689.7,2270.6c2.1,0.2,3.7,2,3.5,4.2s-2,3.7-4.2,3.5c-2.1-0.2-3.7-2-3.5-4.2
	C6685.8,2272,6687.6,2270.4,6689.7,2270.6L6689.7,2270.6z"/>
<path class="st0" d="M6692.8,2075.5c2.7,0.2,4.7,2.6,4.5,5.4c-0.2,2.7-2.6,4.7-5.4,4.5c-2.7-0.2-4.7-2.6-4.5-5.4
	C6687.7,2077.3,6690.1,2075.2,6692.8,2075.5L6692.8,2075.5z"/>
<path class="st0" d="M6613.7,2034.6c2.7,0.2,4.7,2.6,4.5,5.3c-0.2,2.7-2.6,4.7-5.4,4.5c-2.7-0.2-4.7-2.6-4.5-5.3
	C6608.5,2036.4,6610.9,2034.4,6613.7,2034.6L6613.7,2034.6z"/>
<path class="st0" d="M6516,1948c4.5,0.4,7.8,4.3,7.4,8.8c-0.4,4.5-4.3,7.8-8.8,7.4c-4.5-0.4-7.8-4.3-7.4-8.8
	S6511.5,1947.7,6516,1948L6516,1948z"/>
<path class="st0" d="M6754.4,1969.2c3.8,0.3,6.5,3.6,6.2,7.4c-0.3,3.8-3.6,6.5-7.4,6.2s-6.5-3.6-6.2-7.4
	S6750.6,1968.9,6754.4,1969.2L6754.4,1969.2z"/>
<path class="st0" d="M6516.2,1889.7c1.6,0.1,2.8,1.5,2.6,3.1c-0.1,1.6-1.5,2.8-3.1,2.6c-1.6-0.1-2.8-1.5-2.6-3.1
	S6514.6,1889.5,6516.2,1889.7L6516.2,1889.7z"/>
<path class="st0" d="M5913.6,1706.4c6,0.5,10.4,5.8,9.9,11.8c-0.5,6-5.8,10.4-11.8,9.9c-6-0.5-10.4-5.8-9.9-11.8
	S5907.7,1705.9,5913.6,1706.4L5913.6,1706.4z"/>
<path class="st0" d="M5748.9,2122.9c4.2,0.4,7.3,4.1,6.9,8.3c-0.4,4.2-4.1,7.3-8.3,6.9c-4.2-0.4-7.3-4.1-6.9-8.3
	C5741,2125.6,5744.7,2122.5,5748.9,2122.9L5748.9,2122.9z"/>
<path class="st0" d="M5770.9,2326.1c4.2,0.4,7.3,4.1,6.9,8.3c-0.4,4.2-4.1,7.3-8.3,6.9c-4.2-0.4-7.3-4.1-6.9-8.3
	C5762.9,2328.8,5766.7,2325.7,5770.9,2326.1L5770.9,2326.1z"/>
<path class="st0" d="M5973.3,1991.8c2.8,0.3,5,2.8,4.7,5.6c-0.3,2.8-2.8,4.9-5.6,4.7c-2.8-0.3-4.9-2.8-4.7-5.6
	C5968,1993.7,5970.5,1991.6,5973.3,1991.8L5973.3,1991.8z"/>
<path class="st0" d="M5825.9,1986.5c2.9,0.2,5,2.8,4.7,5.6c-0.3,2.8-2.8,4.9-5.6,4.7s-4.9-2.8-4.7-5.6S5823,1986.2,5825.9,1986.5
	L5825.9,1986.5z"/>
<path class="st0" d="M6112.3,1805.3c4.3,0.4,7.4,4.1,7.1,8.4c-0.4,4.3-4.1,7.4-8.4,7.1c-4.3-0.4-7.4-4.1-7.1-8.4
	C6104.3,1808.1,6108,1804.9,6112.3,1805.3L6112.3,1805.3z"/>
<path class="st0" d="M5997.1,1824.2c6.3,0.5,10.9,6,10.3,12.3c-0.5,6.2-6.1,10.9-12.3,10.3c-6.2-0.5-10.9-6.1-10.3-12.3
	S5990.8,1823.6,5997.1,1824.2L5997.1,1824.2z"/>
<path class="st0" d="M5995.3,1744.8c2.7,0.2,4.7,2.6,4.5,5.3c-0.2,2.7-2.6,4.7-5.3,4.5c-2.7-0.2-4.7-2.6-4.5-5.3
	C5990.2,1746.6,5992.6,1744.6,5995.3,1744.8L5995.3,1744.8z"/>
<path class="st0" d="M5892.5,1855.9c3.8,0.3,6.7,3.7,6.3,7.5c-0.3,3.8-3.7,6.7-7.5,6.3c-3.8-0.3-6.7-3.7-6.3-7.5
	C5885.3,1858.4,5888.7,1855.6,5892.5,1855.9L5892.5,1855.9z"/>
<path class="st0" d="M6562.5,1764.3c5.2,0.5,9.1,5.1,8.7,10.3c-0.5,5.2-5.1,9.1-10.3,8.7c-5.2-0.5-9.1-5.1-8.7-10.3
	C6552.7,1767.8,6557.3,1763.9,6562.5,1764.3L6562.5,1764.3z"/>
<path class="st0" d="M6669.1,1832.9c3.1,0.3,5.4,3,5.2,6.2s-3,5.5-6.2,5.2c-3.1-0.3-5.5-3-5.2-6.2S6665.9,1832.6,6669.1,1832.9
	L6669.1,1832.9z"/>
<path class="st0" d="M6790.8,1818.2c3.1,0.3,5.5,3,5.2,6.2s-3,5.5-6.2,5.2s-5.4-3-5.2-6.2
	C6784.9,1820.2,6787.7,1817.9,6790.8,1818.2L6790.8,1818.2z"/>
<path class="st0" d="M6588.8,1610.3c3.1,0.3,5.4,3,5.2,6.2c-0.3,3.1-3,5.5-6.2,5.2c-3.1-0.3-5.5-3-5.2-6.2
	S6585.7,1610,6588.8,1610.3L6588.8,1610.3z"/>
<path class="st0" d="M6107.9,1619.6c3.1,0.3,5.4,3,5.2,6.2c-0.3,3.1-3,5.5-6.2,5.2c-3.1-0.3-5.5-3-5.2-6.2
	C6102.1,1621.7,6104.8,1619.3,6107.9,1619.6L6107.9,1619.6z"/>
<path class="st1" d="M6862.5,2048.9c3.9,13.3,6,29.4-8.4,37.8l-3.4,2l-3.9-0.8c-27.3-5.4-52.3-13.5-77.3-25.9
	c-36.1-17.9-67.8-42.8-95.2-72c-6.9,2.4-14.3,3-21-0.1c-6.1-2.8-11-7.2-13.1-13.7c0-0.1,0-0.1-0.1-0.2c-2.7,0.4-5.4,0.9-7.6,1.2
	c-2.8,0.4-5.7,0.9-8.5,1.3l2,31.3l3.2,39.3c8.2,0.4,16.8,2.4,23.1,6.5c19.4,12.4,14.8,48.5-11.2,51.1c-3.1,0.3-6.3,0.6-9.5,0.9
	l2,45.9l0.3,7.1l0.5,10.6l-60.9,77.5c35.6,7.4,71.4,2.6,105.8-11.1l2.8-1.1l2.9,0.5c0.9,0.2,1.8,0.4,2.7,0.7l12.5,8.9
	c4.4,5.6,6,12.6,5.7,19.8l-2.4,9.8c-4.6,8.2-15.5,12.3-24.1,14.5c-13,3.4-27.6,4.8-41.1,5.5c-16.4,0.9-35.8,1-52-1.4
	c-8.8-1.3-17.6-1.9-26.5-3.4c-14-2.4-27.4-6.3-40.4-11.9c-13.5-5.7-26.5-13.1-38.8-21.5l-1.9-0.2c3.9,17.9,5.3,38.3,4.8,54.8
	c-1.5,49.9-19.9,94.6-56.2,129c-3.2,23.1-5.7,46.7-7.5,69.9c-1.1,14.4-2,29.2-1.6,43.7c0.1,4.1,0.6,17.5,2.5,22
	c6.1,3.1,13.7,5.7,20,8c10.4,3.8,20.9,7.4,31.3,11.4c13,5,26.9,10.8,38.6,18.4c6.3,4.1,12.6,6.8,19.7,9.2c6.3,2.1,12.6,3.9,18.3,7.4
	c8.2,5,12.9,12.3,16.3,21.2c0.9,2.3,2.9,7.7,4.8,11.4c18.3-4,46.1-5.9,57.1,9.8c1.6,2.3,3,4.8,4.2,7.3c2.5,5.5,4.1,11.1,5.8,16.8
	c0.4,1.3,1.3,4.6,2.3,6.6c2.2-0.8,4.5-1.9,6.5-2.9c4.1-2,8.1-4.1,12.2-6.2c10.6-5.4,21.4-10.5,32.7-14.2c13.6-4.5,28.4-7,42.7-4.1
	c2.5,0.5,5,1.2,7.4,2c11.5,4,22.7,9.3,29.9,19.5c5.6,7.9,7.8,17.4,9.4,26.9c2,12,3.4,24.1,5.4,36.2c5.6,9.4,10.8,19,16.4,28.3
	c9.4,16,19.2,31.7,29.5,47.1c10.5,15.6,16,35.4,17.7,53.9c2.5,28.6-3.7,66.3-29.8,83c-19.3,12.4-45.3,8.1-65.7,0.8
	c-16.3-5.9-44.5-20.2-54.8-34.6c-6.6-9.2-16-19-24.9-26.7c-17.8-2.7-35.6-5.3-53.5-7.7c-11.3-1.5-22.7-3-34.1-4.1
	c-4.1-0.4-12.8-1.5-17.5-1.2c-7.3,4.2-17.4,8.3-25,11c-10,3.6-26.2,8.6-36,2.5c-3.5-2.2-10-7.1-14.4-5.8c-7.7,2.3-15-3.7-20.4-8.4
	c-6-5.2-11.7-11.1-17.1-16.9c-7.3-7.8-14.6-16-21.5-24.2c-34.6-9.6-69.3-20.3-103.2-31.9c-22.5-7.6-89.3-30.1-103.1-48.6
	c-12.4-16.7-23.2-44.3-30.5-68.1c-10.5,13.8-20.8,30.4-25.1,44.4c-7.5,24.4-31,52.8-51.1,67.9c-10.3,7.8-21.9,14.1-34.4,17.6
	c-19.5,5.5-38.7,3.5-56.8-5.4c-36-17.8-39.3-57.1-34.6-92.7c2.1-16.2,5.9-32,9.7-47.9c1-4.4,5.2-20.8,4.6-25.4
	c-2.2-4.6-5.7-9.8-8.5-14c-4.8-7.3-9.9-14.4-15-21.4c-8.7-12-17.5-23.9-26.5-35.6c-8.2-1.5-17-4.2-24.2-7.3
	c-17.5-7.5-32.9-20.1-37.3-39.5c-1.4-6.2-2.9-13.8-2.3-20.1c0.4-3.6,1.1-5.5,2.6-8.3c-0.6-3.3-3.4-10.2-4.4-12.6
	c-7.3-18-13.9-42.5-15.1-62.4c-7.9-30.1-15.7-60.2-23.3-90.3c-4.2-16.6-8.3-33.2-12.3-49.9c-2.8-11.7-5.7-23.6-7.8-35.4
	c-1.4-8-3-15.9-3.9-23.9c-1.8-16.5,0.1-30.9,7-46.1c9.8-21.6,28.4-40.9,45.8-56.6c20.8-18.7,48.6-30.8,75-38.9
	c28.6-8.8,59-14.1,88.7-17.2c11-1.2,22.5-2.1,33.7-2.6l3-17.1c-3.4-3.9-6.1-8.6-6.1-13.5c0-1.5,0-2.9,0-4.4c-1-0.1-2-0.3-3-0.5
	c-7-1.1-16.1-2.9-19.1-10.3c-1.7-4.2-2.7-14.1-3.4-18.7c-1.6-10.8-3-21.7-4.3-32.5c-1.2-10.1-2.4-20.3-3.3-30.5
	c-0.5-5.7-1.5-14.6-0.7-20.3c0.4-2.7,1.1-5.5,2-8.4c-2.3,0.1-4.6,0.2-6.9,0.2c-1.3,0-2.6,0-3.9-0.1c-6.3-0.4-11.7-4.9-10.8-11.7
	c-20.4-0.6-43.5-5.2-61.3-11c-47.8-15.6-85.2-46-107.7-90.5l-22.1,6.8l-2.4-11.1c-3-14-5.9-28-8.8-42c-1.9-9.1-3.7-18.3-5.5-27.4
	c-0.9-4.5-2.6-12-2.6-16.5c0-2,0-4.1,0-6.1v-8.4l11-2.3c0.5-7.5,1.5-15.2,2.7-22.2c3.7-22.7,10.2-45.3,19.8-66.1
	c29.4-63.6,81.9-98.4,150.8-104c2.8-5.3,7.1-10,13-11c5-0.8,11.7-0.9,16.8-1.1c9.9-0.4,19.9-0.5,29.8-0.3
	c12.3,0.2,30.8,0.8,42.3,4.9c11.5,4.2,23.1,8.2,34.8,12.1l5.9,2l1.6,9.4c4,1.5,8.1,3.2,12,4.8c6,2.5,17.7,7,21.1,12.7
	c1.3,2.2,1.9,5.4,2.2,9.1c5.7,3.1,11.1,6.4,15.8,9.6c11.1,7.4,21.5,15.8,31.1,24.9c20.1-3.9,40.2-8.5,59.9-13.4
	c18.6-4.7,36.9-14.1,54.1-22.4c20.3-9.8,41.5-19.3,64-22.1c5.4-0.6,10.8-0.9,16.1-0.7c22.2,0.8,42.6,9.4,59.8,23.3
	c3.9,3.1,8,6.8,11.9,10.9c7.1-1.6,14.2-3.3,21.3-5.2c4.7-1.3,12.3-3.1,16.6-5.3c20-10,36.2-17.6,59.4-17.6c9,0,16.9,1,25.7,2.4
	c6.1,1,11.9,1.9,18.1,2.1c9.9,0.3,20-0.6,29.8-1.9c11.3-1.5,28.6-6.6,38.8-0.2c3.2,2,6.4,5,9.3,8.2c8.7-5.2,17.6-10.7,25.6-16.4
	c5.2-3.7,11.7-5.9,17.9-7c8.5-1.6,22.3-2,29.8,4.3c3-2.8,5.9-5.4,8.6-7.6c7-5.8,15.9-11.9,24.8-13.8c9.4-2,19.2-0.7,26.8,5.3
	c5.8,4.6,9.7,11.7,9.7,19.1c9-0.7,17.9,1.6,24.7,8.4c3.8,3.8,6.7,8.4,8.4,13.4l1.4,5c0.1,0.8,0.3,1.6,0.4,2.5c0.7,0,1.3,0.1,2,0.2
	c14,1.6,22.6,11.2,25,24.8c2.4,13.3-1.3,26.7-8.1,38.2l-2.7,4.2c-1,1.5-2.1,2.9-3.2,4.3c-13.6,16.9-33.4,27.4-54.2,32.5
	c-19,4.7-38.4,8.1-57.8,10.3c-1,0.1-2,0.2-3,0.3c8.3,11.8,14.5,25.8,14.1,38.8c-0.1,4.2-0.9,8.3-2.4,12.2
	c-6.5,17.3-21.6,27-39.5,28.8c-11.4,1.2-24.1-0.8-34.3-6.2c-5.7-3-11.2-6.7-16.4-10.5c-5.1-3.7-10.1-7.6-15.1-11.4
	c-1.2-0.9-3.1-2.4-4.9-3.7c-2.8,1.5-5.8,2.6-8.4,3.2c-7.4,1.9-15.4,1.8-22.6-1.3c-3.3-1.4-6.2-3.1-9.1-5.1c-0.5-0.4-1.4-1-2.2-1.5
	c-9,7.4-23.7,12.4-35.2,12.4c-5.1,0.5-25.6,9.1-32.7,14c0.1,1.1,0.1,2.1,0.3,3.1c7.3,2,16.5,6.3,22.8,9.3l4.7,2.2l1,5.1
	c1.3,6.7,2.8,13.4,4.3,20c0.7,3,1.9,8.6,3.2,12.7c1.5,0.3,3.1,0.5,4.4,0.7c4.6,0.5,9.6,0.7,14.2-0.1c1.7-0.3,3.4-0.7,5-1.3
	c14.5-5.8,31.3-10.6,44.3,1.2c2.4,2.2,4.5,4.5,6.6,7c1.1,1.3,2.3,2.9,3.5,4.1c1.5,1.5,3.1,2.1,5.2,2.5c3.5,0.8,6.5,2.2,9.6,3.8
	c1,0.5,2.8,1.5,4,1.8c1.7-0.2,5.7-4.4,6.8-5.5c16.2-17.9,43.3-51.7,68.5-53.6c11.2-0.8,22,2.4,29.9,10.7c0,0.1,0.1,0.1,0.1,0.1
	l3.9-0.5l-2.3,2.3c1.1,1.4,2.2,2.9,3.1,4.5c0.3-0.1,0.5-0.3,0.8-0.4c7-3.7,14.5-5.4,22.4-3.9c10.4,1.9,19,8.6,23.8,18
	c1.2,2.4,2.3,5.1,2.9,7.9c1.7,0,3.3,0,5,0.2c10.9,1.1,19.4,6.9,24.3,16.8c5.7,11.5,3.5,24.3-1.6,35.5c-1.4,3.1-3.6,7.1-6.3,11.2
	c11.4,3.8,19,12.7,22,25c4.2,17.3-4.7,32.8-18.4,42.8c-9.1,6.8-22.4,12.5-33.9,12.5c-9.1,0-18.3-0.4-27.4-0.8
	c-3.5-0.2-7.1-0.3-10.6-0.5c1.4,2.4,2.8,4.9,4.1,7.3c4.8,9.2,10.6,22.8,7.7,33.2c-5.3,19.1-40.2,48.3-58.3,29
	c-7.9-8.4-16.7-16.7-25.3-24.4c-4.7-4.2-21.3-18.8-26.8-20.5c-2.4-0.5-8.2-1.7-13.5-2.3c27.4,27.5,59.8,49.8,95.5,65
	c11.5,4.9,23.4,9.1,35.4,12.2c4.3,1.1,9,2.3,13.4,2.9L6862.5,2048.9L6862.5,2048.9z M6186.1,1621.8c-6.1-5.2-12.5-9.8-19.4-13.8
	c-1.1,0.7-2.3,1.1-3.6,1.5c-3.6,0.9-7.3,1.9-11,3l-1.1,23.3c1.9,0.2,3.7,0.2,4.9,0.1c5-3.9,15.6-8,20.4-10
	C6179.6,1624.5,6182.8,1623.2,6186.1,1621.8L6186.1,1621.8z M6139.6,2446.4c-0.7-0.4-1.4-0.9-2-1.3c-3.3-2.2-6.7-4.3-10-6.3
	c-2.1-1.3-4.3-2.7-6.5-4c-0.7,6.3-1.1,13.7-1.4,17.2c-0.2,3.4,1.1,3.7,3,6.4c2.6,3.6,3.9,7.5,3.9,12c0,2.7-0.3,5.3-0.5,8
	c-0.4,4.3,0.3,7.8,1.3,12c1.7,4.2,11.6,13,21.9,21.4c-1.5-5.5-2.9-11.1-4.3-16.7C6141.2,2478.4,6139.3,2463.1,6139.6,2446.4
	L6139.6,2446.4z"/>
<path class="st2" d="M6775.3,2765.8c-8.6-50.6-3.3-64.3-38.3-76.4c-35-12.2-80.6,21.3-95.8,25.9c-15.2,4.6-12.2-19.8-22.8-35
	c-10.6-15.2-51-4.6-51-4.6s-3,5.3-12.2-19c-9.1-24.3-24.3-16-50.2-32.7c-25.9-16.7-73.8-28.9-90.5-38c-16.7-9.1,3-149.1,3-149.1
	c85.2-77.6,47.2-190.9,47.2-190.9l89.4,11l69.8-88.8l-3-69.4c0,0,2.5-0.4,19.2-2.1c16.7-1.7,17.3-25.3,6.6-32.1
	c-10.6-6.8-27-4.4-27-4.4l-4-49.4l-2.7-40.7c0,0,32.7-5.3,35.8-4.9c3,0.4-3.8,9.9,8.8,15.6c12.6,5.7,33.9-11.4,36.5-19
	c2.7-7.6,22.4-3.8,33.5-1.5c11,2.3,47.2,36.9,57.4,47.9s36.9-11,40.7-24.7c3.8-13.7-20.2-48.7-23.2-49.1s43,2.3,59.3,2.3
	c16.4,0,48.3-17.5,42.2-42.6s-33.1-18.3-33.1-18.3c4.6-3,29.7-31.6,19.8-51.3s-34.6-6.5-30.8-11c3.8-4.6-1.5-23.2-17.9-26.2
	c-16.4-3-27.4,14.8-27.4,8.4s-7.2-22.4-27.8-20.9s-46.8,33.8-61.6,50.2c-14.8,16.4-19.4,5.7-30.4,3c-11-2.7-11.4-8.4-19.8-16
	c-8.4-7.6-20.2-4.6-33.5,0.8c-13.3,5.3-31.2,0.8-34.2,0.8c-3,0-11-40.3-11-40.3s-16.7-8-23.2-9.1c-6.5-1.1-4.9-9.9-6.1-15.6
	c-1.1-5.7,35.8-21.3,43.4-21.3c7.6,0,20.9-3.4,28.9-10.3c8-6.8,11,0.8,21.7,5.3c10.7,4.6,23.2-1.1,25.5-4.2c2.3-3,25.1,19,42.6,28.2
	s49.8,8.4,59.3-17.1c9.5-25.5-23.2-56.3-23.2-56.3s34.6-0.8,79.5-11.8c44.9-11,64.7-43.7,60.5-67.3c-4.2-23.6-28.9-14.8-28.9-14.8
	s6.9-13.3-5.3-25.5s-31.6-0.4-31.6-0.4s3-6.5,3.8-14.4c0.8-8-8-18.6-24-15.2c-16,3.4-38,28.5-41.1,32.7c-3,4.2,2.3-5.3,0-11.8
	c-2.3-6.5-25.5-6.1-36.1,1.5c-10.7,7.6-34.2,21.5-34.2,21.5s-6.1-9.1-12.2-12.9c-6.1-3.8-20.5,0.2-32,1.7
	c-44.1,5.9-47.4-2.5-74.9-2.5c-23.6,0-41.1,9.7-54.8,16.6c-13.7,6.8-93.6,23.2-98.9,22.4c-5.3-0.8-10.7-11.8-40.3-13.3
	c-29.7-1.5-117.2,19.8-148.4,31.2s-80.6,30-84.4,34.2c-3.8,4.2-21.7,0.4-21.7,0.4l1.9-39.9c0,0,12.2-3.8,18.6-5.3
	c6.5-1.5,9.1-38.4,6.8-42.2c-2.3-3.8-33.5-15.2-33.5-15.2l-1.5-9.1c0,0-16-5.3-35-12.2c-19-6.8-79.1-3.8-83.7-3
	c-4.6,0.8-7.6,10.7-7.6,10.7c-168.9,9.1-170.4,190.9-170.4,190.9l-10.6,2.3c0,0,0,0.8,0,6.1c0,5.3,16.7,83.7,16.7,83.7l19.8-6.1
	c49.5,110.3,174.4,103.6,174.4,103.6s-0.4,10.7-0.6,11.6s27.9-0.8,27.9-0.8s-6.8,10.5-8.4,21.1s9.5,92.8,11,96.6
	c1.5,3.8,22.8,5.3,22.8,5.3s0,9.5,0,13.7s6.9,9.9,6.9,9.9l-5.3,30.8c0,0-138.4,1.5-199.3,56.3c-60.9,54.8-51.7,82.9-45.6,117.1
	c6.1,34.2,43.4,175.7,43.4,175.7s1.5,28.2,14.5,60.1c12.9,32-3,9.1,4.6,42.6c7.6,33.5,57.1,39.6,57.1,39.6s46.4,60.1,54,76.8
	c7.6,16.7-47.9,129.3,15.2,160.5c63.1,31.2,118.7-44.1,127.8-73.8c9.1-29.7,39.5-63.1,39.5-63.1s14.5,57.1,34.2,83.7
	c19.8,26.6,203.9,77.6,203.9,77.6s42.6,51,50.2,48.7c7.6-2.3,12.9,0.8,22.8,6.9s45.6-10.6,51.7-14.4c6.1-3.8,113.4,12.9,113.4,12.9
	s17.5,14.5,28.9,30.4c11.4,16,74.5,51.7,106.5,31.2c31.9-20.5,32.7-87.5,9.1-122.5C6798.9,2808.4,6782.2,2777.2,6775.3,2765.8
	L6775.3,2765.8z M6150.1,2441.4c0-1.1-30-19.4-34.2-21.7c-4.2-2.3-5.7,20.2-6.5,31.6c-0.8,11.4,6.9,11,6.9,19s-1.9,9.9,1.1,22.4
	c3,12.6,49.1,44.9,49.1,44.9C6158.9,2501.2,6148.3,2481.3,6150.1,2441.4L6150.1,2441.4z"/>
<path class="st0" d="M6005.9,1539.2c-138.1-0.6-158.3,178.3-158.3,178.3l18.3-3.4c4-81.6,69-122.1,69-122.1
	c-35.4,22.3-54.8,122.7-54.8,122.7l61-5.7c-6.6-42.4,28-80.3,68.5-85.6l-3.4-78L6005.9,1539.2L6005.9,1539.2z"/>
<path class="st0" d="M6005.9,1539.2c-138.1-0.6-158.3,178.3-158.3,178.3l14.5-2.7c0-1.7-0.5-3.8-2.7-5.5c-4.1-3.2-1.8-14.6,0.9-29.7
	c2.7-15.1,31-79.4,69.8-109.1c30.7-23.5,63.6-24.4,76.1-23.7l-0.1-1.4L6005.9,1539.2L6005.9,1539.2z"/>
<path class="st0" d="M6007,1564.7c-26.7,0.9-54.4,12.8-77.2,30.8c3.2-2.3,5-3.5,5-3.5c-35.4,22.3-54.8,122.7-54.8,122.7l61.1-5.7
	c-6.6-42.4,28-80.3,68.5-85.6L6007,1564.7L6007,1564.7z"/>
<path class="st0" d="M6008.5,1599c-12.5,2.5-64.2,15.6-82.6,62c-15.6,39.2-35.9,48.9-45.4,51.3c-0.3,1.5-0.5,2.3-0.5,2.3l61.1-5.7
	c-6.6-42.4,28-80.3,68.5-85.6L6008.5,1599L6008.5,1599z"/>
<path class="st0" d="M5941.1,1716.9c-3.4,13.7,14.8,23.4,14.8,23.4s-98.5,52.7-103.1,51.5c-4.6-1.1-11.6-56.9-11.6-60.3
	S5941.1,1716.9,5941.1,1716.9L5941.1,1716.9z"/>
<path class="st0" d="M5861.3,1727.1c-5.9,2.1-11.5,4.8-11.8,7.5c-0.8,5.9,2.1,27,1.9,31.9c-0.2,5,1.7,11.6,3.6,16.2
	c1.2,2.8,2.3,5.6,3,7.4c-2.8,1.2-4.6,1.8-5.2,1.7c-4.6-1.1-11.6-56.9-11.6-60.3C5841.3,1730.5,5849.5,1728.9,5861.3,1727.1
	L5861.3,1727.1z"/>
<path class="st0" d="M5941.1,1716.9c-3.4,13.7,14.8,23.4,14.8,23.4s-61,32.6-89.2,46l-0.1-0.3c-1.4-6.9,0-44.3,4.1-50.7
	c4.1-6.4,55.2-12.3,55.2-12.3l0.3-4.3C5935.2,1717.5,5941.1,1716.9,5941.1,1716.9L5941.1,1716.9z"/>
<path class="st0" d="M5941.1,1716.9c-3.4,13.7,14.8,23.4,14.8,23.4s-29.6,15.8-57.1,30c0.5-2.9,1.4-6.6,1.4-10.9
	c0-9.5,31.3-27.8,31-30.4c-0.3-1.9,0.6-7.8,1.1-11C5937.7,1717.3,5941.1,1716.9,5941.1,1716.9L5941.1,1716.9z"/>
<path class="st0" d="M6123.1,1540c-0.6-0.3-10.3-2.6-10.3-2.6l-10.8,167.7l-3.4,1.7l1.7-172.9c-29.8-16.1-82.7-4.6-82.7,0l1.1,90.7
	l11.4-1.1v-50.8l8-0.6l2.3,55.3c9.7,1.1,26.3,14.3,26.3,14.3l-4.6,8c-22.3-18.3-67.3-16.5-87.9,5.1c-20.5,21.7-17.7,75.9-17.7,75.9
	l14.3-4.1c-2.1-5.8-3.3-12.2-3.3-18.8c0-30.3,24.5-54.8,54.8-54.8c6.8,0,13.4,1.3,19.4,3.5c4.8,1.7,9.5,4.2,13.6,7.6
	c13.2,10,21.7,25.8,21.7,43.7c0,21.6-12.5,40.3-30.7,49.2l-0.8,38.4C6157.4,1763.7,6123.1,1540,6123.1,1540L6123.1,1540z"/>
<path class="st0" d="M6123.1,1540c-0.6-0.3-10.3-2.6-10.3-2.6l-0.3,3.8l11,2.6C6123.3,1541.4,6123.1,1540,6123.1,1540L6123.1,1540z
	 M5969.9,1727.1l-7.6-2.3c0,0-2.9-11.4-1.1-22.8s3-36.2,27.3-52.5c16.6-11.1,44.5-9.4,60.5-7.3c-23.8-9.5-57.6-5.2-74.7,12.8
	c-20.5,21.7-17.7,75.9-17.7,75.9L5969.9,1727.1L5969.9,1727.1z M6024.6,1624.2c0.1-14.3,0.8-79.4,0.5-81.9
	c-0.3-2.9,4.9-10.8,24.3-10c15.4,0.7,40.9,4.8,50.9,6.4l0-4.6c-29.8-16.1-82.7-4.6-82.7,0l1.1,90.7L6024.6,1624.2L6024.6,1624.2z"/>
<path class="st0" d="M6124.2,1548.2l-8.4,0.4c0,0-5,105.9-5.9,116.4c-0.9,10.5-4.6,41.5-4.6,41.5s-5.9,2.1-6.4,0.2l-0.4,0.2
	l1.6-163.3c-2.7-0.9-6.9-1.6-13.1-1.9c-20.1-0.9-47.9,0.5-52.5,8.2c-4.6,7.8-2.7,17.8-2.7,17.8s10-3.7,10,0c0,3.3,3.4,52,4,61.4
	c9.4,3.7,20.7,12.7,20.7,12.7l-4.6,8l-0.5-0.4l0.4,0.9c-59.8-19.8-107.5,23.7-93.4,68.6c-0.7-3.5-1.1-7.2-1.1-10.9
	c0-30.3,24.5-54.8,54.8-54.8c6.8,0,13.4,1.3,19.4,3.5c4.8,1.7,9.5,4.2,13.6,7.6c13.2,10,21.7,25.8,21.7,43.7
	c0,21.6-12.5,40.3-30.7,49.2l-0.8,38.4C6144.6,1767.3,6129.1,1588.6,6124.2,1548.2L6124.2,1548.2z"/>
<path class="st0" d="M6127.5,1588.4c-3.5,41.1-11.6,116.2-25.9,135.8c-16.6,22.7-7.2-5.8-2.9-22.6l1.5-155.5
	c-1.6-0.3-3.4-0.1-4.1,2.1c-1.1,3.7-0.3,144.9-8,145.8c-7.2,0.8-15.6-45.1-53.8-39.4c2.5,0.6,5,1.3,7.4,2.2
	c4.8,1.7,9.5,4.2,13.6,7.6c13.2,10,21.7,25.8,21.7,43.7c0,21.6-12.5,40.3-30.7,49.2l-0.8,38.4
	C6124.1,1773.2,6130.6,1656,6127.5,1588.4L6127.5,1588.4z"/>
<path class="st0" d="M6022.3,1659.5c26.8,0,48.5,21.7,48.5,48.5s-21.7,48.5-48.5,48.5c-26.8,0-48.5-21.7-48.5-48.5
	C5973.8,1681.2,5995.5,1659.5,6022.3,1659.5L6022.3,1659.5z M6021.4,1670.2c9.1,0,17.4,3.3,23.9,8.7c-6.2-4.6-13.9-7.3-22.1-7.3
	c-20.6,0-37.3,16.7-37.3,37.3c0,11.5,5.2,21.8,13.4,28.6c-9.2-6.8-15.2-17.7-15.2-30C5984.1,1686.9,6000.8,1670.2,6021.4,1670.2
	L6021.4,1670.2z M6022.3,1688.6c10.7,0,19.4,8.7,19.4,19.4s-8.7,19.4-19.4,19.4s-19.4-8.7-19.4-19.4S6011.6,1688.6,6022.3,1688.6
	L6022.3,1688.6z"/>
<path class="st0" d="M5983.9,1737.5c5.6-0.5,8.2-4.2,9.1-5.9c1.9,2.2,4,4.2,6.3,5.9c-2.3-1.9-4.3-4-6-6.3l0.1-0.3
	c12.3,2.7,21.5,0.8,28.4-3.5l0.6,0c10.7,0,19.4-8.7,19.4-19.4c0-3.3-0.8-6.4-2.2-9.1c2.5-10,2.5-18.3,2.5-18.3
	c11.4,7.1,12.1,30.3,12.1,30.3c4.8-18.6-6.1-29.8-11.2-33.8c0.8,0.5,1.6,1.1,2.4,1.7c-1.5-1.3-3.2-2.4-4.9-3.5
	c0.2-0.4,2-4.1,5.2-4.1c3.4,0,15.5,8,21.2,27.2c3.7,12.3,0.5,25.4-2.2,33.2c-8.3,14.8-24.1,24.8-42.3,24.8
	C6006.7,1756.5,5992.7,1749.1,5983.9,1737.5L5983.9,1737.5z"/>
<path class="st0" d="M6091.4,1777.6c15.4,10.7,19.9,27.2,18.8,30.8l-30.2,102.1h-33.7l-1.1-103.8
	C6075.4,1798.7,6091.4,1777.6,6091.4,1777.6L6091.4,1777.6z"/>
<path class="st0" d="M6091.4,1777.6c15.4,10.7,19.9,27.2,18.8,30.8l-7.1,24c-2.6-10.2-8-27.2-14.8-28.4
	c-9.7-1.7-19.4,18.3-33.7,29.7c-3.6,2.9-6.6,8.2-9,14.5l-0.5-41.5C6075.4,1798.7,6091.4,1777.6,6091.4,1777.6L6091.4,1777.6z"/>
<path class="st0" d="M6115.4,1749.7c-1.7,4-12.6,17.7-12.6,17.7l17.7,25.7l12.6-17.7L6115.4,1749.7L6115.4,1749.7z"/>
<path class="st0" d="M6122.4,1723.5l-4.6,14.3l23.4,24.5c0,0,8.6-18.8,8.6-22.8S6122.4,1723.5,6122.4,1723.5L6122.4,1723.5z"/>
<path class="st0" d="M6125.8,1690.4c0.6-1.1,33.7,12.6,33.7,12.5l-6.3,23.4c0,0-31.4-11.4-30.2-14.8
	C6124.1,1708.1,6125.8,1690.4,6125.8,1690.4L6125.8,1690.4z"/>
<polygon class="st0" points="6133.2,1659.6 6130.3,1681.9 6159.4,1690.4 6160.6,1661.9 "/>
<path class="st0" d="M6175.7,1664.9c1.1-1.7,32-30.2,34.3-24.5c2.3,5.7-4.6,61.6-4.6,61.6s16.5-46.4,37.9-71.9
	c43.9-7.3,102.4-37.3,140.1-35.3c16,0.8,34.6,15.6,49.4,25.5c12.6,8.3,30.9,31,44.1,17.2c2.4-2.5-42.2-18.5-37.6-22.2
	c29.7-24,162.4-23.2,162.4-23.2l-67-8c0,0,44.1-30.8,69.2-18.3c25.1,12.5,39.6-1.9,59-1.9s3.4,50.2-1.1,74.2
	c-4.6,24-21.7,69.6-44.5,71.9c-22.8,2.3-76.5-36.5-83.3-39.9s28.5,33.1,35.4,49.1s-24,10.3-61.6,17.1
	c-37.7,6.8-119.8-69.6-119.8-69.6s0,0,10.3,22.8c10.3,22.8,90.1,39.9,75.3,65c-14.8,25.1-54.8,38.8-66.2,62.8
	c-11.4,24-38.8,41.1-38.8,41.1s34.2-10.3,42.2,2.3c8,12.6,10.3,97,1.1,99.3c-9.1,2.3-69.6-57.1-69.6-57.1s11.4,28.5,33.1,57.1
	c21.7,28.5,63.9,34.2,73,123.2s-1.9,154.2-1.9,154.2c-26.5-33.5-49.6-72.1-93.4-74.4c0,0,0.6,0,25.1,15.4
	c24.5,15.4,54.8,53.8,63.9,108.6s-2.3,105.4-60.5,138.4s-111.8,19.4-183.7-3.4c-71.9-22.8-93.6-37.7-127.8-66.2
	c-34.2-28.5-90.7-91.3-83.3-65c7.4,26.2,101.6,109,104.4,115.8s-8.6,33.1-8.6,33.1s-49.1-16-91.3-14.8s-79.3,12-83.3,5.7
	c-4-6.3-21.1-75.9-24-88.4c-2.3-9.9,18.8,3.1,34.7,10.6c4.2,2,8,3.6,10.9,4.3c14.3,3.4-31.9-31.9-51.9-58.2
	c-20-26.3-11.4-49.6-5.7-80.4c5.7-30.8,42.2-60.5,99.3-62.8c57.1-2.3,160.9,20.5,160.9,20.5c-58.2-31.9-157.5-44.5-157.5-44.5
	s73-19.4,159.8-13.7c86.7,5.7,182.6,29.7,182.6,29.7c-76.4-41.1-191.7-51.4-191.7-51.4s-1.1-22.8-2.3-31.9
	c-1.1-9.1,58.2,0,75.3-35.4c17.1-35.4,0-146.1-11.4-154.1c-11.4-8-81.6,17.7-81.6,17.7l18.8-82.7c0,0,26.2-28.5,42.2-52.5
	C6182.5,1733.4,6175.7,1664.9,6175.7,1664.9L6175.7,1664.9z"/>
<path class="st0" d="M5904,2345.3c-7-0.9-12.9,0.5-10,8.5c4.8,13.4,6,33.2,3.8,42.7c-5.8-21.8-12-47.2-13.6-54.4
	C5882.6,2335.2,5892.5,2339.5,5904,2345.3L5904,2345.3z"/>
<path class="st0" d="M6244.4,2132.3c-48.3-2.6-220.4-10.4-224.9-5c-5.1,6.3,6.9,12.6,13.7,13.7c2.4,0.4,9.7,2.6,18.3,5.6
	c-41-10.5-76.6-15-76.6-15s73-19.4,159.8-13.7C6172.4,2120.4,6211.8,2126.3,6244.4,2132.3L6244.4,2132.3z M6080.3,2166.2
	c-32.4,2.6-157-2.4-159.5,12.5c-2.9,17.1,17.1,47.4-8,67.3c-25.1,20-32,0-33.7,21.1c-1.1,13.3,7.5,34.9,14.1,49.1
	c-5.7-5.9-11.1-11.8-15.3-17.4c-20-26.3-11.4-49.6-5.7-80.4c5.7-30.8,42.2-60.5,99.3-62.8C6002,2154.4,6046,2160.3,6080.3,2166.2
	L6080.3,2166.2z"/>
<path class="st0" d="M6237.5,1684c-0.6-0.6-0.6-14.8-0.6-14.8s18.3,9.1,23.4,14.8c5.1,5.7,90.1,385.7,90.1,385.7s-24-21.7-39.9-50.2
	c-16-28.5-39.9-220.2-45.6-256.8C6259.1,1726.2,6237.5,1684,6237.5,1684L6237.5,1684z"/>
<path class="st0" d="M5901.6,2410.5c11.4-4.7,22.7-9.3,31.9-13.2c30.1-12.8,42.9-50.2,25.6-105c-17.4-54.8,36.5-32,88.5,0.9
	c52,32.9,288.5,107.7,244.6,58.4c-43.8-49.3,43.8-11.9,98.6-38.3c54.8-26.5-34.7-129.6-55.7-149.7c-11.9-11.4,4.7-5.7,21.3,1.3
	c3.2,1.9,9.5,5.8,21.9,13.6c24.5,15.4,54.8,53.8,63.9,108.6s-2.3,105.4-60.5,138.4c-58.2,33.1-111.8,19.4-183.7-3.4
	c-71.9-22.8-93.6-37.7-127.8-66.2c-34.2-28.5-90.7-91.3-83.3-65c7.4,26.2,101.6,109,104.4,115.8c2.9,6.8-8.6,33.1-8.6,33.1
	s-49.1-16-91.3-14.8c-42.2,1.1-79.3,12-83.3,5.7C5906.9,2428.7,5904.4,2420.8,5901.6,2410.5L5901.6,2410.5z"/>
<path class="st0" d="M6022.7,2426.6c12.6-3.3,23.7-8.7,28.1-18c11.9-24.6-73.9-101.3-69.4-128.7c4.6-27.4,100.4,72.1,162.5,102.2
	c62.1,30.1,217.3,46.6,209.1,14.6c-8.2-32,25.6,3.6,71.2-53.9c37.2-46.8-13.4-126.9-33.5-155.1c21.5,19,43.8,53.4,51.4,99.1
	c9.1,54.8-2.3,105.4-60.5,138.4c-58.2,33.1-111.8,19.4-183.7-3.4c-71.9-22.8-93.6-37.7-127.8-66.2c-34.2-28.5-90.7-91.3-83.3-65
	c7.4,26.2,101.6,109,104.4,115.8s-8.6,33.1-8.6,33.1S6054.6,2430.6,6022.7,2426.6L6022.7,2426.6z"/>
<path class="st0" d="M6069.7,2436c3.4-7,4.4-17.7-3.5-33.2c-8.5-16.6-21.4-37-31.8-53.2c26.9,27.3,55.3,53.4,56.9,57.1
	c2.9,6.8-8.6,33.1-8.6,33.1S6077.8,2438.1,6069.7,2436L6069.7,2436z M6065.2,2351.6c56.3,32.7,148.7,80.8,201,80.8
	c77.6,0,152.9-38,167.4-82.2c5.6-17.1,8.7-34.6,10.3-49.8c5.1,49.5-8.9,94.6-62.3,125c-58.2,33.1-111.8,19.4-183.7-3.4
	c-71.9-22.8-93.6-37.7-127.8-66.2C6068.6,2354.5,6066.9,2353.1,6065.2,2351.6L6065.2,2351.6z M6398.6,2195.5l-6.7-6l-1.2-1.7
	C6393.3,2190.2,6396,2192.7,6398.6,2195.5L6398.6,2195.5z"/>
<path class="st0" d="M6474.8,1602c-9.7,2.9-18.7,6.6-21.9,10.5c-5.1,6.3,1.4,11.7,7,15.5c-11.1-5.1-23-10.7-20.6-12.7
	C6446.4,1609.6,6459.2,1605.3,6474.8,1602L6474.8,1602z M6476.3,1638c1,1.8,0.1,5.8-8.1,7c-9.9,1.5-51.4-30.6-63.1-37.1
	c-11.8-6.5-16.7-11.8-24.7-13.3l0,0c1,0,2,0,3,0.1c16,0.8,34.6,15.6,49.5,25.5C6445.2,1628.4,6463.2,1650.5,6476.3,1638L6476.3,1638
	z"/>
<path class="st0" d="M6600.7,1591.9c0.9,0.1,1.6,0.2,2,0.3c5.9,1.1-33.3,4.4-42.2,4.4c-7,0-32.7,0-44.5-0.5c42.6-4.2,85.7-4,85.7-4
	L6600.7,1591.9L6600.7,1591.9z"/>
<path class="st0" d="M6609.3,1568.1c-15-0.7-39.5-0.8-48,6.2c-7.2,5.9-14,9-19.3,10.6l-7.2-0.9c0,0,44.1-30.8,69.2-18.3
	C6605.8,1566.7,6607.6,1567.5,6609.3,1568.1L6609.3,1568.1z"/>
<path class="st0" d="M6356.8,2163.3c-5.1-2.9-8.2-4.7-8.2-4.7s36.5,7.4,32-8.6c-4.6-16-45.6-55.9-54.8-139.2
	c-9.1-83.3-36.5-141.5-33.1-195.1c3.4-53.6,5.7-92.4,16-121s-5.7-5.7,29.7,10.3c35.4,16,58.2,14.8,42.2-22.8
	c-16-37.7-44.5-67.3-10.3-45.6c34.2,21.7,128.4,78.7,142.6,61.1c14.3-17.7,2.3-53.1,3.4-56.5s67.9,51.9,93,20
	c25.1-32,52.5-61.6,38.8-73c-8.9-7.4-17.7-12.4-18.2-17.4c11.5-1.4,21.4-6.7,33.1-6.7c19.4,0,3.4,50.2-1.1,74.2
	c-4.6,24-21.7,69.6-44.5,71.9c-22.8,2.3-76.5-36.5-83.3-39.9s28.5,33.1,35.4,49.1s-24,10.3-61.6,17.1
	c-37.7,6.8-119.8-69.6-119.8-69.6s0,0,10.3,22.8c10.3,22.8,90.1,39.9,75.3,65c-14.8,25.1-54.8,38.8-66.2,62.8
	c-11.4,24-38.8,41.1-38.8,41.1s34.2-10.3,42.2,2.3c8,12.6,10.3,97,1.1,99.3c-9.1,2.3-69.6-57.1-69.6-57.1s11.4,28.5,33.1,57.1
	c21.7,28.5,63.9,34.2,73,123.2s-1.9,154.2-1.9,154.2C6420.8,2204.7,6398.3,2167.4,6356.8,2163.3L6356.8,2163.3z"/>
<path class="st0" d="M6380.4,2169.8c9.3-3.4,22-9.2,8.6-41.2c-14.8-35.4-83.3-240.8-79.9-251.6c3.4-10.8,64.5,23.4,74.8,19.4
	s-34.2-28.5-53.6-39.4c-19.4-10.8,9.7-38.2,47.9-71.3s35.4-58.2,25.1-73.9c-10.3-15.7-19.1-42.8-16.8-50.8c2.3-8,93.6,59,127.8,58.2
	c34.2-0.8,14-48.8,16-56.5c2-7.7,45.9,35.4,86.1,26.8c19.9-4.2,34.9-27,44.9-48.9c-5.2,24.5-22,67.1-44,69.3
	c-22.8,2.3-76.5-36.5-83.3-39.9s28.5,33.1,35.4,49.1s-24,10.3-61.6,17.1c-37.7,6.8-119.8-69.6-119.8-69.6s0,0,10.3,22.8
	c10.3,22.8,90.1,39.9,75.3,65c-14.8,25.1-54.8,38.8-66.2,62.8c-11.4,24-38.8,41.1-38.8,41.1s34.2-10.3,42.2,2.3
	c8,12.6,10.3,97,1.1,99.3c-9.1,2.3-69.6-57.1-69.6-57.1s11.4,28.5,33.1,57.1c21.7,28.5,63.9,34.2,73,123.2s-1.9,154.2-1.9,154.2
	C6426.2,2211.5,6407.8,2182.8,6380.4,2169.8L6380.4,2169.8z"/>
<path class="st0" d="M6380.4,2169.8c8.5-3.1,19.9-8.3,11.5-33.6c2.8-6.2,4.2-11.8,2.9-15.3c-3.3-8.7-28.6-66.2-44.2-101.8
	c-3-9.1-6-18.2-8.9-27.2c7.7,7,25.5,28.6,32.6,42.3c9.9,19,36.5,67.7,37.3,37.3c0.8-30.4-40.7-97.4-56.7-128.6
	c-16-31.2-27-54-14.8-47.6c12.2,6.5,65.8,39.9,63.1,22.4c-2.7-17.5-1.5-54.8-14.8-54.8c-13.3,0-29.7,4.6-25.1-3.8
	c4.6-8.4,52.9-73,71.1-100c18.3-27-25.5-45.7-30.8-59.7c-0.6-1.7-1.3-3.3-1.8-4.9c18.4,20.3,85.5,36.7,71.8,59.9
	c-14.8,25.1-54.8,38.8-66.2,62.8c-11.4,24-38.8,41.1-38.8,41.1s34.2-10.3,42.2,2.3c8,12.6,10.3,97,1.1,99.3
	c-9.1,2.3-69.6-57.1-69.6-57.1s11.4,28.5,33.1,57.1c21.7,28.5,63.9,34.2,73,123.2s-1.9,154.2-1.9,154.2
	C6426.2,2211.5,6407.8,2182.8,6380.4,2169.8L6380.4,2169.8z M6423.7,1696.5c20.1,13.5,48.4,29.8,71.6,33.4
	c39.2,6.1,66.2-11,61.6-22.4c-2.9-7.2-8.6-15.9-10.5-20.4c8.9,10.7,19.6,24,23,32c6.9,16-24,10.3-61.6,17.1
	C6486.4,1740.1,6450.6,1717.1,6423.7,1696.5L6423.7,1696.5z M6573.9,1694.5c20.4,7.1,46.3,14.1,52.9,8c5.7-5.3,11.3-9.9,15.4-13
	c-7,11.2-15.5,19.6-24.9,20.5C6606.9,1711,6589.9,1703.4,6573.9,1694.5L6573.9,1694.5z"/>
<path class="st0" d="M6175.7,1664.9c1.1-1.7,32-30.2,34.3-24.5c2.3,5.7-4.6,61.6-4.6,61.6s16.5-46.4,37.9-71.9
	c36-6,81.9-27.3,118-33.6c-8.4,3.1-18.8,6.8-27.9,12.8c-18.3,12.2-81.4,57.8-86,76.1c-4.6,18.3-19.8,32-30.4,63.9
	c-10.7,32-27.4,45.6-27.4,80.6s25.9-7.6,50.2-22.8s0,16.7-18.3,62.4c-18.3,45.6,24.3,171.2-7.6,196.3c-32,25.1,0,19.8,51.7,31.9
	s59.3,48.7,59.3,52.5c0,1.7-8.2-1.1-22.3-5.9c9.2,2.1,14.5,3.4,14.5,3.4c-76.4-41.1-191.7-51.4-191.7-51.4s-1.1-22.8-2.3-31.9
	c-1.1-9.1,58.2,0,75.3-35.4c17.1-35.4,0-146.1-11.4-154.1c-11.4-8-81.6,17.7-81.6,17.7l18.8-82.7c0,0,26.2-28.5,42.2-52.5
	C6182.5,1733.4,6175.7,1664.9,6175.7,1664.9L6175.7,1664.9z"/>
<path class="st0" d="M6175.7,1664.9c1.1-1.7,32-30.2,34.2-24.5c1.6,4-1.3,32.5-3.1,49.3c-2.1,4.1-4.8,8.6-8.4,13.7
	c-13.7,19.2-11,36.5-25.6,63.9s-42,82.2-36.5,91.3s3.6,7.3,16.4,5.5c12.8-1.8,43.8-5.5,43.8,11.9c0,3.3-0.4,10.2-1,19.2
	c-2.8-10.8-5.8-18.3-8.4-20.2c-11.4-8-81.6,17.7-81.6,17.7l18.8-82.7c0,0,26.2-28.5,42.2-52.5
	C6182.5,1733.4,6175.7,1664.9,6175.7,1664.9L6175.7,1664.9z M6165.9,2053.5c-3.4,2.9-7,5.6-10.4,7.7c-16.4,10,8.2,24.6,42,34.7
	c33.8,10,77.6,23.7,85.8,31c4.3,3.8,8.5,7.4,11.5,9.9c-74.7-32.2-169.4-40.6-169.4-40.6s-1.1-22.8-2.3-31.9
	C6122.5,2058.7,6144.8,2060,6165.9,2053.5L6165.9,2053.5z"/>
<path class="st0" d="M6181.4,1891.4c-2.3-2.3-17.7-2.3-17.7-2.3s12,9.1,15.4,30.2c3.4,21.1-7.4,74.2-10.8,87.3
	c-3.4,13.1-52.5,28-56.5,30.2c-4,2.3-0.6,2.8-0.6,11.4s56.5-2.3,69.6-12c13.1-9.7,11.4-65,10.8-92.4
	C6191.1,1916.5,6192.8,1895.4,6181.4,1891.4L6181.4,1891.4z"/>
<path class="st0" d="M6156.9,1893.1c0-1.1,10.3,13.1,12.5,23.4c2.3,10.3-6.3,77-10.8,84.4c-4.6,7.4-63.9,34.8-74.7,29.7
	c-5.7-2.7-8.1-26.5-8.8-49.8c1.6,1.9,3.7,3.1,6,3.1c5.3,0,9.6-6.4,9.6-14.4s-4.3-14.4-9.6-14.4c-2.4,0-4.5,1.3-6.2,3.4
	c0.1-11.4,0.6-20.4,1.1-23.3c1.7-9.7,9.1-20.5,24-26.8C6114.7,1902.2,6152.3,1892.5,6156.9,1893.1L6156.9,1893.1z M6133.5,1942
	c5.3,0,9.6,6.4,9.6,14.4c0,7.9-4.3,14.4-9.6,14.4c-5.3,0-9.6-6.4-9.6-14.4C6123.9,1948.4,6128.2,1942,6133.5,1942L6133.5,1942z"/>
<path class="st0" d="M6084.3,1919.1c-1,6.9-4,28-2.9,32.9c0.2,0.9,0.3,2,0.4,3.3c-0.3,0-0.6-0.1-0.9-0.1c-2.4,0-4.5,1.3-6.2,3.4
	c0.1-11.4,0.6-20.4,1.1-23.3C6076.8,1929.9,6079.5,1924.2,6084.3,1919.1L6084.3,1919.1z M6080.9,1983.9c0.1,12,1.6,37.1,9.7,47
	l0.1,0.1c-3,0.4-5.3,0.3-6.8-0.4c-5.7-2.7-8.1-26.5-8.8-49.8C6076.6,1982.7,6078.7,1983.9,6080.9,1983.9L6080.9,1983.9z"/>
<path class="st0" d="M6156.9,1893.1c0-1.1,10.3,13.1,12.5,23.4c2.3,10.3-6.3,77-10.8,84.4c-3.2,5.2-33.4,20.2-54.8,27
	c-3.2-3,10.4-6.4,19.2-11.6c10.9-6.4,16-11.4,27.8-28.3c10.9-15.5,12.5-77.5,2.3-94.6C6154.9,1893.2,6156.2,1893,6156.9,1893.1
	L6156.9,1893.1z"/>
<path class="st0" d="M6684.7,1564.5c-0.4,0.3-3.3,1.7-3.6,2.7c-0.3,1,4.9,7.1,6,12.7s-2.6,14.6-2.6,14.6s-0.7-4.3-1.4-10.3
	s-5.9-11.1-5.9-11.1s1.1,14.8,1.1,29.1s-29.7,90.7-30.2,95.8c-0.6,5.1,5.1,6.9,10.8,7.4c5.7,0.6,17.1-6.8,21.7-11.4
	c4.6-4.6,25.7-59.3,22.8-79.9C6700.6,1593.6,6684.7,1564.5,6684.7,1564.5L6684.7,1564.5z"/>
<path class="st0" d="M6700.5,1601.3c0.1,1.3,0.4,2.9,1,5.2c4.6,17.1-8.6,59.3-18.3,73.6c-9.7,14.3,0.6-26.2-1.7-42.8
	c-2.3-16.5-5.7,35.9-17.1,43.9c-9.6,6.7,0.5-23.2,2.4-37.3c-8.4,24.7-18.3,51.1-18.6,54.1c-0.6,5.1,5.1,6.9,10.8,7.4
	c5.7,0.6,17.1-6.8,21.7-11.4c4.6-4.6,25.7-59.3,22.8-79.9C6702.9,1610.1,6701.9,1605.7,6700.5,1601.3L6700.5,1601.3z"/>
<path class="st0" d="M6679.1,1695.5c-2.5-1.8-6-2.8-11.1-1.3c-9.6,2.6-14.7-0.8-17.3-4.2c-1.5,4.3-2.4,7.2-2.5,8
	c-0.6,5.1,5.1,6.9,10.8,7.4C6664.1,1705.9,6673.8,1700,6679.1,1695.5L6679.1,1695.5z"/>
<path class="st0" d="M6098.6,2463.8c1.1,1.3-3.4,29.8-13.7,41.5s-87.9,66.1-124.4,62.2s-32-27.2-34.2-46.7
	c-2.3-19.4,26.3-19.4,38.8-33.7c12.5-14.3-34.2,9.1-39.9,2.6c-5.7-6.5-6.9-18.2-11.4-29.8c-4.6-11.7,24-15.6,85.6-14.3
	C6060.9,2447,6098.6,2463.8,6098.6,2463.8L6098.6,2463.8z"/>
<path class="st0" d="M5927.4,2448.7c-2.4,6.4-5.8,19.6,3.8,24.1c12.9,6.1,45.6-1.5,44.1,9.9s-28.5,15.6-33.8,39.2
	c-5.1,22.8,5.6,36.3,6.4,43c-22.8-7.5-19.7-27.3-21.7-44.1c-2.3-19.4,26.3-19.4,38.8-33.7c12.6-14.3-34.2,9.1-39.9,2.6
	c-5.7-6.5-6.9-18.2-11.4-29.8C5911.7,2454.7,5916.2,2451.1,5927.4,2448.7L5927.4,2448.7z"/>
<path class="st0" d="M6098.6,2463.8c1.1,1.3-3.4,29.8-13.7,41.5c-4.5,5.1-22.1,18.6-43.5,31.7c14.1-17.2,11.7-42.4-6.5-42.1
	c-20.5,0.4,0.9-8.7,17.3-23.7c13.6-12.4-62-20.5-91.2-25.5c10.9-0.3,23.7-0.3,38.3,0C6060.9,2447,6098.6,2463.8,6098.6,2463.8
	L6098.6,2463.8z M5967.8,2567.6c10.1-11.9,30.9-12.4,48.3-16.4C5998.9,2559.9,5981.5,2566.6,5967.8,2567.6L5967.8,2567.6z"/>
<path class="st0" d="M6098.6,2463.8c1.1,1.3-3.4,29.8-13.7,41.5c-1.7,1.9-5.3,5.1-10.2,8.9c4.9-11.9,11.3-31,6.8-41.1
	c-3.7-8.2-10.2-14.9-15.4-19.4C6086.9,2458.6,6098.6,2463.8,6098.6,2463.8L6098.6,2463.8z"/>
<path class="st0" d="M6696.5,1700.3c22.5-48.2,13.4-118.4,13.4-118.4s23.7-8.8,33.9-22s23.1-10.5,19.7,4.3
	c-3.4,14.8-23.4,22.6-12,20.5s51.9-39.4,60.5-47.3s25.1-11.4,20.5,12c-4.6,23.4-47.9,36.5-47.9,36.5s13.7,1.1,34.8-9.1
	c21.1-10.3,30.2-18.3,41.1-14.8c10.8,3.4,10.3,19.4-1.7,27.4c-12,8-53.6,20-57.6,20.5c-4,0.6,41.1-0.6,57.1-10.8
	c16-10.3,26.2-13.1,33.1-0.6c6.9,12.5-7.4,38.2-57,49.1s-99.9,21.1-99.9,21.1s30.2,24.5,35.9,40.5c5.7,16,5.7,28-20.5,26.8
	C6723.6,1734.8,6696.5,1700.3,6696.5,1700.3L6696.5,1700.3z"/>
<path class="st0" d="M6892.8,1602.8c-3.1-3.8-8.5-9.1-14.5-7.9c-9.1,1.8-15.9,6.3-14.2,0.5c12.7-7.2,21.2-7.9,27.2,3
	C6892.1,1599.8,6892.6,1601.2,6892.8,1602.8L6892.8,1602.8z"/>
<path class="st0" d="M6758,1551.5c-1.8,3.5-10.2,11.9-15.9,15.4c-4,2.4-8.3,4.1-11.8,4.8c5.1-3.3,10.1-7.2,13.6-11.7
	C6748.7,1553.8,6754,1551.1,6758,1551.5L6758,1551.5z"/>
<path class="st0" d="M6822.4,1531.7c-0.1,3.9-3.8,10-11.8,14.3c-9.6,5.3-42.5,35.6-46.1,34.5c-0.7-0.2-0.6-1.2-0.1-2.7
	c16.6-11.7,41.3-34.4,47.7-40.4C6815,1534.7,6818.8,1532.5,6822.4,1531.7L6822.4,1531.7z"/>
<path class="st0" d="M6860.4,1561.9c-3.5,1.1-11.2,3.7-16,6.8c-6.4,4.1-36.8,18.5-41.5,15.8c-0.4-0.2-0.4-0.6,0-1.2
	c4.8-1.4,10.4-3.4,16.7-6.5C6840.5,1566.6,6849.6,1558.6,6860.4,1561.9L6860.4,1561.9z"/>
<path class="st0" d="M6753.3,1584.3c-9,5.1-19.3,7.3-20.8,3.8c-1.8-4.1,15.1-11,13.7-14.4s1.1-3.9,7.5-5.3c4.4-1,6.8-10.1,7-16.1
	c2.9,1.7,4.3,5.7,2.9,11.9c-3.4,14.8-23.4,22.6-12,20.5C6752.1,1584.7,6752.7,1584.5,6753.3,1584.3L6753.3,1584.3z"/>
<path class="st0" d="M6793,1585.4c-8.1,2.7-15.6,4.8-19.2,4.3c-6.2-0.9-2.7-3.6,2.5-5.7c5.3-2,25.1-14.1,22.4-20.1
	c-2.7-5.9,16.7,3.6,24.9-7.3c6.4-8.6,4.5-20.4,2.8-25.1c0.8,0.1,1.5,0.3,2.1,0.6c0.9,0.8,2,1.7,3.1,2.6c1.8,2.8,2.4,7.4,1,14.7
	c-4.6,23.4-47.9,36.5-47.9,36.5S6787.7,1586.2,6793,1585.4L6793,1585.4z"/>
<path class="st0" d="M6696.5,1700.3c16.4-35.1,16-81.9,14.6-104.7c2.3,3.7,4.8,5.6,5.5,21.5c0.7,15.9,0.5,29.7,11.9,33.3
	c11.4,3.7,110.9-6.8,120-23.3c9.1-16.4-52.5-11.9-53.9-17.3c-2.4-9.6,65.3-11.8,69.4-46c6.9,5.5,5.1,18.5-5.3,25.5
	c-12,8-53.6,20-57.6,20.5c-3.9,0.6,38.2-0.5,55.4-9.8c1.8,14.1,21,25.8,33.8,11.2c0.7-0.8,1.4-1.5,2.1-2.1
	c-3,13.1-20.3,30.1-58.2,38.4c-49.6,10.8-99.9,21.1-99.9,21.1s30.2,24.5,35.9,40.5c5.7,16,5.7,28-20.5,26.8
	C6723.6,1734.8,6696.5,1700.3,6696.5,1700.3L6696.5,1700.3z"/>
<path class="st0" d="M6696.5,1700.3c11.8-25.2,14.9-56.5,15.2-80.5c2.1,12.9,4.4,31.2,2.3,42.1c-3.4,18.3-12,34.2,6.3,45.7
	c18.3,11.4,40.5-3.4,28-16.6c-12.6-13.1-27.4-24-17.7-26.8c9.7-2.9,107.3-17.7,126.1-29.7c10.3-6.5,17.9-8.2,23.1-6.9
	c-9.4,7.9-24.2,15.3-45.5,19.9c-49.6,10.8-99.9,21.1-99.9,21.1s30.2,24.5,35.9,40.5c5.7,16,5.7,28-20.5,26.8
	C6723.6,1734.8,6696.5,1700.3,6696.5,1700.3L6696.5,1700.3z"/>
<path class="st0" d="M6696.5,1700.3c0.5-1,1-2.1,1.4-3.1c6.4,8.2,20.6,23.3,41.1,26.6c20,3.2,27.3-5.6,32.6-10.7
	c4.2,14,2.2,23.9-21.8,22.9C6723.6,1734.8,6696.5,1700.3,6696.5,1700.3L6696.5,1700.3z"/>
<path class="st0" d="M6099.4,2510.5c31.9,61.6,176,60.5,90.2,159.7c-36.5,42.2-46.8,107.3-97,133.5c-50.2,26.2-69.6,0-71.9-35.4
	c-2.3-35.4,21.7-108.4,21.7-108.4c41.1-10.3,59.3-54.8,59.3-54.8c-11.4,16-59.3,36.5-67.3,34.2c-8-2.3-38.8-41.1-47.9-53.6
	c-9.1-12.5-3.4,0,22.8-11.4S6099.4,2510.5,6099.4,2510.5L6099.4,2510.5z"/>
<path class="st0" d="M6099.4,2510.5c19,36.7,78,51.2,104.3,77.9c10,45.2-101.3,190.9-93.5,161.2s-0.3-61.2-37.4-61.2
	s-40.4,12.7-44.1,20.7c6.2-26.3,13.7-49.2,13.7-49.2c35.4-8.8,53.8-43,58.3-52.4c12-13.4,20.9-25,20.9-25s-25.6,21-52.9,35.6
	c-19.9,10.6-35,13.5-44.6,12.9c-12.5-12.7-30.9-36.1-37.6-45.3c-9.1-12.5-3.4,0,22.8-11.4S6099.4,2510.5,6099.4,2510.5
	L6099.4,2510.5z"/>
<path class="st0" d="M6099.4,2510.5c19,36.7,78,51.2,104.3,77.9c3.3,15.1-6.9,41.4-21.7,68.7c-9.6,1.8-1-17.8,7.2-35.4
	c9.9-21.3-17.5-46.4-47.9-49.4s-28.1,9.1-19-6.9s-32.7-22.1-55.5-0.8c-15.4,14.4-47,27-71.8,32.3c-3.5-4.5-6.5-8.4-8.5-11.1
	c-9.1-12.5-3.4,0,22.8-11.4S6099.4,2510.5,6099.4,2510.5L6099.4,2510.5z"/>
<path class="st0" d="M6394.4,2459.1c-115.3,9.1-213.4-14.8-221.4-28.5c-8-13.7,8,73,11.4,87.9c3.4,14.8,4.6,21.7,35.4,53.6
	c30.8,32,6.8,62.8,2.3,69.6c-4.6,6.8-5.7,55.9,17.1,103.8c22.8,47.9,192.9,87.9,210,79.9c17.1-8,44.5-149.5,47.9-175.7
	c3.4-26.3-89-45.6-97-41.1c-8,4.6-3.4,46.8-5.7,53.6c-2.3,6.8-19.4-35.4-13.7-82.2C6386.4,2533.3,6394.4,2459.1,6394.4,2459.1
	L6394.4,2459.1z"/>
<path class="st0" d="M6293.9,2786.6c15.2-3.3,27.8-12,31.6-27.6c6.4-26.5-53.9-73-19.2-79.4c34.7-6.4-8.2-71.2-47.5-112.3
	c-30.6-32-61.2-55.2-77.5-64.7c1.4,7.2,2.5,12.9,3.2,15.9c3.4,14.8,4.6,21.7,35.4,53.6c30.8,32,6.8,62.8,2.3,69.6
	c-4.6,6.8-5.7,55.9,17.1,103.8C6246.3,2760.4,6267.5,2774.5,6293.9,2786.6L6293.9,2786.6z"/>
<path class="st0" d="M6394.4,2459.1c-115.3,9.1-213.4-14.8-221.4-28.5c-5.7-9.8,0.9,32.1,6.3,62c45.8,16.6,113.5,47,145.5,76.6
	c47.5,43.8,29.2,104.1,54.8,133.3s14.6-42,38.3-16.4c23.7,25.6,34.7,93.1-73,107.7c-8.6,1.2-16,2.7-22.3,4.6
	c54.5,20,116.6,31.7,126.5,27c17.1-8,44.5-149.5,47.9-175.7c3.4-26.3-89-45.6-97-41.1c-8,4.6-3.4,46.8-5.7,53.6
	c-2.3,6.8-19.4-35.4-13.7-82.2C6386.4,2533.3,6394.4,2459.1,6394.4,2459.1L6394.4,2459.1z"/>
<path class="st0" d="M6394.4,2459.1c-115.3,9.1-213.4-14.8-221.4-28.5c-3.6-6.1-2.4,7.7,0.4,26.2c39.9,9.3,181.1,39.1,189.1,81.7
	c9.1,48.7,15.6,119.1,27,132.8c11.4,13.7,18.3-11.4,25.9-44.1c7.6-32.7,63.9,44.9,63.1,93.6c-0.2,10.8-0.9,21.3-2,31.1
	c10.2-41.7,18.8-88.2,20.6-102.1c3.4-26.3-89-45.6-97-41.1c-8,4.6-3.4,46.8-5.7,53.6c-2.3,6.8-19.4-35.4-13.7-82.2
	C6386.4,2533.3,6394.4,2459.1,6394.4,2459.1L6394.4,2459.1z"/>
<path class="st0" d="M6523.4,2663.4c13.7-9.1,36.5,28.5,37.7,43.4c1.1,14.8,12.6-1.1,27.4,2.3c14.8,3.4,14.8,87.9-5.7,132.4
	s-47.9,49.1-59.3,44.5c-11.4-4.6-6.8-19.4-17.1-8s-28.5-12.6-41.1-30.8c-12.6-18.3,26.3-44.5,47.9-74.2
	C6534.8,2743.3,6523.4,2663.4,6523.4,2663.4L6523.4,2663.4z"/>
<path class="st0" d="M6523.4,2663.4c13.7-9.1,36.5,28.5,37.6,43.4c1.1,14.8,12.6-1.1,27.4,2.3c14.8,3.4,14.8,87.9-5.7,132.4
	c-2.1,4.5-4.3,8.7-6.5,12.4c0.2-2,0.4-4,0.6-6.2c4.6-42-14.6-19.2-31.9-8.2c-17.4,10.9,0-21.9,7.3-56.6
	c7.3-34.7-17.3-23.7-26.5,11.9c-7.9,30.8-26,48.6-52.6,63.5c-2.8-3.7-5.5-7.5-7.9-11.1c-12.6-18.3,26.3-44.5,47.9-74.2
	C6534.8,2743.3,6523.4,2663.4,6523.4,2663.4L6523.4,2663.4z"/>
<path class="st0" d="M6523.4,2663.4c13.7-9.1,36.5,28.5,37.7,43.4c1.1,14.8,12.6-1.1,27.4,2.3c11.2,2.6,13.9,51.3,5.8,94.1
	c-0.9-34.8-2.4-76.2-12.2-74.8c-16,2.3-16,48.7-22.1,18.3c-6.1-30.4-20.5-54.8-20.5-31.2c0,23.3-23.7,75.4-42.6,76.8
	c5.8-6.2,11.5-12.7,16.3-19.3C6534.8,2743.3,6523.4,2663.4,6523.4,2663.4L6523.4,2663.4z"/>
<path class="st0" d="M6622.7,2738.7c1.1-2.3,11.4-4.6,27.4-6.8c16-2.3,63.9-26.2,77.6-24c13.7,2.3,20.5,20.5,27.4,52.5
	s86.7,97,68.5,155.2c-18.3,58.2-54.8,38.8-75.3,28.5c-20.5-10.3-55.9-51.4-55.9-51.4c5.7-46.8-30.8-82.2-30.8-82.2
	c11.4,20.5,12.6,67.3,6.9,74.2c-5.7,6.8-71.9-4.6-71.9-4.6s0-24,9.1-44.5S6622.7,2738.7,6622.7,2738.7L6622.7,2738.7z"/>
<path class="st0" d="M6622.7,2738.7c1.1-2.3,11.4-4.6,27.4-6.9c12.9-1.8,46.4-17.7,66.2-22.7c3.5,18.2,13.6,60.7,34.1,79.1
	c26.5,23.7,53.9,93.1,46.6,110.5c-7.3,17.3-27.4-45.6-70.3-21c-17.7,10.2-23.1,19.4-23.4,27.1c-6.6-7-10.9-12.1-10.9-12.1
	c5.7-46.8-30.8-82.2-30.8-82.2c11.4,20.5,12.6,67.3,6.9,74.2c-5.7,6.8-71.9-4.6-71.9-4.6s0-24,9.1-44.5S6622.7,2738.7,6622.7,2738.7
	L6622.7,2738.7z"/>
<path class="st0" d="M6622.7,2738.7c1.1-2.3,11.4-4.6,27.3-6.8c12.9-1.8,46.4-17.7,66.2-22.7c3.5,18.2,13.6,60.7,34.1,79.1
	c10,9,20.1,24.4,28.5,41.2c-17.9-23-46.4-59.2-58.3-72.2c-17.5-19-18.3-18.3-46.4-12.2c-28.1,6.1-39.6,8.4-44.9,36.5
	c-0.6,3.4-1.5,7.1-2.6,11c-5,27.7-5.1,54.3,5.9,57.6c15.4,4.6,29.1-6.9,24-21.1c-5.1-14.3-21.7-30.2-4.6-30.8
	c17.1-0.6,42.2,46.8,46.8,82.2c1,7.7,1.4,14.8,1.5,21.1c-4.8-5.3-7.9-8.8-7.9-8.8c5.7-46.8-30.8-82.2-30.8-82.2
	c11.4,20.5,12.6,67.3,6.9,74.2c-5.7,6.8-71.9-4.6-71.9-4.6s0-14.4,4.3-30.4l0.1-0.2l0.1-0.4l0.1-0.2l0.1-0.2l0.1-0.2l0-0.1l0-0.2
	l0.1-0.2l0.1-0.2l0.1-0.2l0-0.1l0-0.1l0.1-0.2l0.1-0.2l0.1-0.2l0.1-0.2l0,0l0.1-0.2l0.1-0.2l0.1-0.2l0.1-0.2l0-0.1l0-0.1l0.1-0.2
	l0.1-0.2l0.1-0.2l0.1-0.2l0,0l0.1-0.4l0.1-0.2l0.1-0.2l0-0.1l0-0.1l0.3-0.9v0l0,0l0.1-0.2l0.1-0.2l0.1-0.2l0.1-0.2l0-0.1l0.1-0.4
	l0.1-0.2l0.1-0.2l0.1-0.2l0-0.1l0.1-0.2l0.2-0.4l0.1-0.2l0-0.1l0.1-0.2l0.1-0.2l0.1-0.2l0.1-0.2l0.1-0.1l0-0.1l0.1-0.2l0.3-0.7l0,0
	l0.1-0.2l0.3-0.6l0-0.1l0-0.1l0.4-0.9c0.1-0.3,0.3-0.6,0.4-0.9l0.1-0.3l0.4-0.9l0,0l0-0.1l0.4-1l0.1-0.2l0.3-1l0.1-0.2
	c0.3-0.8,0.5-1.6,0.8-2.4l0.1-0.3l0.4-1.2l0-0.1l0.3-0.9l0.1-0.2l0.2-0.6l0.1-0.2l0.3-1.1l0,0l0.4-1.4l0.1-0.4l0.3-1.1l0.1-0.4
	l0-0.2l0.3-1.2l0.1-0.4l0.1-0.3l0.3-1.2l0.1-0.3l0.1-0.3l0.3-1.2l0-0.2l0.2-1l0.2-0.8l0.1-0.5l0.3-1.3l0-0.1l0.3-1.2l0.1-0.7
	l0.1-0.6l0.3-1.3l0-0.1l0.4-1.9l0.2-0.8l0.2-1.2l0-0.2c0.2-1.3,0.4-2.5,0.7-3.8v0l0.1-0.4l0.2-1.4l0-0.2l0.2-1.2l0.1-0.9l0.1-0.6
	l0.2-1.4l0-0.1l0.2-1.4l0.1-0.7l0.3-2.1l0-0.1l0.2-1.4l0.1-0.5l0.1-0.9l0.2-1.2l0-0.3l0.2-1.4l0.1-0.4l0.2-1.1l0.1-1l0.1-0.4
	l0.4-2.8l0.1-0.8l0.1-0.6l0.2-1.4l0-0.1l0.2-1.3l0.1-0.6l0.1-0.7l0.2-1.2l0-0.1l0.2-1.3l0.1-0.5l0.1-0.9l0.1-1.1l0-0.3l0.2-1.3
	l0-0.3l0.1-1l0.1-0.9l0.1-0.4l0.2-1.2l0-0.2l0.1-1.1l0.1-0.7l0.1-0.5l0.1-1.2v0l0.1-1.1l0.1-0.5l0.1-0.6
	C6621.9,2745.9,6622.7,2738.7,6622.7,2738.7L6622.7,2738.7z"/>
<polygon class="st0" points="6448.1,1819 6441.2,1856.6 6533.7,1854.3 6528,1753.9 "/>
<path class="st0" d="M6547.4,1889.7l-101-1.2l0.6,78.7c6.9,57.4,33.2,98,28.5,195.1l136.1,0.9l0.3-115.8l-57.1,0.3L6547.4,1889.7
	L6547.4,1889.7z M6519.6,2075.2c19.1,0,34.5,15.5,34.5,34.5s-15.5,34.5-34.5,34.5s-34.5-15.5-34.5-34.5S6500.6,2075.2,6519.6,2075.2
	L6519.6,2075.2z M6507.7,1973.1c19.1,0,34.5,15.5,34.5,34.5c0,19.1-15.5,34.5-34.5,34.5s-34.5-15.5-34.5-34.5
	S6488.6,1973.1,6507.7,1973.1L6507.7,1973.1z"/>
<path class="st0" d="M6547.4,1889.7l-101-1.2l0.6,78.7c6.9,57.4,33.2,98,28.5,195.1l136.1,0.9l0.1-40.1
	c-6.7,4.5-14.4,10.2-23.7,10.5c-17.6,0.7-30.1-6.5-33.9-25.7c0,0.6,0,1.1,0,1.7c0,19.1-15.5,34.5-34.5,34.5
	c-19.1,0-34.5-15.5-34.5-34.5s15.5-34.5,34.5-34.5c16.4,0,30.1,11.4,33.6,26.7c-0.1-1.5-0.2-3-0.3-4.6c-0.8-27.4-42.6-28.9-43.4-35
	c-0.5-4.3-1.1-14.5,1.3-20.3c-1.1,0.1-2.2,0.2-3.3,0.2c-19.1,0-34.5-15.5-34.5-34.5s15.5-34.5,34.5-34.5c17.4,0,31.7,12.8,34.1,29.5
	c0.1-2.3,0.1-4.8-0.2-7.3c-3-25.9-28.9-29.7-28.9-29.7l37.2-21.9L6547.4,1889.7L6547.4,1889.7z"/>
<path class="st0" d="M6612.4,2171.6c0.6,0.6-15.4,0-15.4,0l-53.1,63.9l17.7,1.1L6612.4,2171.6L6612.4,2171.6z"/>
<path class="st0" d="M6580.4,2173.9c0.6-0.6-12-2.3-12-2.3l-49.1,57.1l16.5,1.1L6580.4,2173.9L6580.4,2173.9z"/>
<path class="st0" d="M6546.8,2176.7c0.6-1.7-13.1-1.1-13.1-1.1l-34.2,43.4l6.9,4.6C6506.3,2223.5,6543.4,2179,6546.8,2176.7
	L6546.8,2176.7z"/>
<path class="st0" d="M6515.4,2177.3c0.6-1.1-12-1.1-12-1.1l-22.3,25.7l10.3,9.1L6515.4,2177.3L6515.4,2177.3z"/>
<path class="st0" d="M6551.3,1766.5l34.8,18.8l20,214.5l-42.8-0.6L6551.3,1766.5L6551.3,1766.5z M6579.8,1870.4
	c4.7,0,8.6,3.8,8.6,8.6s-3.8,8.6-8.6,8.6s-8.6-3.8-8.6-8.6C6571.3,1874.2,6575.1,1870.4,6579.8,1870.4L6579.8,1870.4z
	 M6579.8,1910.9c4.7,0,8.6,3.8,8.6,8.6s-3.8,8.6-8.6,8.6s-8.6-3.8-8.6-8.6C6571.3,1914.7,6575.1,1910.9,6579.8,1910.9L6579.8,1910.9
	z M6582.1,1955.4c4.7,0,8.6,3.8,8.6,8.6s-3.8,8.6-8.6,8.6s-8.6-3.8-8.6-8.6C6573.6,1959.2,6577.4,1955.4,6582.1,1955.4
	L6582.1,1955.4z"/>
<path class="st0" d="M6551.3,1766.5l34.8,18.8l11.7,125.8l-9.5,8.1c-0.1-4.6-3.9-8.4-8.6-8.4c-4.7,0-8.6,3.8-8.6,8.6
	c0,4.2,3,7.7,7.1,8.4l-17.9,15.4L6551.3,1766.5L6551.3,1766.5z M6579.8,1870.4c4.7,0,8.6,3.8,8.6,8.6s-3.8,8.6-8.6,8.6
	s-8.6-3.8-8.6-8.6C6571.3,1874.2,6575.1,1870.4,6579.8,1870.4L6579.8,1870.4z"/>
<path class="st0" d="M6600.4,2010.7c-0.3,0.6-0.6,5.7-0.6,5.7h-34l0.6-6L6600.4,2010.7L6600.4,2010.7z"/>
<path class="st0" d="M6600.7,2022.4c-0.9,0-0.9,7.4-0.8,7.4l-32.2,0.6l-0.6-8.3L6600.7,2022.4L6600.7,2022.4z"/>
<path class="st0" d="M6604.4,1822.7c5.1-2.3,20.5,3.4,25.1,5.7c4.6,2.3,2.9,32.5,6.9,39.9c4,7.4,3.4-21.7,5.1-33.7s26.8-8,30.2-2.3
	s-16.5,116.4-19.4,119.8c-2.9,3.4-37.7,4-37.7-1.7C6614.7,1944.8,6604.4,1822.7,6604.4,1822.7L6604.4,1822.7z"/>
<path class="st0" d="M6606.1,1842.6c0.5,0.2,1,0.4,1.5,0.6c0,0,25.6,58.9,37.4,46.1c11.9-12.8,14.2-30.6,16.9-19.2
	c2.2,9.4-2.9,20.9,1.5,29c-4.7,26.7-9.7,51.5-11,53.1c-2.9,3.4-37.7,4-37.7-1.7C6614.7,1946.2,6609,1877.5,6606.1,1842.6
	L6606.1,1842.6z"/>
<path class="st0" d="M6604.4,1822.7c5.1-2.3,20.5,3.4,25.1,5.7c2,1,2.8,7.6,3.4,15.2c-0.4-0.1-0.8-0.2-1.2-0.4
	c-4.3-1.8-2.7-4.1-6.9-10.5c-3.1-4.9-13.7-6.3-20.2-6.5L6604.4,1822.7L6604.4,1822.7z M6672.1,1836c-1.5-0.6-3.5-1.3-6.2-2.1
	c-9.6-2.9-19.4-0.8-24.6,1.8l0.1-0.9c1.7-12,26.8-8,30.2-2.3C6672,1832.9,6672.1,1834.1,6672.1,1836L6672.1,1836z"/>
<path class="st0" d="M6703.1,1847.8c-1.1,0-7.4,4-7.4,4s-2.8-0.6-4.6-8c-1.7-7.4-8.6-5.7-8.6-5.7s-25.7,110.7-24.5,121.5
	s9.7,4,13.7,4c4,0,14.8-4.6,18.3-35.9S6703.1,1852.9,6703.1,1847.8L6703.1,1847.8z"/>
<path class="st0" d="M6693.3,1903.5c-7.3,2.9-18.1,5.4-25.4,0.5c-5.5,26-10.4,50.8-9.9,55.7c1.1,10.8,9.7,4,13.7,4
	c4,0,14.8-4.6,18.3-35.9C6690.8,1920.1,6692,1911.8,6693.3,1903.5L6693.3,1903.5z"/>
<path class="st0" d="M6703.1,1847.8c-1.1,0-7.4,4-7.4,4s-2.9-0.6-4.6-8c-1.7-7.4-8.6-5.7-8.6-5.7l-1.2,5.2c1.2,0.4,2.6,1.3,4,3.8
	c3.4,6.2,5.3,13.5,10.3,11.2c3.8-1.7,5.1-1.9,6.6-4C6702.8,1851,6703.1,1848.7,6703.1,1847.8L6703.1,1847.8z"/>
<path class="st0" d="M6705.4,1938.5c0.6-0.3,14.8-93,14.8-93s24-8.8,37.9-28.2s24.5-28,33.6-28.8c9.1-0.9,16.6,12,9.2,26.2
	s-45.6,34.8-45.6,34.8c-0.1,1.7,4.3,3.1,11.1-0.1c23.2-11.1,49-35.5,61.4-46.4c19.7-17.5,23.7,18.8,8.6,33.4
	c-17.7,17.1-57.6,39.9-57.6,39.9s10.2-2.6,19.3-4.9c2-0.5,6.1-3,11.4-6.5c18.5-12.3,51.7-37.5,64.6-37.1
	c16.5,0.6,6.8,30.2-22.8,49.1c-29.7,18.8-43.6,14.6-45.6,14.6c-2,0-10,1.4,0.9,4.6c10.8,3.1,47.6-4.8,64.2-7.1
	c16.5-2.3,24.5,7.4,14.8,24c-9.7,16.5-50.2,11.7-67.3,11.1c-17.1-0.6-31.7-3.7-34.2-4.6c-2.6-0.9-5.4-2.3-3.7,4
	c1.7,6.3,23.4,33.4,30,42.2c6.6,8.8-5.1,24-16.8,27.7c-11.7,3.7-40-30.8-51.4-45.1C6730.5,1933.9,6712.8,1935.7,6705.4,1938.5
	L6705.4,1938.5z"/>
<path class="st0" d="M6791.2,1788.5c-4.1,4.1-11.4,10.9-18.9,20.4c-8.8,11.2-18.3,18.9-26.3,21.2c4.4-3.6,8.6-7.9,12.2-12.9
	C6771.8,1798.3,6782.2,1789.7,6791.2,1788.5L6791.2,1788.5z"/>
<path class="st0" d="M6783,1839.6c-2.1,1.9-4.2,3.5-6.2,4.9c-13.2,9.6-25.1,13.7-29.2,7.3c-4.1-6.4,17.8-14.2,32.9-23.7
	c11.6-7.3,15.3-29,16.5-38.6c6.3,3.3,9.9,13.8,4,25.2c-7.4,14.3-45.6,34.8-45.6,34.8c-0.1,1.7,4.3,3.1,11.1-0.1
	C6771.8,1846.8,6777.5,1843.4,6783,1839.6L6783,1839.6z"/>
<path class="st0" d="M6799.9,1870.7c-11.7,6.6-23.9,11.3-30.8,10.4c-10-1.4-0.9-3.2,4.6-6.8s29.2-19.6,28.8-26.9
	c-0.5-7.3,8.2-5,19.2-8.2c8.9-2.6,19.3-26.8,20-39c6.5,6.1,5.1,26.3-5.2,36.3c-17.7,17.1-57.6,39.9-57.6,39.9s10.2-2.6,19.3-4.9
	C6798.5,1871.3,6799.1,1871,6799.9,1870.7L6799.9,1870.7z"/>
<path class="st0" d="M6857.4,1891c-36.6,15.6-66,6.6-68.2-1.3c-2.3-8.2,28.3-2.7,58.9-20.5c23.2-13.5,27.7-32.2,27-41.3
	c15,1.8,5.1,30.6-23.9,49c-29.7,18.8-43.6,14.6-45.6,14.6c-2,0-10,1.4,0.9,4.6C6814.9,1898.5,6839.3,1894.1,6857.4,1891L6857.4,1891
	z"/>
<path class="st0" d="M6705.4,1938.5c0.2-0.1,2.5-14.3,5.3-31.6c9.1,8.3,22.8,19.2,33.3,11.6c16.4-11.9,56.2-8.7,71.2-5.5
	c14.3,3,61.4,3.2,74.4-12.7c-0.1,3.5-1.4,7.8-4.2,12.6c-9.7,16.5-50.2,11.7-67.3,11.1c-17.1-0.6-31.7-3.7-34.2-4.6
	c-2.6-0.9-5.4-2.3-3.7,4c1.7,6.3,23.4,33.4,30,42.2c6.6,8.8-5.1,24-16.8,27.7c-11.7,3.7-40-30.8-51.4-45.1
	C6730.5,1933.9,6712.8,1935.7,6705.4,1938.5L6705.4,1938.5z"/>
<path class="st0" d="M6217.3,1629.2c0.6-1.1-9.1-20-9.1-20s36.5-6.3,79.9-17.1s85.2-46.6,131.4-44.9c46.2,1.7,72.8,40.9,72.8,40.9
	l-13.1,10.3c0,0-22.3-21.1-51.9-28.5c-29.7-7.4-77.6,20.5-135.8,45.1C6233.2,1639.4,6217.3,1629.2,6217.3,1629.2L6217.3,1629.2z"/>
<path class="st0" d="M6152.5,1560.5c-8.3-0.6-19.1,25.1-19.1,25.1s57.4,1.4,107.3,87.9c50.5,87.5,36.9,220.8,78.1,332.8
	c20.4,55.5,48.5,121.2,95.4,176.2c86.7,101.5,146.9,98.4,173.7,102.4c26.8,4,105.5,2.3,107.5-16.3s-12.3-21.1-12.3-21.1
	c-226.6,89.8-357.3-236.5-374.3-416.5c-5.7-60.5-10.3-109.6-52.5-180.3C6214.1,1579.9,6152.5,1560.5,6152.5,1560.5L6152.5,1560.5z"
	/>
<path class="st0" d="M6131.7,1550.2c0.3,0.6,4.3,31.1,3.7,32.8c-0.6,1.7,14,5.1,14,5.1s2.8-19.1,3.1-24.8
	S6131.7,1550.2,6131.7,1550.2L6131.7,1550.2z"/>
<path class="st0" d="M6131.7,1550.2c0.1,0.1,0.4,2,0.7,4.8c0.5,0.2,1.1,0.4,1.9,0.5c2.7,0.4,13.3,8.7,17.7,12.6
	c0.2-2,0.4-3.7,0.4-4.8C6152.8,1557.6,6131.7,1550.2,6131.7,1550.2L6131.7,1550.2z"/>
<path class="st0" d="M6677.5,2256.1c-52.3,31.1-139,15.1-209.7-41.9c-67.7-54.6-147.5-202.7-159.7-313.1
	c-12.8-116.7-7.9-253.9-147.7-332.1l-1.9,11.3c143.3,67.9,121.4,223.2,147.8,351.5c16,77.6,65.6,178,82.8,205.4
	s67.9,106.1,157.5,133.5c89.6,27.4,139.5,2.9,139.5,2.9s-2.9-0.6-8-6.6S6677.5,2256.1,6677.5,2256.1L6677.5,2256.1z"/>
<path class="st0" d="M6536.8,1744.1c-1.7-1.1,21.4-6.6,21.4-6.6s65.3,151.2,138.9,229.9c73.6,78.7,157.5,90.7,157.5,90.7
	c3.4,14.3-5.7,19.5-5.7,19.5c-34.2-6.8-106.1-24.7-176.9-105.7S6536.8,1744.1,6536.8,1744.1L6536.8,1744.1z"/>
<path class="st0" d="M6233.6,1610.2c0.3,0.6,7.4,11.7,7.4,11.7s60.5-15.4,78.4-23.4c18-8,56.2-31.6,94.4-36.1
	c38.2-4.6,65.9,31.3,65.9,31.3l10.3-3c0,0-39.6-40-71.9-38.6c-32.2,1.4-77.9,28.2-107.5,39.4
	C6281,1602.5,6233.6,1610.2,6233.6,1610.2L6233.6,1610.2z"/>
<path class="st0" d="M6555.1,1742.8c-0.9-0.6-8.8,4-8.8,4l60.5,120.4c0,0,55.9,106.1,128.4,154.1c72.5,47.9,113,50.5,113,50.5
	l3.4-8.6c0,0-11.7,3.7-65.3-23.1c-53.6-26.8-99.3-71.9-139.2-126.1C6607.1,1859.8,6555.1,1742.8,6555.1,1742.8L6555.1,1742.8z"/>
<path class="st0" d="M6019.1,1881.9c-31.5-5.2-94.4-22.7-132.5-80.3l-6.8,3.2c37.7,79.9,139.8,92.4,139.8,92.4L6019.1,1881.9
	L6019.1,1881.9z"/>
<path class="st0" d="M6018.2,1851.8c-28.4-7.6-75.8-25.6-100.3-65.2l-16,7.6c10,18,40.9,59.4,117.1,74.6L6018.2,1851.8
	L6018.2,1851.8z"/>
<path class="st0" d="M6016.7,1799.6c-44.5-11.4-54.2-34.2-54.2-34.2l-27.1,12.9c9,12.2,34.9,41.2,82.2,51.6L6016.7,1799.6
	L6016.7,1799.6z"/>
<path class="st0" d="M6519.6,2082.6c15,0,27.1,12.1,27.1,27.1s-12.1,27.1-27.1,27.1c-15,0-27.1-12.1-27.1-27.1
	S6504.7,2082.6,6519.6,2082.6L6519.6,2082.6z M6519.6,2098.6c6.1,0,11.1,5,11.1,11.1s-5,11.1-11.1,11.1c-6.1,0-11.1-5-11.1-11.1
	S6513.5,2098.6,6519.6,2098.6L6519.6,2098.6z"/>
<path class="st0" d="M6507.7,1980.5c15,0,27.1,12.1,27.1,27.1s-12.1,27.1-27.1,27.1c-15,0-27.1-12.1-27.1-27.1
	S6492.7,1980.5,6507.7,1980.5L6507.7,1980.5z M6507.7,1996.5c6.1,0,11.1,5,11.1,11.1s-5,11.1-11.1,11.1c-6.1,0-11.1-5-11.1-11.1
	S6501.5,1996.5,6507.7,1996.5L6507.7,1996.5z"/>
<path class="st0" d="M6648.6,2077.2c-2.7-0.7-15.7-2.4-14.7,4.4c1,6.8,8.7,4,8.7,4s0.3,3.3,0,4.6s-24.3,0.7-24.3,0.7l0.9-23.4
	c0,0,12-1.7,20,0.9C6647.2,2070.9,6648.6,2074.9,6648.6,2077.2L6648.6,2077.2z"/>
<path class="st0" d="M6013.1,1719.9c2.6,2.4,6.2,3.9,10,3.9c8.2,0,14.9-6.7,14.9-14.9c0-5.2-2.6-9.7-6.6-12.4c3,2.7,4.9,6.7,4.9,11
	c0,8.2-6.7,14.9-14.9,14.9C6018.3,1722.4,6015.5,1721.5,6013.1,1719.9L6013.1,1719.9z"/>
<path class="st0" d="M6137.1,2145.9c-32.9-0.9-17.3,10.9,27.4,23.7c44.7,12.8,139.7,76.7,181.7,99.5c42,22.8,31-19.2-12.8-66.6
	C6289.5,2155.1,6180.9,2145,6137.1,2145.9L6137.1,2145.9z"/>
<path class="st0" d="M6269.4,2255.5c35.6,18.3,57.5,45.6,1.8,33.8c-55.7-11.9-3.6,20.1-19.2,52s-244.7-73-294-116.9
	s101.3,1.8,144.2,3.6s0.9-14.6-50.2-40.2S6260.3,2243.6,6269.4,2255.5L6269.4,2255.5z"/>
<path class="st0" d="M6259.3,1823.2c11.9,21.9,12.8,135.1,11.9,157.9c-0.9,22.8,38.3,92.2,61.2,102.2c22.8,10.1,15.5,32.9,10,46.6
	c-5.5,13.7-22.8-19.2-55.7-39.3c-32.9-20.1-42.9-15.5-40.2-41.1c2.7-25.6-3.6-85.8-13.7-130.5S6250.1,1834.2,6259.3,1823.2
	L6259.3,1823.2z"/>
<path class="st0" d="M6375.6,1615.7c-15.4-12-4.6-8.6,17.7-2.9c22.3,5.7,78.2,42.2,98.7,47.9s9.7,24-17.1,20
	C6448,1676.7,6381.8,1628.2,6375.6,1615.7L6375.6,1615.7z"/>
<path class="st0" d="M6626.6,1603.7c-16-5.7-41.1,1.7-24.5,12.6s-91.9-2.8-102.1-2.8s61,27.9,77,34.2
	C6592.9,1653.9,6618,1631.7,6626.6,1603.7L6626.6,1603.7z"/>
<path class="st0" d="M6341.8,1647.8c-16.4-11.4-1.1,4.6,0.4,19.4s-27.8-12.9-46-16.7c-18.3-3.8,55.5,49.4,69.2,51
	C6379.1,1703,6352.9,1661.9,6341.8,1647.8L6341.8,1647.8z"/>
<path class="st0" d="M6022.7,2782.4c14.4,18.5,36.7,2,61.9-9.8c19.1-8.9,62.3-68.3,93.2-117.5c30.9-49.2,26.1-53.7,26.4-66.2
	c17.3,18,19.7,41.7-14.6,81.3c-36.5,42.2-46.8,107.3-97,133.5C6049.3,2826.4,6028.9,2810,6022.7,2782.4L6022.7,2782.4z"/>
<path class="st0" d="M6033.7,2724.1c0,17.1,5.3,40.6,15.6,32.4c10.3-8.2,36.9-12.2,35.8-4.1c-1.1,8.1-33.1,35.4-51.3,29.5
	C6015.5,2776,6033.7,2724.1,6033.7,2724.1L6033.7,2724.1z"/>
<path class="st0" d="M6728,1627.5c1.1-1.8-0.5-17.6-6.6-29.4c-6.2-11.9-1.6-14.6,2.3-11.6c3.9,3,21.2,14.6,28.8,15.3
	c7.5,0.7,8.4-4.1,19.4,0.2c11,4.3-15.3,6.8-6.6,15.3c8.7,8.4,67.6,1.4,68.7,9.1c1.1,7.8-76.2,21-89,18.9
	C6732.1,1643.3,6730.2,1637.8,6728,1627.5L6728,1627.5z"/>
<path class="st0" d="M6767.5,2952.6c37.8-9,40.6-74,0.5-135.2c-41.1-62.8-42.2-64.5-47.4-85.6c-2.5-10.2-6.4-16.9-9.8-21.1
	c7.2-2.2,13.2-3.4,16.8-2.8c13.7,2.3,20.5,20.5,27.4,52.5s86.7,97,68.5,155.2C6810.1,2958.2,6787,2959.2,6767.5,2952.6
	L6767.5,2952.6z"/>
<path class="st0" d="M6867.7,1833.1c0.9,4.6-47,39.3-56.1,39.3c-9.1,0-2.3-3.7,8.2-11.4S6867.7,1833.1,6867.7,1833.1L6867.7,1833.1z
	"/>
<path class="st0" d="M6834.8,1805.8c-0.4-4.8-39.1,28.3-51.1,37.1c-4.8,3.5-14.2,7.8,3.8,1.8
	C6802.6,1839.6,6834.8,1805.8,6834.8,1805.8L6834.8,1805.8z"/>
<path class="st0" d="M6861.3,1895.7c5,5.5,25.6,6.4,25.6,1.4S6865.4,1893.9,6861.3,1895.7L6861.3,1895.7z"/>
<path class="st0" d="M6724.9,1864c1.1-1.1,4-17.1,8.6-10.8c4.6,6.3,12,20.5,23.4,17.7c11.4-2.8-2.9,8.6-8.6,20.5s16,5.7,22.8,6.8
	s-16.5,5.7-23.4,9.1c-6.8,3.4-14.3,2.9-25.1-1.7C6711.7,1901.1,6724.3,1877.7,6724.9,1864L6724.9,1864z"/>
</svg>
