<?xml version="1.0" encoding="utf-8"?>
<!-- Generator: Adobe Illustrator 23.1.0, SVG Export Plug-In . SVG Version: 6.00 Build 0)  -->
<svg version="1.1" id="Capa_1" xmlns="http://www.w3.org/2000/svg" xmlns:xlink="http://www.w3.org/1999/xlink" x="0px" y="0px"
	 viewBox="0 0 7680 4320" style="enable-background:new 0 0 7680 4320;" xml:space="preserve">
<style type="text/css">
	.st0{filter:url(#Adobe_OpacityMaskFilter);}
	.st1{clip-path:url(#SVGID_2_);fill:url(#SVGID_4_);}
	.st2{clip-path:url(#SVGID_2_);mask:url(#SVGID_3_);fill:url(#SVGID_5_);}
	.st3{filter:url(#Adobe_OpacityMaskFilter_1_);}
	.st4{clip-path:url(#SVGID_7_);fill:url(#SVGID_9_);}
	.st5{clip-path:url(#SVGID_7_);mask:url(#SVGID_8_);fill:url(#SVGID_10_);}
	.st6{filter:url(#Adobe_OpacityMaskFilter_2_);}
	.st7{clip-path:url(#SVGID_12_);fill:url(#SVGID_14_);}
	.st8{clip-path:url(#SVGID_12_);mask:url(#SVGID_13_);fill:url(#SVGID_15_);}
	.st9{filter:url(#Adobe_OpacityMaskFilter_3_);}
	.st10{clip-path:url(#SVGID_17_);fill:url(#SVGID_19_);}
	.st11{clip-path:url(#SVGID_17_);mask:url(#SVGID_18_);fill:url(#SVGID_20_);}
	.st12{filter:url(#Adobe_OpacityMaskFilter_4_);}
	.st13{clip-path:url(#SVGID_22_);fill:url(#SVGID_24_);}
	.st14{clip-path:url(#SVGID_22_);mask:url(#SVGID_23_);fill:url(#SVGID_25_);}
	.st15{filter:url(#Adobe_OpacityMaskFilter_5_);}
	.st16{clip-path:url(#SVGID_27_);fill:url(#SVGID_29_);}
	.st17{clip-path:url(#SVGID_27_);mask:url(#SVGID_28_);fill:url(#SVGID_30_);}
	.st18{filter:url(#Adobe_OpacityMaskFilter_6_);}
	.st19{clip-path:url(#SVGID_32_);fill:url(#SVGID_34_);}
	.st20{clip-path:url(#SVGID_32_);mask:url(#SVGID_33_);fill:url(#SVGID_35_);}
	.st21{filter:url(#Adobe_OpacityMaskFilter_7_);}
	.st22{clip-path:url(#SVGID_37_);fill:url(#SVGID_39_);}
	.st23{clip-path:url(#SVGID_37_);mask:url(#SVGID_38_);fill:url(#SVGID_40_);}
	.st24{filter:url(#Adobe_OpacityMaskFilter_8_);}
	.st25{clip-path:url(#SVGID_42_);fill:url(#SVGID_44_);}
	.st26{clip-path:url(#SVGID_42_);mask:url(#SVGID_43_);fill:url(#SVGID_45_);}
	.st27{filter:url(#Adobe_OpacityMaskFilter_9_);}
	.st28{clip-path:url(#SVGID_47_);fill:url(#SVGID_49_);}
	.st29{clip-path:url(#SVGID_47_);mask:url(#SVGID_48_);fill:url(#SVGID_50_);}
</style>
<g>
	<defs>
		<path id="SVGID_1_" d="M2389.72,1795.84l-10.44,9.08l-20.87,18.16c-13.85,12.17-27.68,24.36-41.44,36.62
			c-13.81,12.21-27.48,24.56-41.22,36.84l-41.03,37.04c-54.58,49.52-108.67,99.53-162.49,149.83
			c-53.87,50.24-107.23,101.01-160.51,151.86l-79.58,76.63l-39.62,38.48l-19.81,19.24l-4.95,4.81c-1.7,1.55-2.97,3.54-3.72,6.08
			c-0.72,2.55-0.99,5.58-0.5,9.37c0.04,0.45,0.12,0.94,0.21,1.45l0.26,1.5c0.26,1.09,0.45,2.11,0.8,3.3
			c0.27,1.1,0.78,2.44,1.18,3.68l0.32,0.95l0.43,1.05c0.28,0.7,0.55,1.39,0.92,2.18c0.78,0.39,1.46,0.68,2.16,0.98l1.04,0.45
			l0.94,0.35c1.23,0.44,2.56,0.97,3.65,1.27c1.18,0.38,2.19,0.6,3.27,0.88l1.49,0.29c0.5,0.1,1,0.2,1.44,0.24
			c3.78,0.58,6.81,0.39,9.38-0.27c2.55-0.68,4.57-1.91,6.17-3.56l4.93-4.83l19.72-19.33l39.45-38.66l78.56-77.66
			c52.14-52.01,104.22-104.1,155.78-156.71c51.61-52.56,102.94-105.41,153.79-158.75l38.05-40.1c12.61-13.44,25.3-26.8,37.85-40.3
			c12.6-13.45,25.12-26.98,37.63-40.52l18.67-20.41l9.33-10.21l9.26-10.28L2389.72,1795.84z"/>
	</defs>
	<clipPath id="SVGID_2_">
		<use xlink:href="#SVGID_1_"  style="overflow:visible;"/>
	</clipPath>
	<defs>
		<filter id="Adobe_OpacityMaskFilter" filterUnits="userSpaceOnUse" x="1763.05" y="1786.83" width="637.18" height="622.19">
			<feColorMatrix  type="matrix" values="1 0 0 0 0  0 1 0 0 0  0 0 1 0 0  0 0 0 1 0"/>
		</filter>
	</defs>
	<mask maskUnits="userSpaceOnUse" x="1763.05" y="1786.83" width="637.18" height="622.19" id="SVGID_3_">
		<g class="st0">
			
				<linearGradient id="SVGID_4_" gradientUnits="userSpaceOnUse" x1="0.6003" y1="4320.9927" x2="1.6003" y2="4320.9927" gradientTransform="matrix(662.0259 0 0 -662.0259 1355.5326 2862706.75)">
				<stop  offset="0" style="stop-color:#FFFFFF"/>
				<stop  offset="1" style="stop-color:#333333"/>
			</linearGradient>
			<rect x="1763.05" y="1786.83" class="st1" width="637.18" height="622.19"/>
		</g>
	</mask>
	
		<linearGradient id="SVGID_5_" gradientUnits="userSpaceOnUse" x1="0.6003" y1="4320.9927" x2="1.6003" y2="4320.9927" gradientTransform="matrix(662.0259 0 0 -662.0259 1355.5326 2862706.75)">
		<stop  offset="0" style="stop-color:#8F2D6B"/>
		<stop  offset="1" style="stop-color:#BF3078"/>
	</linearGradient>
	<rect x="1763.05" y="1786.83" class="st2" width="637.18" height="622.19"/>
</g>
<g>
	<defs>
		<path id="SVGID_6_" d="M1200.23,1393.46c-8.12,6.66-16.1,13.46-24.15,20.18l-23.95,20.39c-31.81,27.31-63.15,55.11-94.2,83.2
			c-31.09,28.05-61.76,56.53-92.22,85.23c-15.2,14.38-30.36,28.8-45.44,43.3l-22.57,21.8l-11.25,10.93l-2.81,2.73
			c-0.98,0.87-1.56,2.15-1.58,4c-0.01,0.92,0.1,1.97,0.36,3.18c0.11,0.59,0.33,1.27,0.53,1.94c0.16,0.64,0.48,1.42,0.74,2.16
			c0.12,0.36,0.3,0.77,0.47,1.19l0.52,1.24l1.37,2.81c0.94,1.9,2.24,4.17,3.88,6.79c2.57,1.7,4.81,3.06,6.69,4.05l2.78,1.44
			l1.23,0.56c0.41,0.19,0.82,0.37,1.18,0.5c0.73,0.28,1.52,0.62,2.15,0.8c0.67,0.21,1.35,0.45,1.93,0.58
			c1.2,0.29,2.24,0.43,3.17,0.44c1.85,0.02,3.15-0.52,4.04-1.48l2.8-2.75l11.21-10.98l22.35-22.02
			c14.87-14.71,29.67-29.51,44.41-44.36c29.44-29.74,58.67-59.7,87.48-90.09c28.85-30.35,57.41-60.99,85.5-92.12l20.97-23.44
			c6.92-7.88,13.92-15.69,20.77-23.65c13.79-15.83,27.45-31.78,40.75-48.11C1232.68,1366.8,1216.4,1380.07,1200.23,1393.46"/>
	</defs>
	<clipPath id="SVGID_7_">
		<use xlink:href="#SVGID_6_"  style="overflow:visible;"/>
	</clipPath>
	<defs>
		<filter id="Adobe_OpacityMaskFilter_1_" filterUnits="userSpaceOnUse" x="882.04" y="1353.91" width="367.29" height="359.01">
			<feColorMatrix  type="matrix" values="1 0 0 0 0  0 1 0 0 0  0 0 1 0 0  0 0 0 1 0"/>
		</filter>
	</defs>
	<mask maskUnits="userSpaceOnUse" x="882.04" y="1353.91" width="367.29" height="359.01" id="SVGID_8_">
		<g class="st3">
			
				<linearGradient id="SVGID_9_" gradientUnits="userSpaceOnUse" x1="0.3194" y1="4320.9873" x2="1.3195" y2="4320.9873" gradientTransform="matrix(388.852 0 0 -388.852 750.9922 1681758.125)">
				<stop  offset="0" style="stop-color:#FFFFFF"/>
				<stop  offset="1" style="stop-color:#333333"/>
			</linearGradient>
			<rect x="882.04" y="1353.91" class="st4" width="367.29" height="359.01"/>
		</g>
	</mask>
	
		<linearGradient id="SVGID_10_" gradientUnits="userSpaceOnUse" x1="0.3194" y1="4320.9873" x2="1.3195" y2="4320.9873" gradientTransform="matrix(388.852 0 0 -388.852 750.9922 1681758.125)">
		<stop  offset="0" style="stop-color:#8F2D6B"/>
		<stop  offset="1" style="stop-color:#BF3078"/>
	</linearGradient>
	<rect x="882.04" y="1353.91" class="st5" width="367.29" height="359.01"/>
</g>
<g>
	<defs>
		<path id="SVGID_11_" d="M2355.03,1043.17c-11.47,8.41-22.82,16.98-34.23,25.47l-34.05,25.69
			c-45.28,34.38-90.13,69.29-134.71,104.51c-44.64,35.16-88.79,70.88-132.89,106.68l-32.93,27.02
			c-10.96,9.03-21.99,17.97-32.89,27.07l-32.76,27.22l-16.38,13.61l-4.1,3.4c-1.41,1.09-2.43,2.62-2.95,4.77
			c-0.52,2.14-0.61,4.81-0.01,8.29c0.05,0.41,0.15,0.87,0.25,1.33l0.29,1.39c0.28,1.02,0.49,1.97,0.85,3.09
			c0.29,1.03,0.79,2.33,1.2,3.51l0.33,0.91l0.42,1.02c0.28,0.68,0.54,1.34,0.9,2.12c0.7,0.49,1.31,0.87,1.93,1.26l0.93,0.59
			l0.84,0.48c1.09,0.61,2.27,1.33,3.24,1.8c1.04,0.56,1.94,0.94,2.9,1.39l1.31,0.53c0.44,0.18,0.88,0.36,1.27,0.48
			c3.32,1.2,5.96,1.59,8.16,1.46c2.21-0.13,3.9-0.87,5.22-2.06l4.07-3.43l16.3-13.71l32.6-27.42c10.88-9.12,21.64-18.39,32.47-27.57
			l32.43-27.63c43.05-37.05,86.03-74.19,128.54-111.89c42.56-37.64,84.86-75.59,126.72-114.06l31.31-28.96
			c10.37-9.73,20.81-19.38,31.13-29.18c20.7-19.52,41.28-39.17,61.52-59.23C2400.9,1009.49,2377.91,1026.26,2355.03,1043.17"/>
	</defs>
	<clipPath id="SVGID_12_">
		<use xlink:href="#SVGID_11_"  style="overflow:visible;"/>
	</clipPath>
	<defs>
		<filter id="Adobe_OpacityMaskFilter_2_" filterUnits="userSpaceOnUse" x="1896.53" y="993.12" width="527.69" height="445.27">
			<feColorMatrix  type="matrix" values="1 0 0 0 0  0 1 0 0 0  0 0 1 0 0  0 0 0 1 0"/>
		</filter>
	</defs>
	<mask maskUnits="userSpaceOnUse" x="1896.53" y="993.12" width="527.69" height="445.27" id="SVGID_13_">
		<g class="st6">
			
				<linearGradient id="SVGID_14_" gradientUnits="userSpaceOnUse" x1="0.5188" y1="4320.9912" x2="1.5188" y2="4320.9912" gradientTransform="matrix(549.9115 0 0 -549.9115 1602.5614 2377378.5)">
				<stop  offset="0" style="stop-color:#FFFFFF"/>
				<stop  offset="1" style="stop-color:#333333"/>
			</linearGradient>
			<rect x="1896.53" y="993.12" class="st7" width="527.69" height="445.27"/>
		</g>
	</mask>
	
		<linearGradient id="SVGID_15_" gradientUnits="userSpaceOnUse" x1="0.5188" y1="4320.9912" x2="1.5188" y2="4320.9912" gradientTransform="matrix(549.9115 0 0 -549.9115 1602.5614 2377378.5)">
		<stop  offset="0" style="stop-color:#8F2D6B"/>
		<stop  offset="1" style="stop-color:#BF3078"/>
	</linearGradient>
	<rect x="1896.53" y="993.12" class="st8" width="527.69" height="445.27"/>
</g>
<g>
	<defs>
		<path id="SVGID_16_" d="M2005.72,852.98l-10.44,9.08l-20.87,18.16c-13.85,12.17-27.68,24.36-41.44,36.62
			c-13.81,12.21-27.48,24.56-41.22,36.84l-41.02,37.05c-54.58,49.52-108.68,99.53-162.49,149.82
			c-53.87,50.24-107.23,101.01-160.51,151.86l-79.58,76.62l-39.63,38.48l-19.81,19.24l-4.95,4.81c-1.7,1.55-2.98,3.54-3.72,6.08
			c-0.72,2.55-0.99,5.58-0.5,9.37c0.03,0.45,0.12,0.95,0.21,1.45l0.26,1.5c0.26,1.09,0.45,2.11,0.8,3.3
			c0.27,1.1,0.78,2.44,1.18,3.68l0.32,0.95l0.43,1.05c0.28,0.7,0.55,1.39,0.92,2.18c0.78,0.39,1.46,0.68,2.16,0.98l1.04,0.45
			l0.94,0.35c1.23,0.43,2.56,0.97,3.65,1.27c1.18,0.38,2.19,0.6,3.28,0.88l1.49,0.29c0.5,0.1,1,0.2,1.44,0.24
			c3.78,0.58,6.81,0.39,9.38-0.27c2.55-0.68,4.57-1.91,6.17-3.57l4.93-4.83l19.72-19.33l39.45-38.66l78.57-77.66
			c52.14-52.01,104.22-104.1,155.77-156.71c51.61-52.56,102.94-105.41,153.79-158.75l38.05-40.1c12.61-13.44,25.3-26.8,37.85-40.3
			c12.6-13.45,25.12-26.98,37.63-40.52l18.67-20.41l9.33-10.21l9.26-10.28L2005.72,852.98z"/>
	</defs>
	<clipPath id="SVGID_17_">
		<use xlink:href="#SVGID_16_"  style="overflow:visible;"/>
	</clipPath>
	<defs>
		<filter id="Adobe_OpacityMaskFilter_3_" filterUnits="userSpaceOnUse" x="1379.05" y="843.97" width="637.17" height="622.19">
			<feColorMatrix  type="matrix" values="1 0 0 0 0  0 1 0 0 0  0 0 1 0 0  0 0 0 1 0"/>
		</filter>
	</defs>
	<mask maskUnits="userSpaceOnUse" x="1379.05" y="843.97" width="637.17" height="622.19" id="SVGID_18_">
		<g class="st9">
			
				<linearGradient id="SVGID_19_" gradientUnits="userSpaceOnUse" x1="0.6003" y1="4320.9927" x2="1.6003" y2="4320.9927" gradientTransform="matrix(662.0259 0 0 -662.0259 971.5326 2861764)">
				<stop  offset="0" style="stop-color:#FFFFFF"/>
				<stop  offset="1" style="stop-color:#333333"/>
			</linearGradient>
			<rect x="1379.05" y="843.97" class="st10" width="637.17" height="622.19"/>
		</g>
	</mask>
	
		<linearGradient id="SVGID_20_" gradientUnits="userSpaceOnUse" x1="0.6003" y1="4320.9927" x2="1.6003" y2="4320.9927" gradientTransform="matrix(662.0259 0 0 -662.0259 971.5326 2861764)">
		<stop  offset="0" style="stop-color:#8F2D6B"/>
		<stop  offset="1" style="stop-color:#BF3078"/>
	</linearGradient>
	<rect x="1379.05" y="843.97" class="st11" width="637.17" height="622.19"/>
</g>
<g>
	<defs>
		<path id="SVGID_21_" d="M5726.66,1940.46l-10.44,9.08l-20.87,18.16c-13.85,12.17-27.68,24.36-41.44,36.62
			c-13.81,12.21-27.48,24.56-41.22,36.84l-41.03,37.05c-54.58,49.52-108.68,99.53-162.5,149.82
			c-53.87,50.24-107.23,101.01-160.51,151.86l-79.58,76.62l-39.62,38.48l-19.81,19.24l-4.95,4.81c-1.7,1.56-2.98,3.54-3.72,6.08
			c-0.72,2.55-0.99,5.58-0.5,9.37c0.04,0.45,0.12,0.95,0.21,1.45l0.26,1.5c0.26,1.09,0.45,2.11,0.8,3.3
			c0.27,1.1,0.77,2.44,1.18,3.68l0.32,0.95l0.43,1.05c0.28,0.7,0.55,1.39,0.92,2.18c0.79,0.39,1.46,0.68,2.16,0.98l1.04,0.45
			l0.94,0.35c1.23,0.44,2.56,0.98,3.65,1.27c1.18,0.38,2.19,0.6,3.28,0.88l1.49,0.29c0.5,0.1,1,0.2,1.45,0.24
			c3.78,0.58,6.81,0.39,9.38-0.27c2.55-0.68,4.57-1.91,6.17-3.57l4.93-4.83l19.72-19.33l39.44-38.66l78.57-77.66
			c52.14-52.01,104.22-104.1,155.77-156.71c51.61-52.56,102.94-105.41,153.79-158.75l38.04-40.1c12.61-13.43,25.3-26.8,37.85-40.3
			c12.59-13.46,25.12-26.98,37.63-40.53l18.67-20.41l9.33-10.21l9.26-10.28L5726.66,1940.46z"/>
	</defs>
	<clipPath id="SVGID_22_">
		<use xlink:href="#SVGID_21_"  style="overflow:visible;"/>
	</clipPath>
	<defs>
		<filter id="Adobe_OpacityMaskFilter_4_" filterUnits="userSpaceOnUse" x="5099.99" y="1931.46" width="637.18" height="622.19">
			<feColorMatrix  type="matrix" values="1 0 0 0 0  0 1 0 0 0  0 0 1 0 0  0 0 0 1 0"/>
		</filter>
	</defs>
	<mask maskUnits="userSpaceOnUse" x="5099.99" y="1931.46" width="637.18" height="622.19" id="SVGID_23_">
		<g class="st12">
			
				<linearGradient id="SVGID_24_" gradientUnits="userSpaceOnUse" x1="0.6003" y1="4320.9927" x2="1.6003" y2="4320.9927" gradientTransform="matrix(662.0259 0 0 -662.0259 4692.4766 2862851.5)">
				<stop  offset="0" style="stop-color:#FFFFFF"/>
				<stop  offset="1" style="stop-color:#333333"/>
			</linearGradient>
			<rect x="5099.99" y="1931.46" class="st13" width="637.18" height="622.19"/>
		</g>
	</mask>
	
		<linearGradient id="SVGID_25_" gradientUnits="userSpaceOnUse" x1="0.6003" y1="4320.9927" x2="1.6003" y2="4320.9927" gradientTransform="matrix(662.0259 0 0 -662.0259 4692.4771 2862851.5)">
		<stop  offset="0" style="stop-color:#8F2D6B"/>
		<stop  offset="1" style="stop-color:#BF3078"/>
	</linearGradient>
	<rect x="5099.99" y="1931.46" class="st14" width="637.18" height="622.19"/>
</g>
<g>
	<defs>
		<path id="SVGID_26_" d="M6784.76,1427.41l-13.76,12.32l-27.52,24.65c-18.28,16.5-36.55,33.01-54.75,49.6
			c-18.24,16.54-36.35,33.22-54.53,49.82l-54.33,50.03c-72.32,66.83-144.16,134.15-215.72,201.75
			c-71.62,67.55-142.71,135.64-213.74,203.79l-106.19,102.59l-52.93,51.46l-26.46,25.73l-6.62,6.43c-2.25,2.1-4.08,4.62-5.38,7.7
			c-1.28,3.09-2.08,6.68-2.18,10.99c-0.04,1.06,0.04,2.25,0.06,3.37c0.12,1.22,0.17,2.38,0.39,3.7c0.09,0.64,0.17,1.28,0.31,1.98
			c0.13,0.68,0.24,1.35,0.42,2.08l0.25,1.08l0.32,1.15c0.21,0.77,0.41,1.52,0.71,2.38c0.85,0.32,1.6,0.54,2.37,0.77l1.15,0.35
			l1.07,0.27c0.73,0.2,1.39,0.33,2.07,0.47c0.69,0.16,1.33,0.26,1.97,0.36c1.32,0.25,2.47,0.33,3.69,0.48
			c1.12,0.05,2.3,0.16,3.36,0.14c4.31,0.01,7.91-0.7,11.03-1.9c3.11-1.22,5.68-2.99,7.83-5.19l6.59-6.46l26.38-25.82l52.75-51.65
			l105.18-103.63c69.89-69.32,139.7-138.72,209-208.64c69.35-69.87,138.43-140.03,207.02-210.68l51.35-53.08
			c17.05-17.76,34.17-35.45,51.15-53.28c17.03-17.78,33.99-35.64,50.94-53.51l25.32-26.9l12.66-13.45l12.59-13.52L6784.76,1427.41z"
			/>
	</defs>
	<clipPath id="SVGID_27_">
		<use xlink:href="#SVGID_26_"  style="overflow:visible;"/>
	</clipPath>
	<defs>
		<filter id="Adobe_OpacityMaskFilter_5_" filterUnits="userSpaceOnUse" x="5950.59" y="1415.16" width="848" height="827.73">
			<feColorMatrix  type="matrix" values="1 0 0 0 0  0 1 0 0 0  0 0 1 0 0  0 0 0 1 0"/>
		</filter>
	</defs>
	<mask maskUnits="userSpaceOnUse" x="5950.59" y="1415.16" width="848" height="827.73" id="SVGID_28_">
		<g class="st15">
			
				<linearGradient id="SVGID_29_" gradientUnits="userSpaceOnUse" x1="0.6975" y1="4320.9946" x2="1.6975" y2="4320.9946" gradientTransform="matrix(874.944 0 0 -874.944 5328.0591 3782457.25)">
				<stop  offset="0" style="stop-color:#FFFFFF"/>
				<stop  offset="1" style="stop-color:#333333"/>
			</linearGradient>
			<rect x="5950.59" y="1415.16" class="st16" width="848" height="827.73"/>
		</g>
	</mask>
	
		<linearGradient id="SVGID_30_" gradientUnits="userSpaceOnUse" x1="0.6975" y1="4320.9946" x2="1.6975" y2="4320.9946" gradientTransform="matrix(874.944 0 0 -874.944 5328.0591 3782457.25)">
		<stop  offset="0" style="stop-color:#8F2D6B"/>
		<stop  offset="1" style="stop-color:#BF3078"/>
	</linearGradient>
	<rect x="5950.59" y="1415.16" class="st17" width="848" height="827.73"/>
</g>
<g>
	<defs>
		<path id="SVGID_31_" d="M5870.9,968.52c-7.58,6.14-15.02,12.41-22.54,18.61l-22.34,18.81c-29.66,25.21-58.84,50.91-87.75,76.9
			c-28.94,25.95-57.46,52.33-85.77,78.93c-14.13,13.32-28.21,26.69-42.21,40.15l-20.96,20.23l-10.45,10.15l-2.61,2.54
			c-0.92,0.8-1.42,2.02-1.37,3.8c0.02,0.89,0.16,1.91,0.46,3.08c0.13,0.57,0.36,1.24,0.58,1.9c0.18,0.62,0.51,1.39,0.79,2.12
			c0.13,0.35,0.31,0.75,0.5,1.16l0.55,1.21l1.42,2.76c0.97,1.87,2.31,4.11,3.98,6.69c2.54,1.73,4.75,3.13,6.59,4.15l2.73,1.49
			l1.2,0.58c0.41,0.2,0.81,0.39,1.15,0.53c0.72,0.3,1.48,0.65,2.1,0.84c0.65,0.23,1.31,0.48,1.88,0.62
			c1.16,0.32,2.18,0.49,3.06,0.53c1.79,0.09,3.02-0.38,3.84-1.28l2.6-2.55l10.4-10.19l20.74-20.45
			c13.8-13.66,27.52-27.41,41.19-41.21c27.29-27.64,54.37-55.5,81.03-83.79c26.69-28.25,53.11-56.79,79.04-85.82l19.36-21.87
			c6.39-7.36,12.84-14.65,19.16-22.07c12.71-14.78,25.3-29.68,37.52-44.96C5901.2,943.96,5885.99,956.17,5870.9,968.52"/>
	</defs>
	<clipPath id="SVGID_32_">
		<use xlink:href="#SVGID_31_"  style="overflow:visible;"/>
	</clipPath>
	<defs>
		<filter id="Adobe_OpacityMaskFilter_6_" filterUnits="userSpaceOnUse" x="5574.86" y="932.12" width="341.91" height="334.29">
			<feColorMatrix  type="matrix" values="1 0 0 0 0  0 1 0 0 0  0 0 1 0 0  0 0 0 1 0"/>
		</filter>
	</defs>
	<mask maskUnits="userSpaceOnUse" x="5574.86" y="932.12" width="341.91" height="334.29" id="SVGID_33_">
		<g class="st18">
			
				<linearGradient id="SVGID_34_" gradientUnits="userSpaceOnUse" x1="0.2711" y1="4320.9868" x2="1.2711" y2="4320.9868" gradientTransform="matrix(363.0364 0 0 -363.0364 5470.064 1569774.875)">
				<stop  offset="0" style="stop-color:#FFFFFF"/>
				<stop  offset="1" style="stop-color:#333333"/>
			</linearGradient>
			<rect x="5574.86" y="932.12" class="st19" width="341.91" height="334.29"/>
		</g>
	</mask>
	
		<linearGradient id="SVGID_35_" gradientUnits="userSpaceOnUse" x1="0.2711" y1="4320.9868" x2="1.2711" y2="4320.9868" gradientTransform="matrix(363.0365 0 0 -363.0365 5470.0635 1569775)">
		<stop  offset="0" style="stop-color:#8F2D6B"/>
		<stop  offset="1" style="stop-color:#BF3078"/>
	</linearGradient>
	<rect x="5574.86" y="932.12" class="st20" width="341.91" height="334.29"/>
</g>
<g>
	<defs>
		<path id="SVGID_36_" d="M5572.69,32.29l-10.44,9.08l-20.87,18.16c-13.85,12.17-27.68,24.36-41.44,36.62
			c-13.81,12.21-27.48,24.56-41.22,36.84l-41.03,37.04c-54.58,49.52-108.67,99.53-162.49,149.83
			c-53.87,50.24-107.23,101.01-160.51,151.86l-79.58,76.62l-39.62,38.48l-19.81,19.24l-4.95,4.81c-1.7,1.55-2.98,3.54-3.72,6.08
			c-0.72,2.55-0.99,5.58-0.5,9.37c0.03,0.45,0.12,0.95,0.21,1.45l0.26,1.5c0.26,1.09,0.45,2.11,0.8,3.3
			c0.27,1.1,0.77,2.44,1.18,3.68l0.32,0.95l0.43,1.05c0.28,0.7,0.55,1.39,0.92,2.18c0.78,0.39,1.46,0.67,2.16,0.97l1.04,0.45
			l0.94,0.35c1.23,0.44,2.56,0.97,3.65,1.27c1.18,0.38,2.19,0.6,3.28,0.89l1.49,0.29c0.5,0.1,1,0.2,1.44,0.24
			c3.78,0.58,6.81,0.39,9.38-0.27c2.55-0.68,4.57-1.91,6.17-3.57l4.93-4.83l19.72-19.33l39.45-38.66l78.57-77.66
			c52.15-52.01,104.22-104.1,155.77-156.71c51.61-52.56,102.94-105.41,153.79-158.75l38.04-40.1c12.62-13.43,25.3-26.8,37.85-40.3
			c12.59-13.46,25.12-26.98,37.63-40.53l18.67-20.41l9.33-10.21l9.27-10.28L5572.69,32.29z"/>
	</defs>
	<clipPath id="SVGID_37_">
		<use xlink:href="#SVGID_36_"  style="overflow:visible;"/>
	</clipPath>
	<defs>
		<filter id="Adobe_OpacityMaskFilter_7_" filterUnits="userSpaceOnUse" x="4946.02" y="23.28" width="637.18" height="622.19">
			<feColorMatrix  type="matrix" values="1 0 0 0 0  0 1 0 0 0  0 0 1 0 0  0 0 0 1 0"/>
		</filter>
	</defs>
	<mask maskUnits="userSpaceOnUse" x="4946.02" y="23.28" width="637.18" height="622.19" id="SVGID_38_">
		<g class="st21">
			
				<linearGradient id="SVGID_39_" gradientUnits="userSpaceOnUse" x1="0.6003" y1="4320.9927" x2="1.6003" y2="4320.9927" gradientTransform="matrix(662.0259 0 0 -662.0259 4538.5024 2860943.25)">
				<stop  offset="0" style="stop-color:#FFFFFF"/>
				<stop  offset="1" style="stop-color:#333333"/>
			</linearGradient>
			<rect x="4946.02" y="23.28" class="st22" width="637.18" height="622.19"/>
		</g>
	</mask>
	
		<linearGradient id="SVGID_40_" gradientUnits="userSpaceOnUse" x1="0.6003" y1="4320.9927" x2="1.6003" y2="4320.9927" gradientTransform="matrix(662.0259 0 0 -662.0259 4538.5024 2860943.25)">
		<stop  offset="0" style="stop-color:#8F2D6B"/>
		<stop  offset="1" style="stop-color:#BF3078"/>
	</linearGradient>
	<rect x="4946.02" y="23.28" class="st23" width="637.18" height="622.19"/>
</g>
<g>
	<defs>
		<path id="SVGID_41_" d="M3713.44,5.83c-49.93,45.44-99.47,91.28-148.78,137.36c-53.87,50.24-107.22,101.01-160.51,151.86
			l-79.58,76.63l-39.63,38.48l-19.81,19.24l-4.95,4.81c-1.7,1.56-2.98,3.54-3.72,6.08c-0.72,2.55-0.99,5.58-0.5,9.37
			c0.03,0.45,0.12,0.95,0.21,1.45l0.26,1.5c0.26,1.09,0.45,2.11,0.8,3.3c0.27,1.1,0.77,2.44,1.18,3.68l0.32,0.95l0.42,1.05
			c0.28,0.7,0.55,1.39,0.92,2.18c0.78,0.39,1.46,0.68,2.16,0.98l1.04,0.45l0.94,0.35c1.23,0.44,2.56,0.97,3.65,1.27
			c1.18,0.38,2.19,0.6,3.28,0.89l1.49,0.29c0.5,0.1,1,0.2,1.44,0.24c3.78,0.58,6.81,0.39,9.38-0.27c2.55-0.68,4.57-1.91,6.17-3.56
			l4.93-4.83l19.72-19.33l39.45-38.66l78.56-77.66c52.15-52.01,104.22-104.1,155.78-156.71c51.61-52.56,102.94-105.41,153.79-158.75
			l2.48-2.61H3713.44z"/>
	</defs>
	<clipPath id="SVGID_42_">
		<use xlink:href="#SVGID_41_"  style="overflow:visible;"/>
	</clipPath>
	<defs>
		<filter id="Adobe_OpacityMaskFilter_8_" filterUnits="userSpaceOnUse" x="3255.48" y="5.83" width="488.87" height="462.98">
			<feColorMatrix  type="matrix" values="1 0 0 0 0  0 1 0 0 0  0 0 1 0 0  0 0 0 1 0"/>
		</filter>
	</defs>
	<mask maskUnits="userSpaceOnUse" x="3255.48" y="5.83" width="488.87" height="462.98" id="SVGID_43_">
		<g class="st24">
			
				<linearGradient id="SVGID_44_" gradientUnits="userSpaceOnUse" x1="0.6003" y1="4320.8721" x2="1.6003" y2="4320.8721" gradientTransform="matrix(662.0259 0 0 -662.0259 2847.9612 2860766.5)">
				<stop  offset="0" style="stop-color:#FFFFFF"/>
				<stop  offset="1" style="stop-color:#333333"/>
			</linearGradient>
			<rect x="3255.48" y="5.83" class="st25" width="488.87" height="462.98"/>
		</g>
	</mask>
	
		<linearGradient id="SVGID_45_" gradientUnits="userSpaceOnUse" x1="0.6003" y1="4320.8721" x2="1.6003" y2="4320.8721" gradientTransform="matrix(662.0259 0 0 -662.0259 2847.9612 2860766.5)">
		<stop  offset="0" style="stop-color:#8F2D6B"/>
		<stop  offset="1" style="stop-color:#BF3078"/>
	</linearGradient>
	<rect x="3255.48" y="5.83" class="st26" width="488.87" height="462.98"/>
</g>
<g>
	<defs>
		<path id="SVGID_46_" d="M1588.44,5.83c-49.93,45.44-99.47,91.28-148.78,137.36c-53.87,50.24-107.23,101.01-160.51,151.86
			l-79.58,76.63l-39.62,38.48l-19.81,19.24l-4.95,4.81c-1.7,1.56-2.97,3.54-3.72,6.08c-0.72,2.55-0.99,5.58-0.5,9.37
			c0.04,0.45,0.12,0.95,0.21,1.45l0.26,1.5c0.26,1.09,0.45,2.11,0.8,3.3c0.27,1.1,0.78,2.44,1.18,3.68l0.32,0.95l0.42,1.05
			c0.28,0.7,0.55,1.39,0.92,2.18c0.79,0.39,1.46,0.68,2.16,0.98l1.04,0.45l0.94,0.35c1.23,0.44,2.56,0.97,3.65,1.27
			c1.18,0.38,2.19,0.6,3.28,0.89l1.49,0.29c0.5,0.1,1,0.2,1.44,0.24c3.78,0.58,6.81,0.39,9.38-0.27c2.55-0.68,4.57-1.91,6.17-3.56
			l4.93-4.83l19.72-19.33l39.44-38.66l78.57-77.66c52.14-52.01,104.22-104.1,155.77-156.71c51.61-52.56,102.94-105.41,153.79-158.75
			l2.48-2.61H1588.44z"/>
	</defs>
	<clipPath id="SVGID_47_">
		<use xlink:href="#SVGID_46_"  style="overflow:visible;"/>
	</clipPath>
	<defs>
		<filter id="Adobe_OpacityMaskFilter_9_" filterUnits="userSpaceOnUse" x="1130.48" y="5.83" width="488.87" height="462.98">
			<feColorMatrix  type="matrix" values="1 0 0 0 0  0 1 0 0 0  0 0 1 0 0  0 0 0 1 0"/>
		</filter>
	</defs>
	<mask maskUnits="userSpaceOnUse" x="1130.48" y="5.83" width="488.87" height="462.98" id="SVGID_48_">
		<g class="st27">
			
				<linearGradient id="SVGID_49_" gradientUnits="userSpaceOnUse" x1="0.6003" y1="4320.8721" x2="1.6003" y2="4320.8721" gradientTransform="matrix(662.0259 0 0 -662.0259 722.9612 2860766.5)">
				<stop  offset="0" style="stop-color:#FFFFFF"/>
				<stop  offset="1" style="stop-color:#333333"/>
			</linearGradient>
			<rect x="1130.48" y="5.83" class="st28" width="488.87" height="462.98"/>
		</g>
	</mask>
	
		<linearGradient id="SVGID_50_" gradientUnits="userSpaceOnUse" x1="0.6003" y1="4320.8721" x2="1.6003" y2="4320.8721" gradientTransform="matrix(662.0259 0 0 -662.0259 722.9612 2860766.5)">
		<stop  offset="0" style="stop-color:#8F2D6B"/>
		<stop  offset="1" style="stop-color:#BF3078"/>
	</linearGradient>
	<rect x="1130.48" y="5.83" class="st29" width="488.87" height="462.98"/>
</g>
</svg>
