<?xml version="1.0" encoding="utf-8"?>
<!-- Generator: Adobe Illustrator 23.1.0, SVG Export Plug-In . SVG Version: 6.00 Build 0)  -->
<svg version="1.1" id="Capa_1" xmlns="http://www.w3.org/2000/svg" xmlns:xlink="http://www.w3.org/1999/xlink" x="0px" y="0px"
	 viewBox="0 0 2000 1350" style="enable-background:new 0 0 2000 1350;" xml:space="preserve">
<style type="text/css">
	.st0{fill:#4A0A2C;}
</style>
<g transform="translate(169.71 88.893)">
	<path class="st0" d="M1829.8,245.4c-45.4,8.8-137.9-25.5-215.9,66.4c-9.5-16.5-30.4,12.5-32,2c-1-6.3-5.9-10.2-23.6,6.6
		c-8.5-0.4-28.8,8.7-56.4,15.1c-20.6,10.8-42.2,23.3-70.6,32.7c-10.9,10-31.2,20.7-59,28.1c-8.3,7.2-19.2,13.5-30.3,15.3
		c-8.4,12.2-21.9,17.8-31.3,17.5c-51.1-7.7-28.9,19.5-81.5-18.2c2.4-16.2-17.1-37.6-26.5-56c-13.8-10.4-36.8-42.8-40.7-40.3
		c-8.3-18.6-8,4.7-34.4-32c-13.1-1.9-40.5,5.3-48.5-4.8c-17.9,0.2-34.8-3.3-54.3-5.8c-1.8,5.5-29.2,16.3-88.7,48.8
		c-2.5-1.1-59.3-3.7-62.4-19.2c-16.2,5.3-39.8-6.5-49.9-15.3c-14.5,1-24,3.2-49.6-9.7c-52,13.3-37.2,1.6-50.5-1.6
		c-37.3-58.3-47.7-48.6-52.3-42c-30.2-18.4-48.8-20.9-48.9-26c-37,13.6-52.6,5.3-58.3,1.4c-28.2-4.1-36,31.3-67.7,30.3
		c-19.5,2.4-25.1-17.6-44.7-32.1c-8.1,4.5-28.7,17.4-47.8,41.9c-21.9,10.4-24.2,31.5-33.3,34c-8.5,1.9-2.7-9.5-10.4-7
		c-4.3,29.7-7.5,26.5-16.2,17.7c-10.2,15-26.4,21.1-51.4,53.9c-33.7,7-54.9,15.1-57.4,24.6c-32.6-6.8-47.3,5.1-58.9,3.8
		c-16.7-1.9-37.1-17.9-40.6-18.3c-17.6-1.9-10.9-7.6-12.5-8.2c-12-3.9-11.6-12.3-21.8-13.6C96,322,86.3,318.4,77,321.2
		c-5.3-13.8-18.7-19.5-23.2-22.8c-11.9-8.8-14.1-26.7-41.3-25.5c-28.3-28.2-32.8-15.8-94.9-63.2c-2.6,1.6-8.1-16.5-42.3-20.4
		c-14.7-17.2-33.9-16.8-44.9-22.5c0-163.2-0.1-53.4-0.1-216.6c666.8,0,1333.2,0.1,2000,0.1C1830.3,113.4,1829.8,82.2,1829.8,245.4
		L1829.8,245.4z"/>
</g>
</svg>
