<?xml version="1.0" encoding="utf-8"?>
<!-- Generator: Adobe Illustrator 23.1.0, SVG Export Plug-In . SVG Version: 6.00 Build 0)  -->
<svg version="1.1" id="Capa_1" xmlns="http://www.w3.org/2000/svg" xmlns:xlink="http://www.w3.org/1999/xlink" x="0px" y="0px"
	 viewBox="0 0 399 399" style="enable-background:new 0 0 399 399;" xml:space="preserve">
<style type="text/css">
	.st0{fill:#791149;stroke:#000000;stroke-width:1.001;stroke-linejoin:round;}
	.st1{fill-rule:evenodd;clip-rule:evenodd;fill:#E31F7B;stroke:#000000;stroke-width:1.001;stroke-linejoin:round;}
	.st2{fill:#E31F7B;stroke:#000000;stroke-width:1.001;stroke-linejoin:round;}
	.st3{fill-rule:evenodd;clip-rule:evenodd;fill:#AF1868;stroke:#000000;stroke-width:1.0036;stroke-linejoin:round;}
	.st4{fill-rule:evenodd;clip-rule:evenodd;fill:#791149;stroke:#000000;}
	.st5{fill-rule:evenodd;clip-rule:evenodd;fill:#110620;stroke:#000000;}
	.st6{fill:#E31F7B;stroke:#000000;}
	.st7{fill:#AF1868;stroke:#000000;}
</style>
<path class="st0" d="M269.6,173c0.2,26.5-31.9,48.1-71.7,48.3c-39.8,0.1-72.3-21.2-72.5-47.7c0-0.2,0-0.3,0-0.5
	c-0.2-26.5,31.9-48.1,71.7-48.3s72.3,21.2,72.5,47.7C269.6,172.6,269.6,172.8,269.6,173z"/>
<path class="st1" d="M115.8,164.6l2.7-3.2h159.2l3.2,3.7L115.8,164.6L115.8,164.6z"/>
<path class="st2" d="M182.2,264.9h30.5v6.5h-30.5V264.9z"/>
<path class="st2" d="M251.8,242.3c0,14.9-24.3,27-54.3,27c-30,0-54.3-12.1-54.3-27c0,0,0,0,0,0c0-14.9,24.3-27,54.3-27
	C227.4,215.2,251.8,227.3,251.8,242.3C251.8,242.3,251.8,242.3,251.8,242.3z"/>
<path class="st2" d="M319,245.4c0,10.1-10.6,18.3-23.6,18.4c-13.1,0-23.6-8.2-23.7-18.3c0,0,0,0,0,0c0-10.1,10.6-18.3,23.6-18.4
	C308.4,227,319,235.2,319,245.4C319,245.4,319,245.4,319,245.4z"/>
<path class="st2" d="M117,245.4c0,10.1-10.6,18.3-23.6,18.4c-13.1,0-23.6-8.2-23.7-18.3c0,0,0,0,0,0c0-10.1,10.6-18.3,23.6-18.4
	C106.4,227,117,235.2,117,245.4C117,245.4,117,245.4,117,245.4z"/>
<path class="st3" d="M115.9,164.4V198h165.2v-33.1L115.9,164.4L115.9,164.4z"/>
<path class="st4" d="M89.3,210.7h216.4c0,0-9.9-3.2-15.6-7.1c-5.6-3.8-8.9-7.1-8.9-7.1H115.2c0,0-5.3,4.7-10,7.4
	C100.5,206.7,89.3,210.7,89.3,210.7L89.3,210.7z"/>
<path class="st5" d="M8.5,247.5h376c0,0-2.9-7.3-19.3-16.7c-16.5-9.5-61.3-21.9-61.3-21.9H91.8c0,0-47.4,12.6-62.8,21.5
	C13.8,239.1,8.5,247.5,8.5,247.5L8.5,247.5z"/>
<path class="st6" d="M246.5,180.4c0,2.6-2.1,4.8-4.8,4.8c-2.7,0-4.8-2.1-4.9-4.7c0,0,0,0,0,0c0-2.6,2.1-4.8,4.8-4.8
	C244.3,175.6,246.5,177.7,246.5,180.4C246.5,180.3,246.5,180.3,246.5,180.4z"/>
<path class="st6" d="M262.5,180.4c0,2.6-2.1,4.8-4.8,4.8c-2.7,0-4.8-2.1-4.9-4.7c0,0,0,0,0,0c0-2.6,2.1-4.8,4.8-4.8
	C260.3,175.6,262.5,177.7,262.5,180.4C262.5,180.3,262.5,180.3,262.5,180.4z"/>
<path class="st6" d="M277,180.4c0,2.7-1.8,4.8-4.1,4.8s-4.1-2.1-4.2-4.8c0,0,0,0,0,0c0-2.7,1.8-4.8,4.1-4.8S277,177.7,277,180.4
	C277,180.3,277,180.3,277,180.4z"/>
<path class="st6" d="M149.2,180.4c0,2.6-1.9,4.8-4.3,4.8c-2.4,0-4.3-2.1-4.3-4.8c0,0,0,0,0,0c0-2.6,1.9-4.8,4.3-4.8
	C147.2,175.5,149.2,177.7,149.2,180.4C149.2,180.3,149.2,180.3,149.2,180.4z"/>
<path class="st6" d="M135.2,180.4c0,2.6-1.9,4.8-4.3,4.8c-2.4,0-4.3-2.1-4.3-4.8c0,0,0,0,0,0c0-2.6,1.9-4.8,4.3-4.8
	C133.2,175.5,135.2,177.7,135.2,180.4C135.2,180.3,135.2,180.3,135.2,180.4z"/>
<path class="st6" d="M122.3,180.4c0,2.8-0.9,5-1.9,5c-1.1,0-2-2.2-2-5c0,0,0,0,0,0c0-2.8,0.9-5,1.9-5
	C121.4,175.3,122.3,177.6,122.3,180.4C122.3,180.3,122.3,180.3,122.3,180.4z"/>
<path class="st7" d="M157,133.6h81.6"/>
</svg>
