<?xml version="1.0" encoding="utf-8"?>
<!-- Generator: Adobe Illustrator 23.1.0, SVG Export Plug-In . SVG Version: 6.00 Build 0)  -->
<svg version="1.1" id="Capa_1" xmlns="http://www.w3.org/2000/svg" xmlns:xlink="http://www.w3.org/1999/xlink" x="0px" y="0px"
	 viewBox="0 0 7680 4320" style="enable-background:new 0 0 7680 4320;" xml:space="preserve">
<style type="text/css">
	.st0{clip-path:url(#SVGID_2_);fill:url(#SVGID_3_);}
	.st1{clip-path:url(#SVGID_5_);fill:#110620;}
	.st2{fill:none;}
	.st3{fill:#110620;}
</style>
<g>
	<g>
		<g>
			<g>
				<defs>
					<polygon id="SVGID_1_" points="7354.2,885 7483.6,726.3 7671.6,535.1 7674.4,-6.6 -5.5,-46.6 -8.5,531.3 1517.5,777.5 
						1713.4,688.5 2191.2,781 2294.5,691.6 2463.8,782.4 2623.4,742.1 2654.5,693.4 3122.1,785.9 3348.8,697 3621,767.9 
						3574.2,865.4 3677.2,835 3744.4,773.7 3929.9,702.6 4686.1,670.6 4829.7,743.3 4876.4,676.7 5323.1,812.7 5358.7,746.1 
						5991.5,703.1 6362.2,777 6434.3,751.7 6557.4,819.2 6609.3,726.9 7200.3,796.8 					"/>
				</defs>
				<clipPath id="SVGID_2_">
					<use xlink:href="#SVGID_1_"  style="overflow:visible;"/>
				</clipPath>
				
					<linearGradient id="SVGID_3_" gradientUnits="userSpaceOnUse" x1="11337.1768" y1="-1998.2585" x2="11338.1768" y2="-1998.2585" gradientTransform="matrix(4.648 -893.2736 -893.2736 -4.648 -1833857 10118780)">
					<stop  offset="0" style="stop-color:#E02074"/>
					<stop  offset="0.1573" style="stop-color:#D42171"/>
					<stop  offset="0.4413" style="stop-color:#B42368"/>
					<stop  offset="0.8168" style="stop-color:#812659"/>
					<stop  offset="0.9871" style="stop-color:#682852"/>
					<stop  offset="1" style="stop-color:#682852"/>
				</linearGradient>
				<polygon class="st0" points="-5.5,-46.6 7674.4,-6.6 7669.7,886.7 -10.2,846.7 				"/>
			</g>
		</g>
	</g>
</g>
<g>
	<g>
		<g>
			<g>
				<defs>
					
						<rect id="SVGID_4_" x="1663.2" y="-1706.8" transform="matrix(5.203085e-03 -1 1 5.203085e-03 1670.1639 5945.4434)" width="4320.2" height="7680.2"/>
				</defs>
				<clipPath id="SVGID_5_">
					<use xlink:href="#SVGID_4_"  style="overflow:visible;"/>
				</clipPath>
				<path class="st1" d="M-8.3,488.5l2.8-535l7679.9,40l0.4,446.6l-323.7,371.3l-198.4-93.6L6625,663.5l-92.8,50.9l-92.3-48.5
					l-72.2,47.6c-202.1-31.9-653.9-195.4-653.9-195.4l408.1-25.3l-277.7,5.4l-486.5-78l-2182.3-65.7l-289.4-8.7l-159,251.1
					l-281.4,44.8L2312,623.9l-99.6,40.6L1712,627.7l-192.3,60.7L-8.3,488.5z"/>
			</g>
		</g>
	</g>
</g>
<rect x="1663.2" y="-1706.8" transform="matrix(5.203085e-03 -1 1 5.203085e-03 1670.1639 5945.4434)" class="st2" width="4320.2" height="7680.2"/>
<polygon class="st3" points="3181.6,504.6 2795.8,332.2 2864.1,208 5190.4,288.7 6097.9,377.3 5690.1,406.5 6343.5,631.5 
	5450.3,511.1 5275.3,576.1 4874.7,517.6 4784.4,550.1 4603.8,485.1 3774.2,537.1 3678.3,595.7 3480.7,550.1 "/>
<polygon class="st3" points="5750.6,496 5903.1,349.2 6436.8,457.7 6309.6,592 "/>
</svg>
